<mxfile host="app.diagrams.net" modified="2024-02-01T10:57:46.986Z" agent="Mozilla/5.0 (Windows NT 10.0; Win64; x64) AppleWebKit/537.36 (KHTML, like Gecko) Chrome/121.0.0.0 Safari/537.36 Edg/121.0.0.0" etag="RuW7uKlKRCa5yHUUrYqe" version="23.0.2" type="github">
  <diagram name="Страница — 1" id="cYHQjo4B7FAV5qbJEVPU">
    <mxGraphModel dx="3184" dy="872" grid="0" gridSize="10" guides="1" tooltips="1" connect="1" arrows="1" fold="1" page="0" pageScale="1" pageWidth="827" pageHeight="1169" background="none" math="0" shadow="0">
      <root>
        <mxCell id="0" />
        <mxCell id="1" parent="0" />
        <mxCell id="bgL4n8ZKiBeQEnYVn7Eq-65" value="" style="rounded=0;whiteSpace=wrap;html=1;" vertex="1" parent="1">
          <mxGeometry x="-84.5" y="1954" width="591.5" height="426" as="geometry" />
        </mxCell>
        <mxCell id="bgL4n8ZKiBeQEnYVn7Eq-1" value="Тренер" style="swimlane;fontStyle=0;childLayout=stackLayout;horizontal=1;startSize=30;horizontalStack=0;resizeParent=1;resizeParentMax=0;resizeLast=0;collapsible=1;marginBottom=0;whiteSpace=wrap;html=1;" vertex="1" parent="1">
          <mxGeometry x="10" y="40" width="140" height="150" as="geometry" />
        </mxCell>
        <mxCell id="bgL4n8ZKiBeQEnYVn7Eq-2" value="ID*" style="text;strokeColor=none;fillColor=none;align=left;verticalAlign=middle;spacingLeft=4;spacingRight=4;overflow=hidden;points=[[0,0.5],[1,0.5]];portConstraint=eastwest;rotatable=0;whiteSpace=wrap;html=1;" vertex="1" parent="bgL4n8ZKiBeQEnYVn7Eq-1">
          <mxGeometry y="30" width="140" height="30" as="geometry" />
        </mxCell>
        <mxCell id="bgL4n8ZKiBeQEnYVn7Eq-25" value="ФИО" style="text;strokeColor=none;fillColor=none;align=left;verticalAlign=middle;spacingLeft=4;spacingRight=4;overflow=hidden;points=[[0,0.5],[1,0.5]];portConstraint=eastwest;rotatable=0;whiteSpace=wrap;html=1;" vertex="1" parent="bgL4n8ZKiBeQEnYVn7Eq-1">
          <mxGeometry y="60" width="140" height="30" as="geometry" />
        </mxCell>
        <mxCell id="bgL4n8ZKiBeQEnYVn7Eq-3" value="Звание" style="text;strokeColor=none;fillColor=none;align=left;verticalAlign=middle;spacingLeft=4;spacingRight=4;overflow=hidden;points=[[0,0.5],[1,0.5]];portConstraint=eastwest;rotatable=0;whiteSpace=wrap;html=1;" vertex="1" parent="bgL4n8ZKiBeQEnYVn7Eq-1">
          <mxGeometry y="90" width="140" height="30" as="geometry" />
        </mxCell>
        <mxCell id="bgL4n8ZKiBeQEnYVn7Eq-4" value="Возраст" style="text;strokeColor=none;fillColor=none;align=left;verticalAlign=middle;spacingLeft=4;spacingRight=4;overflow=hidden;points=[[0,0.5],[1,0.5]];portConstraint=eastwest;rotatable=0;whiteSpace=wrap;html=1;" vertex="1" parent="bgL4n8ZKiBeQEnYVn7Eq-1">
          <mxGeometry y="120" width="140" height="30" as="geometry" />
        </mxCell>
        <mxCell id="bgL4n8ZKiBeQEnYVn7Eq-5" value="Боец" style="swimlane;fontStyle=0;childLayout=stackLayout;horizontal=1;startSize=30;horizontalStack=0;resizeParent=1;resizeParentMax=0;resizeLast=0;collapsible=1;marginBottom=0;whiteSpace=wrap;html=1;" vertex="1" parent="1">
          <mxGeometry x="180" y="40" width="140" height="180" as="geometry" />
        </mxCell>
        <mxCell id="bgL4n8ZKiBeQEnYVn7Eq-6" value="ID*" style="text;strokeColor=none;fillColor=none;align=left;verticalAlign=middle;spacingLeft=4;spacingRight=4;overflow=hidden;points=[[0,0.5],[1,0.5]];portConstraint=eastwest;rotatable=0;whiteSpace=wrap;html=1;" vertex="1" parent="bgL4n8ZKiBeQEnYVn7Eq-5">
          <mxGeometry y="30" width="140" height="30" as="geometry" />
        </mxCell>
        <mxCell id="bgL4n8ZKiBeQEnYVn7Eq-7" value="Весовая категория*(FK)" style="text;strokeColor=none;fillColor=none;align=left;verticalAlign=middle;spacingLeft=4;spacingRight=4;overflow=hidden;points=[[0,0.5],[1,0.5]];portConstraint=eastwest;rotatable=0;whiteSpace=wrap;html=1;" vertex="1" parent="bgL4n8ZKiBeQEnYVn7Eq-5">
          <mxGeometry y="60" width="140" height="30" as="geometry" />
        </mxCell>
        <mxCell id="bgL4n8ZKiBeQEnYVn7Eq-26" value="Тренер*(FK)" style="text;strokeColor=none;fillColor=none;align=left;verticalAlign=middle;spacingLeft=4;spacingRight=4;overflow=hidden;points=[[0,0.5],[1,0.5]];portConstraint=eastwest;rotatable=0;whiteSpace=wrap;html=1;" vertex="1" parent="bgL4n8ZKiBeQEnYVn7Eq-5">
          <mxGeometry y="90" width="140" height="30" as="geometry" />
        </mxCell>
        <mxCell id="bgL4n8ZKiBeQEnYVn7Eq-27" value="ФИО" style="text;strokeColor=none;fillColor=none;align=left;verticalAlign=middle;spacingLeft=4;spacingRight=4;overflow=hidden;points=[[0,0.5],[1,0.5]];portConstraint=eastwest;rotatable=0;whiteSpace=wrap;html=1;" vertex="1" parent="bgL4n8ZKiBeQEnYVn7Eq-5">
          <mxGeometry y="120" width="140" height="30" as="geometry" />
        </mxCell>
        <mxCell id="bgL4n8ZKiBeQEnYVn7Eq-8" value="Возраст" style="text;strokeColor=none;fillColor=none;align=left;verticalAlign=middle;spacingLeft=4;spacingRight=4;overflow=hidden;points=[[0,0.5],[1,0.5]];portConstraint=eastwest;rotatable=0;whiteSpace=wrap;html=1;" vertex="1" parent="bgL4n8ZKiBeQEnYVn7Eq-5">
          <mxGeometry y="150" width="140" height="30" as="geometry" />
        </mxCell>
        <mxCell id="bgL4n8ZKiBeQEnYVn7Eq-9" value="Поединок" style="swimlane;fontStyle=0;childLayout=stackLayout;horizontal=1;startSize=30;horizontalStack=0;resizeParent=1;resizeParentMax=0;resizeLast=0;collapsible=1;marginBottom=0;whiteSpace=wrap;html=1;" vertex="1" parent="1">
          <mxGeometry x="390" y="40" width="140" height="210" as="geometry" />
        </mxCell>
        <mxCell id="bgL4n8ZKiBeQEnYVn7Eq-10" value="ID*" style="text;strokeColor=none;fillColor=none;align=left;verticalAlign=middle;spacingLeft=4;spacingRight=4;overflow=hidden;points=[[0,0.5],[1,0.5]];portConstraint=eastwest;rotatable=0;whiteSpace=wrap;html=1;" vertex="1" parent="bgL4n8ZKiBeQEnYVn7Eq-9">
          <mxGeometry y="30" width="140" height="30" as="geometry" />
        </mxCell>
        <mxCell id="bgL4n8ZKiBeQEnYVn7Eq-11" value="Турнир*(FK)" style="text;strokeColor=none;fillColor=none;align=left;verticalAlign=middle;spacingLeft=4;spacingRight=4;overflow=hidden;points=[[0,0.5],[1,0.5]];portConstraint=eastwest;rotatable=0;whiteSpace=wrap;html=1;" vertex="1" parent="bgL4n8ZKiBeQEnYVn7Eq-9">
          <mxGeometry y="60" width="140" height="30" as="geometry" />
        </mxCell>
        <mxCell id="bgL4n8ZKiBeQEnYVn7Eq-28" value="Боец_1*(FK)" style="text;strokeColor=none;fillColor=none;align=left;verticalAlign=middle;spacingLeft=4;spacingRight=4;overflow=hidden;points=[[0,0.5],[1,0.5]];portConstraint=eastwest;rotatable=0;whiteSpace=wrap;html=1;" vertex="1" parent="bgL4n8ZKiBeQEnYVn7Eq-9">
          <mxGeometry y="90" width="140" height="30" as="geometry" />
        </mxCell>
        <mxCell id="bgL4n8ZKiBeQEnYVn7Eq-12" value="Боец_2*(FK)" style="text;strokeColor=none;fillColor=none;align=left;verticalAlign=middle;spacingLeft=4;spacingRight=4;overflow=hidden;points=[[0,0.5],[1,0.5]];portConstraint=eastwest;rotatable=0;whiteSpace=wrap;html=1;" vertex="1" parent="bgL4n8ZKiBeQEnYVn7Eq-9">
          <mxGeometry y="120" width="140" height="30" as="geometry" />
        </mxCell>
        <mxCell id="bgL4n8ZKiBeQEnYVn7Eq-30" value="Способ победы*(FK)" style="text;strokeColor=none;fillColor=none;align=left;verticalAlign=middle;spacingLeft=4;spacingRight=4;overflow=hidden;points=[[0,0.5],[1,0.5]];portConstraint=eastwest;rotatable=0;whiteSpace=wrap;html=1;" vertex="1" parent="bgL4n8ZKiBeQEnYVn7Eq-9">
          <mxGeometry y="150" width="140" height="30" as="geometry" />
        </mxCell>
        <mxCell id="bgL4n8ZKiBeQEnYVn7Eq-29" value="Результат" style="text;strokeColor=none;fillColor=none;align=left;verticalAlign=middle;spacingLeft=4;spacingRight=4;overflow=hidden;points=[[0,0.5],[1,0.5]];portConstraint=eastwest;rotatable=0;whiteSpace=wrap;html=1;" vertex="1" parent="bgL4n8ZKiBeQEnYVn7Eq-9">
          <mxGeometry y="180" width="140" height="30" as="geometry" />
        </mxCell>
        <mxCell id="bgL4n8ZKiBeQEnYVn7Eq-13" value="Весовая категория" style="swimlane;fontStyle=0;childLayout=stackLayout;horizontal=1;startSize=30;horizontalStack=0;resizeParent=1;resizeParentMax=0;resizeLast=0;collapsible=1;marginBottom=0;whiteSpace=wrap;html=1;" vertex="1" parent="1">
          <mxGeometry x="180" y="240" width="140" height="120" as="geometry" />
        </mxCell>
        <mxCell id="bgL4n8ZKiBeQEnYVn7Eq-14" value="ID" style="text;strokeColor=none;fillColor=none;align=left;verticalAlign=middle;spacingLeft=4;spacingRight=4;overflow=hidden;points=[[0,0.5],[1,0.5]];portConstraint=eastwest;rotatable=0;whiteSpace=wrap;html=1;" vertex="1" parent="bgL4n8ZKiBeQEnYVn7Eq-13">
          <mxGeometry y="30" width="140" height="30" as="geometry" />
        </mxCell>
        <mxCell id="bgL4n8ZKiBeQEnYVn7Eq-15" value="Наименование" style="text;strokeColor=none;fillColor=none;align=left;verticalAlign=middle;spacingLeft=4;spacingRight=4;overflow=hidden;points=[[0,0.5],[1,0.5]];portConstraint=eastwest;rotatable=0;whiteSpace=wrap;html=1;" vertex="1" parent="bgL4n8ZKiBeQEnYVn7Eq-13">
          <mxGeometry y="60" width="140" height="30" as="geometry" />
        </mxCell>
        <mxCell id="bgL4n8ZKiBeQEnYVn7Eq-16" value="Вес" style="text;strokeColor=none;fillColor=none;align=left;verticalAlign=middle;spacingLeft=4;spacingRight=4;overflow=hidden;points=[[0,0.5],[1,0.5]];portConstraint=eastwest;rotatable=0;whiteSpace=wrap;html=1;" vertex="1" parent="bgL4n8ZKiBeQEnYVn7Eq-13">
          <mxGeometry y="90" width="140" height="30" as="geometry" />
        </mxCell>
        <mxCell id="bgL4n8ZKiBeQEnYVn7Eq-17" value="История боев" style="swimlane;fontStyle=0;childLayout=stackLayout;horizontal=1;startSize=30;horizontalStack=0;resizeParent=1;resizeParentMax=0;resizeLast=0;collapsible=1;marginBottom=0;whiteSpace=wrap;html=1;" vertex="1" parent="1">
          <mxGeometry x="390" y="260" width="140" height="180" as="geometry" />
        </mxCell>
        <mxCell id="bgL4n8ZKiBeQEnYVn7Eq-18" value="ID*" style="text;strokeColor=none;fillColor=none;align=left;verticalAlign=middle;spacingLeft=4;spacingRight=4;overflow=hidden;points=[[0,0.5],[1,0.5]];portConstraint=eastwest;rotatable=0;whiteSpace=wrap;html=1;" vertex="1" parent="bgL4n8ZKiBeQEnYVn7Eq-17">
          <mxGeometry y="30" width="140" height="30" as="geometry" />
        </mxCell>
        <mxCell id="bgL4n8ZKiBeQEnYVn7Eq-19" value="Боец*(FK)" style="text;strokeColor=none;fillColor=none;align=left;verticalAlign=middle;spacingLeft=4;spacingRight=4;overflow=hidden;points=[[0,0.5],[1,0.5]];portConstraint=eastwest;rotatable=0;whiteSpace=wrap;html=1;" vertex="1" parent="bgL4n8ZKiBeQEnYVn7Eq-17">
          <mxGeometry y="60" width="140" height="30" as="geometry" />
        </mxCell>
        <mxCell id="bgL4n8ZKiBeQEnYVn7Eq-35" value="Турнир*(FK)" style="text;strokeColor=none;fillColor=none;align=left;verticalAlign=middle;spacingLeft=4;spacingRight=4;overflow=hidden;points=[[0,0.5],[1,0.5]];portConstraint=eastwest;rotatable=0;whiteSpace=wrap;html=1;" vertex="1" parent="bgL4n8ZKiBeQEnYVn7Eq-17">
          <mxGeometry y="90" width="140" height="30" as="geometry" />
        </mxCell>
        <mxCell id="bgL4n8ZKiBeQEnYVn7Eq-36" value="Победы" style="text;strokeColor=none;fillColor=none;align=left;verticalAlign=middle;spacingLeft=4;spacingRight=4;overflow=hidden;points=[[0,0.5],[1,0.5]];portConstraint=eastwest;rotatable=0;whiteSpace=wrap;html=1;" vertex="1" parent="bgL4n8ZKiBeQEnYVn7Eq-17">
          <mxGeometry y="120" width="140" height="30" as="geometry" />
        </mxCell>
        <mxCell id="bgL4n8ZKiBeQEnYVn7Eq-20" value="Поражения" style="text;strokeColor=none;fillColor=none;align=left;verticalAlign=middle;spacingLeft=4;spacingRight=4;overflow=hidden;points=[[0,0.5],[1,0.5]];portConstraint=eastwest;rotatable=0;whiteSpace=wrap;html=1;" vertex="1" parent="bgL4n8ZKiBeQEnYVn7Eq-17">
          <mxGeometry y="150" width="140" height="30" as="geometry" />
        </mxCell>
        <mxCell id="bgL4n8ZKiBeQEnYVn7Eq-21" value="Турнир" style="swimlane;fontStyle=0;childLayout=stackLayout;horizontal=1;startSize=30;horizontalStack=0;resizeParent=1;resizeParentMax=0;resizeLast=0;collapsible=1;marginBottom=0;whiteSpace=wrap;html=1;" vertex="1" parent="1">
          <mxGeometry x="570" y="40" width="140" height="120" as="geometry" />
        </mxCell>
        <mxCell id="bgL4n8ZKiBeQEnYVn7Eq-22" value="ID*" style="text;strokeColor=none;fillColor=none;align=left;verticalAlign=middle;spacingLeft=4;spacingRight=4;overflow=hidden;points=[[0,0.5],[1,0.5]];portConstraint=eastwest;rotatable=0;whiteSpace=wrap;html=1;" vertex="1" parent="bgL4n8ZKiBeQEnYVn7Eq-21">
          <mxGeometry y="30" width="140" height="30" as="geometry" />
        </mxCell>
        <mxCell id="bgL4n8ZKiBeQEnYVn7Eq-23" value="Арена" style="text;strokeColor=none;fillColor=none;align=left;verticalAlign=middle;spacingLeft=4;spacingRight=4;overflow=hidden;points=[[0,0.5],[1,0.5]];portConstraint=eastwest;rotatable=0;whiteSpace=wrap;html=1;" vertex="1" parent="bgL4n8ZKiBeQEnYVn7Eq-21">
          <mxGeometry y="60" width="140" height="30" as="geometry" />
        </mxCell>
        <mxCell id="bgL4n8ZKiBeQEnYVn7Eq-24" value="Дата проведения" style="text;strokeColor=none;fillColor=none;align=left;verticalAlign=middle;spacingLeft=4;spacingRight=4;overflow=hidden;points=[[0,0.5],[1,0.5]];portConstraint=eastwest;rotatable=0;whiteSpace=wrap;html=1;" vertex="1" parent="bgL4n8ZKiBeQEnYVn7Eq-21">
          <mxGeometry y="90" width="140" height="30" as="geometry" />
        </mxCell>
        <mxCell id="bgL4n8ZKiBeQEnYVn7Eq-31" value="Способ победы" style="swimlane;fontStyle=0;childLayout=stackLayout;horizontal=1;startSize=30;horizontalStack=0;resizeParent=1;resizeParentMax=0;resizeLast=0;collapsible=1;marginBottom=0;whiteSpace=wrap;html=1;" vertex="1" parent="1">
          <mxGeometry x="570" y="170" width="140" height="90" as="geometry" />
        </mxCell>
        <mxCell id="bgL4n8ZKiBeQEnYVn7Eq-32" value="ID*" style="text;strokeColor=none;fillColor=none;align=left;verticalAlign=middle;spacingLeft=4;spacingRight=4;overflow=hidden;points=[[0,0.5],[1,0.5]];portConstraint=eastwest;rotatable=0;whiteSpace=wrap;html=1;" vertex="1" parent="bgL4n8ZKiBeQEnYVn7Eq-31">
          <mxGeometry y="30" width="140" height="30" as="geometry" />
        </mxCell>
        <mxCell id="bgL4n8ZKiBeQEnYVn7Eq-34" value="Наименования" style="text;strokeColor=none;fillColor=none;align=left;verticalAlign=middle;spacingLeft=4;spacingRight=4;overflow=hidden;points=[[0,0.5],[1,0.5]];portConstraint=eastwest;rotatable=0;whiteSpace=wrap;html=1;" vertex="1" parent="bgL4n8ZKiBeQEnYVn7Eq-31">
          <mxGeometry y="60" width="140" height="30" as="geometry" />
        </mxCell>
        <mxCell id="bgL4n8ZKiBeQEnYVn7Eq-38" style="edgeStyle=orthogonalEdgeStyle;rounded=0;orthogonalLoop=1;jettySize=auto;html=1;entryX=-0.002;entryY=0.932;entryDx=0;entryDy=0;entryPerimeter=0;startArrow=oval;startFill=1;endArrow=diamond;endFill=0;dashed=1;" edge="1" parent="1" source="bgL4n8ZKiBeQEnYVn7Eq-6" target="bgL4n8ZKiBeQEnYVn7Eq-28">
          <mxGeometry relative="1" as="geometry">
            <Array as="points">
              <mxPoint x="380" y="80" />
              <mxPoint x="380" y="158" />
            </Array>
          </mxGeometry>
        </mxCell>
        <mxCell id="bgL4n8ZKiBeQEnYVn7Eq-39" style="edgeStyle=orthogonalEdgeStyle;rounded=0;orthogonalLoop=1;jettySize=auto;html=1;dashed=1;endArrow=diamond;endFill=0;startArrow=oval;startFill=1;" edge="1" parent="1" source="bgL4n8ZKiBeQEnYVn7Eq-2" target="bgL4n8ZKiBeQEnYVn7Eq-26">
          <mxGeometry relative="1" as="geometry">
            <Array as="points">
              <mxPoint x="160" y="85" />
              <mxPoint x="160" y="145" />
            </Array>
          </mxGeometry>
        </mxCell>
        <mxCell id="bgL4n8ZKiBeQEnYVn7Eq-41" style="edgeStyle=orthogonalEdgeStyle;rounded=0;orthogonalLoop=1;jettySize=auto;html=1;endArrow=diamond;endFill=0;startArrow=oval;startFill=1;dashed=1;" edge="1" parent="1" source="bgL4n8ZKiBeQEnYVn7Eq-14">
          <mxGeometry relative="1" as="geometry">
            <mxPoint x="320" y="109" as="targetPoint" />
            <Array as="points">
              <mxPoint x="350" y="295" />
              <mxPoint x="350" y="109" />
            </Array>
          </mxGeometry>
        </mxCell>
        <mxCell id="bgL4n8ZKiBeQEnYVn7Eq-44" style="edgeStyle=orthogonalEdgeStyle;rounded=0;orthogonalLoop=1;jettySize=auto;html=1;endArrow=diamond;endFill=0;startArrow=oval;startFill=1;dashed=1;exitX=0.004;exitY=0.396;exitDx=0;exitDy=0;exitPerimeter=0;" edge="1" parent="1" source="bgL4n8ZKiBeQEnYVn7Eq-22" target="bgL4n8ZKiBeQEnYVn7Eq-11">
          <mxGeometry relative="1" as="geometry" />
        </mxCell>
        <mxCell id="bgL4n8ZKiBeQEnYVn7Eq-45" value="P" style="text;html=1;strokeColor=none;fillColor=none;align=center;verticalAlign=middle;whiteSpace=wrap;rounded=0;" vertex="1" parent="1">
          <mxGeometry x="150" y="60" width="10" height="30" as="geometry" />
        </mxCell>
        <mxCell id="bgL4n8ZKiBeQEnYVn7Eq-47" value="P" style="text;html=1;strokeColor=none;fillColor=none;align=center;verticalAlign=middle;whiteSpace=wrap;rounded=0;" vertex="1" parent="1">
          <mxGeometry x="325" y="60" width="10" height="20" as="geometry" />
        </mxCell>
        <mxCell id="bgL4n8ZKiBeQEnYVn7Eq-48" value="P" style="text;html=1;strokeColor=none;fillColor=none;align=center;verticalAlign=middle;whiteSpace=wrap;rounded=0;" vertex="1" parent="1">
          <mxGeometry x="325" y="80" width="10" height="20" as="geometry" />
        </mxCell>
        <mxCell id="bgL4n8ZKiBeQEnYVn7Eq-49" value="P" style="text;html=1;strokeColor=none;fillColor=none;align=center;verticalAlign=middle;whiteSpace=wrap;rounded=0;" vertex="1" parent="1">
          <mxGeometry x="320" y="270" width="10" height="30" as="geometry" />
        </mxCell>
        <mxCell id="bgL4n8ZKiBeQEnYVn7Eq-51" value="P" style="text;html=1;strokeColor=none;fillColor=none;align=center;verticalAlign=middle;whiteSpace=wrap;rounded=0;" vertex="1" parent="1">
          <mxGeometry x="560" y="194" width="10" height="30" as="geometry" />
        </mxCell>
        <mxCell id="bgL4n8ZKiBeQEnYVn7Eq-53" style="edgeStyle=orthogonalEdgeStyle;rounded=0;orthogonalLoop=1;jettySize=auto;html=1;dashed=1;startArrow=oval;startFill=1;endArrow=diamond;endFill=0;" edge="1" parent="1" source="bgL4n8ZKiBeQEnYVn7Eq-6" target="bgL4n8ZKiBeQEnYVn7Eq-19">
          <mxGeometry relative="1" as="geometry">
            <Array as="points">
              <mxPoint x="355" y="97" />
              <mxPoint x="355" y="335" />
            </Array>
          </mxGeometry>
        </mxCell>
        <mxCell id="bgL4n8ZKiBeQEnYVn7Eq-43" style="edgeStyle=orthogonalEdgeStyle;rounded=0;orthogonalLoop=1;jettySize=auto;html=1;endArrow=oval;endFill=1;startArrow=diamond;startFill=0;dashed=1;" edge="1" parent="1" source="bgL4n8ZKiBeQEnYVn7Eq-30" target="bgL4n8ZKiBeQEnYVn7Eq-32">
          <mxGeometry relative="1" as="geometry">
            <Array as="points">
              <mxPoint x="560" y="205" />
              <mxPoint x="560" y="215" />
            </Array>
          </mxGeometry>
        </mxCell>
        <mxCell id="bgL4n8ZKiBeQEnYVn7Eq-55" value="P" style="text;html=1;strokeColor=none;fillColor=none;align=center;verticalAlign=middle;whiteSpace=wrap;rounded=0;" vertex="1" parent="1">
          <mxGeometry x="560" y="60" width="10" height="30" as="geometry" />
        </mxCell>
        <mxCell id="bgL4n8ZKiBeQEnYVn7Eq-57" value="P" style="text;html=1;strokeColor=none;fillColor=none;align=center;verticalAlign=middle;whiteSpace=wrap;rounded=0;" vertex="1" parent="1">
          <mxGeometry x="560" y="85" width="10" height="30" as="geometry" />
        </mxCell>
        <mxCell id="bgL4n8ZKiBeQEnYVn7Eq-54" style="edgeStyle=orthogonalEdgeStyle;rounded=0;orthogonalLoop=1;jettySize=auto;html=1;endArrow=oval;endFill=1;startArrow=diamond;startFill=0;dashed=1;entryX=-0.003;entryY=0.701;entryDx=0;entryDy=0;entryPerimeter=0;" edge="1" parent="1">
          <mxGeometry relative="1" as="geometry">
            <mxPoint x="521" y="365" as="sourcePoint" />
            <mxPoint x="570.58" y="91.02999999999997" as="targetPoint" />
            <Array as="points">
              <mxPoint x="547" y="365" />
              <mxPoint x="547" y="91" />
              <mxPoint x="571" y="91" />
            </Array>
          </mxGeometry>
        </mxCell>
        <mxCell id="bgL4n8ZKiBeQEnYVn7Eq-59" value="" style="shape=image;verticalLabelPosition=bottom;labelBackgroundColor=default;verticalAlign=top;aspect=fixed;imageAspect=0;image=data:image/png,iVBORw0KGgoAAAANSUhEUgAAA4cAAALSCAYAAABu2aRmAAAAAXNSR0IArs4c6QAAAARnQU1BAACxjwv8YQUAAAAJcEhZcwAADsMAAA7DAcdvqGQAAP+lSURBVHhe7L0HuBRFGraNygciCmYxsSLmLEZ0BdMqBjzmnCPmjKssZj2imCMu+mE85hxQTKzhGNHFLCgq4mIEQT/lF6l/3qrqqX57qnu66vSEnvPc11UXnOqerrmnq3vqmU4dRBn+v//v/5PFlf/3//6f/p8b//vf//T/0uPTFrw48OLAywAvA7w48OLAywAvA7w48OLAywAvQy29EA4dgRcHXgZ4GeDFgRcHXgZ4GeDFgRcHXgZ4GeDFycIL4dAReHHgZYCXAV4ceHHgZYCXAV4ceHHgZYCXAV6cLLwQDh2BFwdeBngZ4MWBFwdeBngZ4MWBFwdeBngZ4MXJwgvh0BF4ceBlgJcBXhx4ceBlgJcBXhx4ceBlgJcBXpwsvBAOHYEXB14GeBngxYEXB14GeBngxYEXB14GeBngxcnCC+HQEXhx4GWAlwFeHHhx4GWAlwFeHHhx4GWAlwFenCy8OtBCksqMGTNksU1LKtOmTbPWlyuTJ0+21icVn7bgxQu8eIGXKfAyBV68wIsXeJkCL1PgxQu8eIGXKfAypZZeOHLoCLw48DLAywAvDrw48DLAywAvDrw48DLAywAvThZeCIeOwIsDLwO8DPDiwIsDLwO8DPDiwIsDLwO8DPDiZOGFcOgIvDjwMsDLAC8OvDjwMsDLAC8OvDjwMsDLAC9OFl4Ih47AiwMvA7wM8OLAiwMvA7wM8OLAiwMvA7wM8OJk4YVw6Ai8OPAywMsALw68OPAywMsALw68OPAywMsAL04WXgiHjsCLAy8DvAzw4sCLAy8DvAzw4sCLAy8DvAzw4mThhXDoCLw48DLAywAvDrw48DLAywAvDrw48DLAywAvThZeCIeOwIsDLwO8DPDiwIsDLwO8DPDiwIsDLwO8DPDiZOGFcOgIvDjwMsDLAC8OvDjwMsDLAC8OvDjwMsDLAC9OFl4Ih47AiwMvA7wM8OLAiwMvA7wM8OLAiwMvA7wM8OJk4YVw6Ai8OPAyoB8a4MWBFwdeBngZ4MWBFwdeBngZ4MXJwgvh0BF4ceBlgJcBXhx4ceBlgJcBXhx4ceBlgJcBXpwsvDoEjccVaoSKbVpSmTFjhrW+XJkyZYq1Pqn4tAUvXuDFC7xMgZcp8OIFXrzAyxR4mQIvXuDFC7xMgZcptfRCOLRMSyrw4sXX64MPPhBDhw5NXYYMGSKLbVpSOfPMM6315copp5xirU8qPm3Bixd48QIvU+BlCrx4gRcv8DKlkb3uuOMO6xgrrmDcywu8eAl74bRSR+DF8fXq2LGjWGWVVcTmm2+eqvTv318W27Sk0q9fP2t9ubLJJptY65OKT1vw4gVevMDLFHiZAi9e4MULvExpZK+5555b/N//+3/1yKo8GPdy4MUJeyEcOgIvjq/X//k//wc7tQLw4sCLAy8DvAzw4sCLAy9DI3thHKWAFycLL4RDR+DF8fXCTk0BLw68OPAywMsALw68OPAyNLIXxlEKeHGy8EI4dAReHF8v7NQU8OLAiwMvA7wM8OLAiwMvQyN7YRylgBcnCy+EQ0fgxfH1wk5NAS8OvDjwMsDLAC8OvDjwMjSyF8ZRCnhxsvBCOHQEXhxfL+zUFPDiYH1x4GWAlwFeHHhx4GVoZC+MoxTw4mThhXDoCLw4vl5xO7VLr7vLqZQD64sDLwO8DPDiwIsDLwO8DPDiVNsL4VABL04WXgiHjsCL4+uVFA6ffu41Me6/HycWmgfh0B14GeBlgBcHXhx4GeBlgBen2l4Ihwp4cbLwQjh0BF4cX6+kcEjhb/r06YmF5kE4dAdeBngZ4MWBFwdeBngZ4MWpthfCoQJenCy8EA4dgRfH1wvhUIF+yIEXB14GeBngxYEXB16GRvZCOFTAi5OFF8KhI/Di+HolhcM33h4vvvv+e/Hdd98Viv438vcb77yPcOgBvAzwMsCLAy8OvAzwMsCLU20vhEMFvDhZeCEcOgIvjq9XUjh8pXWcuOee+8TGG29sLffed7+cB+HQHXgZ4GWAFwdeHHgZ4GWAF6faXgiHCnhxsvDqQAtJKjNmzJDFNi2pTJs2zVpfrkyePNlan1R82oIXL9X2op3aiBEjSqZR4Hth7BvijjvuEhtuuJEuG4b+v5Gc9uJ/3pDzRl8fLVhfvMDLFHiZAi9e4MULvEyBlynw4qXaXnHjqLiC9cULvHgJe+HIoSPw4vh6JR05fPb5V8X48R+K8e8XCv1rKTQPjhy6Ay8DvAzw4qRp68033xSPPfaYuP3228W1114rLrjgAjFo0CBx+OGHi913311svfXWYoMNNhArrriiWGyxxUSHDh1kWWKJJcTKK68sf/TaZpttxG677SaOOOIIcfrpp4uLLrpIXH/99eLOO+8UTzzxhBg3bpxujYP1xYEXp1Je0T5/7rnnipNPPrkqfZ7A+jJQWzhyqIAXJwsvhENH4MXx9UoKh088/ZJ46613C19E48SbJf8WSuHfJ0ePRTj0AF4GrC8DvDjhtn7//Xfx2muvieuuu04ccsghYp111ikOeuedd17Ro0cPscoqq8hT3gcMGCD23ntvGRL/9a9/iUsuuUTceOONoqWlRTz33HPiqaeeEnfffbe44YYbxMUXXywGDx4sjjzySLHnnnvKQTMNnldaaSWx+OKLF9ugQgPuY445Rtx8883inXfewfqKAC9OW73qsc8TWF8GagvhUAEvThZeCIeOwIvj65UUDh95fIz4z8utseXlQnm4MA/CoTvwMsDLAC/Fb7/9Jl555RVx+eWXi4MOOkisueaaYp555pGD1V69eskjHnSkY/To0eLHH3/Ur6ocU6ZMkUdq6AjNwIEDxdJLLy3fS6dOnUSfPn3kIPumm24Sb731lpg1a5Z+VTzohxx45avPr7322lXp83nphwiHCnhxsvBCOHQEXhxfr6Rw+H/velTc//Bocd9DT8f+O6owD8KhO/AywMvQnr3++OMPcd9998mBKO2X5pprLnla3F577SWGDRsmj37Q43Pqhe+//14ejbnwwgvFLrvsIv72t7/JwXOXLl3EPvvsI6fNnj1bz81BP+S0Vy/0+WTy0g8RDhXw4mThhXDoCLw4vl5J4dCllAPriwMvA7wM7c1rzpw5YuzYsfJaqe7du8uB5kYbbSSuvPJKr/dWa7744gt5yh4d9SEXusbrpJNOKp6OF4B+yGlPXujz6clLP0Q4VMCLk4UXwqEj8OL4emGnpoAXB14ceBmy8JowYYIYMmSIWG655eSAco011pCnzH355Zd6jvzz0UcfyWu/evfuLR1XW2010dzcLE/XQz/ktAcv9PnG7YcYRyngxcnCC+HQEXhxfL2wU1PAiwMvDrwMvl5Tp04V11xzjbzBBQ0caQBJg2UaUDY6dF3WKaecIq/bolMH+/XrJ2699VYxc+ZMPUc60A8NefCivo0+79/n89IPMY5SwIuThRfCoSPw4vh6YaemgBcHXhx4GVzb+vnnn+VpZp07dxZLLbWU/P8bb7yhp7Yv/vrrL3lK4VFHHSUWWWQRscACC8jrt9J+puiHhnr2oj5PwQh9vm19Pi/9EOMoBbw4WXghHDoCL46vF3ZqCnhx4MWBlyFtW3QbfrqpxoILLiiftUa30I+7WUV7hG5GQo8b6Natm1hyySXFv//977KfD/qhoR690OeTce3zeemHGEcp4MXJwgvh0BF4cXy9sFNTwIsDLw68DOXaohtujBo1Siy77LLyyAk9T23GjBl6Kojyww8/yKMq9NiCVVddVT4+IA70Q0M9eaHPu5G2z+elH2IcpYAXJwsvhENH4MXx9cJOTQEvDrw48DIktfX000+LtdZaS15ftccee4ivv/5aTwHl+OCDD8RWW20lP7tNN91UXrMVBf3QUC9e6PP+lOvzeemHGEcp4MXJwgvh0BF4cXy9sFNTwIsDLw68DLa23n//fbHFFlvIQd76668vWltb9RTgyhNPPCFWXnll+VnSs+QmTZqkp6Afhqm1F/p8dsT1+bz0Q4yjFPDiZOGFcOgIvDi+XtipKeDFgRcHXoZoW1dddZXo1KmT6Nmzp7jzzjvlKXagbdB1WNddd51YdNFFxfzzzy/uvfdeWY9+aKilF/p89tj6fF76IcZRCnhxsvDqQH8kFXpODBXbtKQyefJka325MnHiRGt9UvFpC168VNuLdmr0RWebbitYX7zAixd4mdLoXnRK2Oabby5/7T/ggAPEb7/9pr/OQFbQtVnbbLON/Iz32msvebQquj7KFWxfprTVC32+8oT7/J577lm1vkHFty2Mo1SBFy9ZeOHIoSPw4vh64RcvBbw48OLAy0BtvfDCC2KJJZZgR7VA5bj66qvljU7oAervvfeerk0Hti9DW7zQ56tL0Ofp2ZDV6POEbz/EOEoBL04WXgiHjsCL4+uFnZoCXhx4ceBluPHGG+VDrddbbz12PVxW/K+lSR414KVZtPcrumiATANlGjA/8sgjurY82L4Mvl6V7vPATjX7POHbDzGOUsCLk4UXwqEj8OL4emGnpoAXB14ceCnOOussGdborow+77Mcrc0dRFOL+2fdXqDHI/Tv318GlVtuuUXXJoPty+DjVek+D5KpVp8nfPshxlEKeHGy8EI4dAReHF8v7NQU8OLAi9PevehmEfvtt58cJJ9++um6NmP+1yKamlqE+yfdvqD+QUGF1gUFl3Jg+zK4eFWlz4NUVKPPE779EOMoBbw4WXghHDoCL46vF3ZqCnhx4MVpz150J8bddttN/nJ/ww036NoIFOwKAzcavIVLc+RcUDoyGDu9tVl0oAr6NzRP6ZHE/4mWJr4c+bqAmPfClhNpI1z4e24VzeHp0fAqlxM55VW3X1yOZZ7g1FmntiIER7ROOeUUXWMH25chrVeqPg+qTiX7POHbDzGOUsCLk4UXwqEj8OL4emGnpoAXB16c9uw1aNAgOSBL3E/IQBQKQNGAVAx0oXl0QAvmMdcahoOUCkwm2OnlhFOVbqs4T0nbBWRbTaK4mOjfRMnrdFgLLUiF26gDD34lyymZx4RAp7YsnHPOOXI5w4YN0zWlYPsypPVK1edBTahUnyd8+yHGUQp4cbLwQjh0BF4cXy/s1BTw4sCL0169zjvvvLIDMYkMRKEgYw1IkTBWQAYgfYTMfjStQPi1crnR5UQCY0nIK5Dm/UTmUe8nGs4iYdUjHCrnJve2YgiCzB133KFrONi+DGm8Uvd5UDMq0ecJ336IcZQCXpwsvBAOHYEXx9cLOzUFvDjw4rRHL9ov0ADsxBNP1DUJUAAKnwaZKmgVCIW02HlsYY/Q9fQeZTGNlcyvlh0Kg2XDoeUIpUaGu6DeNRzKaYV2Wz3aiiE4BXKeeeYRTz/9tK41YPsylPNy6vOgZlSizxO+/RDjKAW8OFl4IRw6Ai+Orxd2agp4ceDFaW9eb7/9tph77rnFgAEDdE0yMnyFQ0wkIMnptmvoouHQep2dOoLGglThbxMI7UcOi/PoUnrNYYpwGFlGsQRtyeVYphdKMEs4HBbDnk9bCcyaNUuss846omvXruLLL7/UtQpsX4YkL9c+D2pL1n2e8O2HGEcp4MXJwgvh0BF4cXy9sFNTwIsDL0578vr999/ls8Xogd/Tpk3TtclQ6GHhyxYOY48c6vrw/8OEl2ULdTHhkGcq2+mgfkcOGbb3HG0/mEfW63l92ioDPX9vgQUWEJtuuqk8shKA7csQ5+XT50HtybLPE779EOMoBbw4WXghHDoCL46vF3ZqCnhx4MVpT17HHXecPILyyiuv6JpyhI/saawBKRrqqLoQioKjhfI1pfOEg6X16KJuKzkc6raCyrLhMPLeiqgg53PNYXM4QPu0lYKHHnqo0FYHMXz4cF2D7StMnNdJJ53k2OdBvZBVnyd8+yHGUQp4cbLwQjh0BF4cXy/s1BTw4sCL01683n//fTnQOv/883VNCtIEJB102HzydTzElRxh1MvhYcy23FC4KmmbcD1ySKjXhI/olby/NO76Pdu8nNpKyeGHHy7mnXdeMXXqVPk3ti+DzevTTz+VwdCpzzuh122ouAR+UJ4s+jzh2w8xjlLAi5OFVwdaSFKZMWOGLLZpSYVOkbDVlyuTJ0+21icVn7bgxUu1vWinNmLECOt0W8H64gVevMDLlDx6bbPNNqJXr17ir7/+0l9NyagAwwe+0RLKO4WcFJ5WepSQiC4zOpC2TVfL1UFKB6/wPLLINxIKk+E3RiSESrOcSFhzCIfMw6etlPz6669ikUUWkQNmWqfYvkyxeW233XZOfd6FoK9a13PJkWLgSxZ9nopvP8Q4ShV48ZKFF44cOgIvjq8XfvFSwIsDL0578Hr11VflQPa+++7TNeWRg9/YQa4aBEczGKg8dIod3cnxiy++wPYVIurl0+dTY/0BQKOn4QhidrS1zxO+/RDjKAW8OFl4IRw6Ai+Orxd2agp4ceDFaQ9effr0EWuuuab+Kx0Ih/UJ3WClR48eYs8998T2FSLq5dPn02K/jjTgf6K1NTql/JFjfuTdfsTaTFcluv3xZRQKe4/261y5i20e+9HQ6FH+Su4L2trnCd9+iHGUAl6cLLwQDh2BF8fXCzs1Bbw48OI0uhfdiIMGb3feeaf8G+Sfiy++WMw111zis88+0zXpaQ/b1+uvv17BPm8PWbEEwS6Untip0sHfofAV/VstIxQYLUcuS14ThLriTH7hsBgCQ8tWdaFTx6twtLQtfZ7w7YcYRyngxcnCC+HQEXhxfL2wU1PAiwMvTqN7HXPMMfJ5YX/88Yf8G+SfKVOmyButXHjhhbomPe1h+zr++OMr2OdV6EobhEpDG5G8DBW+omEwKRyq5UWP3pULfkTiPLKdJtFUqDPz2N97yXvOmLb0ecK3H2IcpYAXJwsvhENH4MXx9cJOTQEvDrw4jew1e/ZssdBCC4mjjjpK14JGgW624nPaZKNvX5Xv8y7hUIWtkhskFbCHRkK/JjyNbnwU/tty5NCg3l9wumds8NMkhUM5rdAIm0fehMlywykdJFN9LJ749nnCtx9iHKWAFycLL4RDR+DF8fXCTk0BLw68OI3s9dRTT8kBIp1mBxoLutEKrdsPPvhA16Sj0bevyvd5e8iyEz+vLRya6/h4yJL14SRoCYdyefK1Zrm24FecJ1xs4TAU9krDYeT1xVLZcOjb5wnffohxlAJenCy8EA4dgRfH1ws7NQW8OPDiNLIXPQCcbgMPGg/qF3SaXfgB4Wlo9O2rGn3eFuzCmOk6kMUdObQf+tMhkV+TyAJmNBzGHEnk79MeVOPmCbfJ5ok7clgFfPs84dsPMY5SwIuThRfCoSPw4vh6YaemgBcHXpxG9urXr58YOHCgrgFVgQbqbLBduYH02muvLfbZZx/9VzrouXFUXMnL9rXZZptVvs/HhDGJnmYNVkXKnJoqlxH0G8v1hNH2ZWCLXu+nTy/1CYfNzYXl83BanCfO3foessenzxO+/RDjKAW8OFl4IRw6Ai+Orxd2agp4ceDFaWSvLl26yLv8gepiTg8sFGuCyIZBgwaJlVdeWf+VzJ9//ikf5k3BqZG3r2r1+WAd89UbDWQFdJgK9wMZtopBSgWy8HR25NAWuqIBTf8dDn6qjdJ20oRDel3JskJO6v2Ff/QoE3YzxKXPh/HthxhHKeDFycIL4dAReHF8vbBTU8CLAy9Oo3oFj7B48cUXdQ1oNEaNGiXX8W+//aZrSqEbtNx6661imWWWkfM+/vjjDbt90bVoVe3zQfALFXtA0qExKOHwKIlM18GL/cgQU4oBMXotYGECD3Eu4ZCH0Wg4JKLvrRrBkEjT52349kOMoxTw4mThhXDoCLw4vl7YqSngxYEXp1G97r77bjmI+uabb3RNDJYBbugghh50msFiMChsbo0OaMMlNLiNDCrVEQ1z1EH9HS3hwWmaQa0iuizmobHPY46Y2EpxOdHPKtJAGt8SLJ8/lTSD7ddee03Oa7tBx19//SWf89ezZ8/iMtddd92G3r6eeOIJ6Vm2z+cEW38yqO3P1scbmaQ+n4RvP8Q4SgEvThZeCIeOwIvj64WdmgJeHHhxGtWLTiGkQVTi63UwCQ8wVfgLhRkWDmlAyo8qSCzLIUoGt8UgFAmHbACsg5pJZH5HPPSRFPOe9DyW98Pftxp0l4QzPa+pL11eGt8SbO9BvveE12g++eQT6fjqq6/qGiHmzJkj7r33XrH88svLaeEyevToht6+gh9EfN9rvYFwWIqtz6fBtx9iHKWAFycLrw5B43GFGqFim5ZUZsyYYa0vV+hhorb6pOLTFrx4qbYX7dRGjhxpnW4rWF+8wIsXeJmSB69LL71UdOrUSX8N2bEOPqNhJRQO5fy20ag1ZEWXr0NeU6EuMRxG61KEw5gwxeaR77F84Cq8yhoObe8z6p3GtwTbZxfzeUb5/vvv5UD5sccek+v8/vvvFyuttJKsCxe6w2OfPn3kPI28fV133XVl+zzIN9E+n7b49kOMo1SBFy9ZeCEcWqYlFXjx4uuFnZoq8OIFXrw0qtfQoUPFUkstpYdU5ZHBJhQoisGkGA5V2LEGljThMFhOJMiVhi4VzlyOHKr3bjmiGWordp4SbOEw5mhi5L2l8S3B8tmp91o+yNKpo7SujjvuOLHKKqvI/8eV/fbbT4wZM4b1w7Fjx8p+EpSHH36Y9aFx48YVp5155pnijjvuYNMnTJjAXn/jjTey6fQr+amnnlqcTj9YhKdTCb+eCtWF+/wFF1zApv/888/FaVSuuuoqWT9kyBCx1VZbOfV5kD+CPk+nTIf7QbmCcZQpefj+ag9eOK3UEXhxfL1wOoQCXhx4cRrV67zzzhNLLLGE/isGHUyCACEDSjSsyHATmm6jbDgMhShbONTLNyUc4tRrS+cplHA4ZAFTEw2HtnlKiA+H1vdQKKXhMN63hMg6iC4zCTqFlOY94ogjZCjq2LGjmGuuuUqWRYUeAUDfB+F+eM8994j+/fsXy+WXXy7rA5577rniNHpExFlnnaWnKN577z2x+eabF8tRRx2lpyi+/vprsckmmxSn77777nqKgvp2+PVUgvqA7bbbjk3/6aef9BTFAQccIOvpPfbu3bt8nwe5JujzdOq0CxhHGXzaghcnCy+EQ0fgxfH1wk5NAS8OvDiN6kVHVOh0wiTSnCqpwg2FNR3SbAmxXDikZQTt2MJh5D3I1xUDIj86F5D+yKGqj52nBJcjh5w0viVYP7t07f3www+FZXeQRwSpb910000yJNK+PxwSqR+st9568jWNvH3REZ5yfR7km3Cfd8G3H2IcpYAXJwsvhENH4MXx9cJOTQEvDrw4jepF2z4NouJv+W4PXSpE2cJh8H9L0EkMh82iudAOX15yOFTLC+YpHw7j3leaeUqxBbO4YKzmDarT+JYQ89nJ917SHufTTz8tLLuDeOedd3SNELNmzZKnd/bo0UNef0fTg/Lss8829Pb1wAMPSE/XxxyA/GDr82nw7YcYRyngxcnCC+HQEXhxfL2wU1PAiwMvTqN60fVjNIhKuq2/DCDho2k6qNDriuFIhhszT3yYiwmHtLzw/CnCoXpd0GaKcKjnYS6ynfB70vOwthyOEmrHcH30vafxLcH62aU7ctja2irbmzRpkq4xUEi84YYb5GmWQUjccMMNG3r7ev7556VnozzKApSS1OeT8O2HGEcp4MXJwgvh0BF4cXy9sFNTwIsDL06jetHNRGgQRTcdiScIVUGhEKOCSfGoVSQc2kKSPeBQtQpLrN4WDmXb4RIOU2nCoYIvyx7Iou2VBrCEYKY9i6+PtJ/Gt4ToMoMS/TAt0A1iaD9PN+mIIwiJiy++uFzuU0891bDbFwUGckzu86BW0PZR3K6o30e2nzSk6fM2fPshxlEKeHGy8EI4dAReHF8v7NQU8OLAi9PIXnTUiO4QCRoTukvpBhtsoP9KhkIiPephl112aejtC32+nuE/RqX4/aOEE044IXWfD+PbDzGOUsCLk4UXwqEj8OL4emGnpoAXB16cRvbaYYcdSu4QCRoHOk306KOP1n+lY+bMmV7X5OVl+0Kfb2z69u3r3OcJ336IcZQCXpwsvBAOHYEXx9cLOzUFvDjw4jSy1znnnCN69uypa0AjQX2J9vG33HKLrklHo29fbn1en0IdPm06QF+zGj29t3hdqfXol1pec2uwXFVspyhHl8PniZ7ubZlPno7cJFpa+WnJ9vej/ySC05hDldH3wpYVfA62Ik8LtZ32rf2Lp42mmac8dCqpT58nfPshxlEKeHGy8EI4dAReHF8v7NQU8OLAi9PIXq+99pocxH344Ye6FjQKTz75pHxcxeTJk3VNOhp9+wpuWJKuz6uA0tTUFAlVlIl0ACoJUaHrR3XQMqHHhMLiy0rmCZadtBxbmIrUBSEvvBwd5MxbLg2HJV56OeF5bK8jlH80SJe+12LYTAiHpfOU55lnnvHq84RvP8Q4SgEvThZeCIeOwIvj64WdmgJeHHhxGt1r2WWXFaeffrr8P2gc9tprL9GvXz/9V3raw/aVvs/rENRSCEgsCVF9s2imIFWsV/PywFbwY4FJzWM/2qjnsYax6HLSh8Po+5Hhrxi4IiFP3xypqbCc4nu03jAp8joNf48Btvel24gLh9Z5yrPPPvt49XnCtx9iHKWAFycLL4RDR+DF8fXCTk0BLw68OI3uNWTIEHmnytmzZ8u/Qf759ddfxbzzziuuv/56XZOe9rB9DR06NGWfD0IQ/RsKPRSYCslIBq3EEFVABx1Vbw9VbJ7E5QSvTRsOLcuRy+dhlS+zVf6bHHrtHmnCYfCZ8ZCaZp5k2tLnCd9+iHGUAl6cLLwQDh2BF8fXCzs1Bbw48OI0uteECRMKA7oOYvTo0fJvkH9uvvlmuX///vvvdU162sP2lb7PmxBEQSUIQ8H/gxCjK+Uy7cU1HEYDVoFKh8NivVqOCYcKFfy4V9SjbDgMvSce/NLMk0xb+jzh2w8xjlLAi5OFVwdaSFKZMWOGLLZpSWXatGnW+nKFzte21ScVn7bgxUu1vWinNmLECOt0W8H64gVevMDLlLx5bbXVVmKLLbbQX0kgz9DRsBVWWEEceuih2L5CJeq17bbbpujzkfCk/lOoUwGoNBxawhgjJhyGXxu3HBb2/MMhD3DB+1GvVe9L/Z+FQ7mscHt2j3LhkD6vYBlx4TB+nnja2uep+PZDjKNUgRcvWXjhyKEj8OL4euEXLwW8OFOnThWvvvqqeOihh8S///1v0dzcLE477TRxyCGHiIEDB4rNNttMrLfeemK11VYTvXr1ks8N69atW2FQUPgitxS6MyDNP2DAALH//vuLk08+WVx88cXyl957771XvPLKK+KTTz4RP/30k5gzZ45+F/FgfXGy8HrvvffkunriiSd0Dcgr9EB72rfTdpy3fpiWLLzS9flwCFKhsIUCkE5FLBzqABUNTIWZCu3wMMaCVwEZqoIQFLMcHrwiQVASqSsJdAr2ngO/wj4+GtTC71G+hoU+j3BYaKMpNI0HvzTzxHPTTTe1qc8Tvv0Q4ygFvDhZeCEcOgIvjq8XdmqK9ur13XffiaeffloMGzZMHH744TL0LbroonLARGX++ecXf/vb32Swo1/Z9913X/mA4XPPPVe+5pprrhEjR44Ud911l3j44YflKVovvvhiSaE+Rg+d/uc//ykOPvhg+Zwxev4aBUtqI2gvKJtssols57bbbrPeUbC9rq84svLabbfdxEorrSRvBw/yCT2fcKGFFhKnnHKK/DuP/TANWXnR8w6T+zwPQSokmaNxPGgVXGQ4Ch+tU683AU2Hw9AybWEw2k5p0EsfDtlySo5KWt6PXk409PK23MMhtRFehi0cJs9jh/r8Yost1qY+T/j2Q4yjFPDiZOGFcOgIvDi+XtipKdqDFx2Ve+qpp8T5558vdtppJ7HUUkvJL+KOHTuKVVZZRey8887izDPPlIHszTfflKdRVBM6lWLcuHHi0UcflTeLoKOMQVCdb775ZHA99dRTZRD94IMP0A9DZOX18ccfi7nnnlse1QX55KijjhJdu3aV2zuRx36Yhqy8yvf5SAiicBUKK9FwSKiApIJONOwEy2tqaSmGMirRkEVEl8PnSR8O5Z1Wi8sJB0NCh0MWwHg4VEE1Gvh8wiGvt4fDpHnsHHPMMW3u84RvP8Q4SgEvThZeCIeOwIvj64WdmqIRveiX8LFjx4ozzjhDrLnmmoUv3Q5yELT66qvLo3d0RzcKgbNmzdKvqE++/vpreXrrWWedJbbZZhux8MILS5cll1xSDgqee+651HfZRD/k2LzoBwL6weCdd97RNWGCAVx0gFkgOEoRGcglD3CDAaYeoOrCB7yK5AF38L5Ki5kvTVtqObxOzx/2kkdfzDL4svjyeVGfm3SJfE5qAG4/osNKwkB5zJgxch46rTQgr/2wHFl60RkN8X0+a9R65X2sQgThMBLgGoms+jzh2w8xjlLAi5OFF8KhI/Di+Hphp6ZoFC+a5/7775enf9KpZfSlSc98Ouecc+TpnXT6TSPwxRdfiPvuu08MHjxYbLnllmL55ZeX10PStUNJYRf9kGPz+vPPP0WfPn3kZ/r777/r2gAdnpqaSga3xfAWCi+qLhR4Sk5PMwGoOIC1nMJWEpxK5rGFumhdmrZKl1PqZRvc29ovEDM4LwmHer6wo+2IiS1UBvzwww/ySDudsh0mr/2wHFl6Jff5rEE4zIos+zzh2w8xjlLAi5OFF8KhI/Di+Hphp6bIu9fjjz8u9t57b3n6JR0lpNBE1/81ShgsB93E5tlnn5UPQKZrT+hfCslRf/RDTpzX559/Lk/TGjRokK4JCEJQi2hmIYXqm0Rzczi82AfBKmwFp47pwBYZvbJ5kgJWcTm2cBatS9FW9DWy7ciDuK3vx9Z+gaT3Xvyc9GsLn58Jh6rO+l5jwuHWW28tevToIX7++Wddo8hzP0wia6/4Pp81CIdZkWWfJ3z7IcZRCnhxsvBCOHQEXhxfL+zUFHnzojBERwKPPPJIeZolleOOO65Kp0XVN9OnTxc33nij2GijjUSXLl3ktZR33HGHrEc/5CR5Pfnkk2KeeeaRn6UhCEH0kOzIkbxCaGkNh5dUt+NXA+WSwWt4nsTlBK+1hbNoXYq2Iq+RR+8KL+BH8WzBzdZ+AfYeDSzkSb9COI148tCqiAuHdCdhevg3XbMbJe/9MI5KeNn7PKhHTjzxxEz7POHbDzGOUsCLk4UXwqEj8OL4emGnpsiLF50ySc9Touc50SCGbtpCj4Ko9+sGawU9HuP000+Xvy7TQIKuUaRbnbvSXvvhqFGjxFxzzSXuvvtuXWNCEAWVIAwF/y8NPYUQZS2u4ZCHJEmlw2Go3naKp82Pt1+gbDgMtRcJhwr1nlk7kfdBN1KhfQHdddhGI+8PXUnjVdrnQb1Bj93Ius8Tvv0Q4ygFvDhZeCEcOgIvjq8XdmqKeveaOXOmuOiii+RNWOjU0eOPP17e3ROkg9YthWp63mLnzp3FscceK7799ls9tTztuR+effbZciBGpy4XXsHDUzHgqFBTGg6jYSdKTGALvzZuOXGhrki0LkVboddQIAxeWxoOdWgrLszWfoFy4ZDaTvi8ZLuhYMw+3wL0nFAKjHRkPI5G3B8SlfTifR7UEzReqUSfJ3z7IcZRCnhxsvBCOHQEXhxfL+zUFPXqFYRCurnM4osvLh9DEb2+AqSHjrDSXe2WXnpp0alTJ3nb/zQhu733w4MOOkjuK+677+ZQCNKhsMUEHBZeYoKRCkFB4ImGLEWa5ch5istJHw6Tr+PTrynzIG7VdjjI+YTDZtFceE1xWjQc6teGlxl+r/ScUTrCRc8cTaKR+mGYSnuZPn+frgG1Zvjw4RXr84RvP8Q4SgEvThZeCIeOwIvj64WdmqLevOhGKjT4ozuxde/eXQZE37ZAKX/88Yd8gD8diaVt4LDDDhNfffWVnlpKe99v0GNRjj766MLArIPYZzUTWFRIMgGHB61gejhEqYBWEtjCAcoSqNQRtKTg5BAOE9tSr6F5wsvi4dAWMj3CIS0j9FlFw2H0qCGhPt+7xUGFdUGvpx+LytFI/TBMpb1Mn59LXHLJJboW1AK6xp7WRSX7POHbDzGOUsCLk4UXwqEj8OL4emGnpqgnryuuuEIeJaQvwhNOOKH4YF9QGcKfNz0CZNKkSXqKAfsNxWWXDZWfU8/N95aDZxV+4k97JIpBSBceoIKwWIUHgqdqKwiHPJSFw6F6H+HAS/iFQ1YfDocl4Vcx6faBokOP9UTHwn67peCRhkbsh0S1vC677DIZEA899FDV50FVoUeL0J18aaxSyT5P+PZDjKMU8OJk4YVw6Ai8OL5e2Kkp6sHr3XffFauuuqp8UD2d0kQPfwfVgdYjDQLpMRh0TScFxvBAEPsNw5133imv2+zfv38GP1wEgc39fbhTzbayh45s02Nq6EyCl19+WdeWp1H7YTW9su3zIC3V7POEbz/EOEoBL04WXh3oj6QyZcoUWWzTkgpdT2OrL1cmTpxorU8qPm3Bi5dqe9FO7aqrrrJOtxWsL16y8KIvQHoMBd0AYcUVVxRvvfWW3i2AajNjxgz5eBA6qkMPxaYBSXR9pS1564dpC7VFz5T829/+Jq/dtN1KPj0Ih2kYM2aMHCDTj0dvvvmmdb3ElUbuh7b6pNIWr+z6PEhD0OdXX331qvR5Kr79EOMoVeDFSxZeOHLoCLw4vl74xUtRKy8KghQIO3bsKIYMGYJHUtQJ9AzJ5ZZbTh4toOuN6IvBlTz1QxeCtihI77777vLGPv7PhUM4TIKutaI7Z9JpjfQYFp+zCRq9H7rQVq9s+jxIgvr80KFDZZ8fNGiQvP7elWr3Q4yjFPDiZOGFcOgIvDi+XtipKWrhRc9qolNI6bSZ8ePH6ymgXqB1S9d80iCFHqj/448/6inpyEs/dCXa1vXXXy+PtNJ1QfSLJ8iG999/X2y++eaia9eu4sEHH5R1+P4y1NILfb4yRPt8XvohxlEKeHGy8EI4dAReHF8v7NQU1fSi12y//fZycEFHA/788089BdQjo0ePFgsuuKBYZpllxHvvvadry1Pv/ZDIavuiQd2WW24p+zQFajxuxR86Sn3wwQfLz5KOUoVvkITvL0OtvdDnsyOuz+elH2IcpYAXJwsvhENH4MXx9cJOTVEtry+//FJeQ0GnJd1+++26FtQ7wXqj00zvueceXZtMPffDgKy3ryeffFKsttpqMkzTDX5wmnR6fv31V3lqeZcuXcT6668vXn/9dT3FgO8vQ714oc/7U67P56UfYhylgBcnCy+EQ0fgxfH1wk5NUQ2vTz75RD63kI5Avf3227rWA3nLe3MrflMiD+1ubtXPStPF9oiBSJ2a39ym3zYPu+V+gdTLKbyH0uu9gkcHRB4NoG/lb9yC2/4H89uLnEe+P/4ogiygdb3rrrvKdq699lpdG0+99sMwldi+Zs+eLUaMGCGWWGIJed0m3X6eriMCdujzuuGGG+TjVHr16pV4u358fxnqyQt93o20fT4v/RDjKAW8OFl4IRw6Ai+Orxd2aopKe33wwQcyGC6//PJi6tSputYTW/iJ1BVDYfFBajpUhUJcSagrBrI2hsPY5TSJpuiyLPMGdeFnwKlwGQmQcTcYqVA4DKA7y9JnS0cJkqjHfhilktsXHRWgG0vQo0HWWWcd65Gw9s5jjz0mVlllFbHQQguJ4cOHl133+P4y1KMX+nx5XPp8XvohxlEKeHGy8EI4dAReHF8v7NQUlfSiYEhfhCuvvHLbgyGROhxG5omELh7q9EO8CwGubeEweTktzTzgUX1Tc3PhfZVp0xIYC2+kJuGQOO200wptdBDnnXeeriml3vqhjWpsX9Tn6bmddPOlDTfcUB4xmD59up7a/vjuu+/EpZdeWjy9/OSTT059vRq+vwz17EV9/pBDDkGf1/j2+bz0Q4yjFPDiZOGFcOgIvDi+XtipKSrlRQ+2p2BIX4o//PCDrm0jacMhT1IFdHDTYYqFsOD1icFPkzRPmeW0Fv41YY7eT2GeVgp+Zt4w8nWFEBaUegmHRBAQ6V8b9dQP46jm9jVhwgQZpunoOV27uccee8jrtegUs0aHrkO79957xXbbbSefZ0r7Azpq4rpPwPeXIQ9e9Kgi9Hn/Pp+XfohxlAJenCy8EA4dgRfH1ws7NUUlvOjX40UWWUQsu+yy4vvvv9e1GWALP5E6t3AYqreFulA4M8UWDsssh+ahI4BBkAz+L48KhsKhPkoYtCU1nI8cht8rlcqExeCB+TfddJOuMdRLP0yiVtvX2LFj5ZGV+eefX/To0UOceuqp4qOPPtJTG4fW1lb5rDa6WcnCCy8sjj32WBkY8ra+0gIvTtgLfb5x+yHGUQp4cbLwQjh0BF4cXy/s1BRZe/3111+ib9++8i5sH374oa7NCO9wyMNUMbDRa4PAFhfq1J+KuHlSLUcfLSzUU518L5FwKN97tE3ncMg/H9l+BQIiHQH4+9//Lrej6GMu6qEflqPW2xc94HrUqFHy2Wb0PMk+ffqIa665JtePBaDP9OKLL5ankXfs2FHssMMO4v7772f+eV1f5YAXx+aFPp+evPRDjKMU8OJk4YVw6Ai8OL5e2KkpsvY688wzC2Gkg3j00Ud1TYZYwk+0Lv6aw2hgaxbNTaHQFRvqQljnSb8c+n9TS0sh2Onp7H3xo5sB8vVtCIe8jWz56aef5NFhukvhjBkzdG199MNy1NP2RY8LOffcc+XdC4PT0OhaRRo4v/baa+L333/Xc9YPM2fOFC+++KI8XW6fffYRK664ohzw03unGxbFnULXCOvLBrw45bzQ55PJSz/EOEoBL04WXgiHjsCL4+uFnZoiS6///ve/8suS7lpXEWzhJ1KnwmH46KEKXeGjiUHgYuEvIdQVsc3jshx9FLD4XiLBrSTYBvMXCg+CtT9yGEAPxKbTxegUqoBa98M01Ov2NXHiRHl7e3q4+GabbSa6du0qB89rrrmmfFj2ddddJ09fq+bgme5ESacGXn755WLfffeVR0loO+/evbvYaqutxD//+U/x4IMPiq+//lq/Ip5GW18B8OK4eOWpz3fr1q0qfT4v/RDjKAW8OFl4daCFJBX6RZqKbVpSmTZtmrW+XJk8ebK1Pqn4tAUvXqrtRTs1ej6TbbqtYH3xYmtrvfXWE2uttVblnnNlCT/RuuDUzJYgJIbDmCYIdaw6KdQF2OZxWo4KqsX5S47q6SAbvG85TQVB7pAUDsOvD5ahp1cIevYhDebeeeed2L5RrmD74iXc1ptvviluvPFGcfjhh8tT8YJ1Szd8WmGFFcRGG20ktt9+e3HggQfKuyFeeOGFcv777rtPvPDCC/JHm2+++UauKzq1jwa048aNE2PGjBH33HOPuP7668X5558vTjzxRLHffvuJAQMGiA022EDeTIQCILU177zzynaOOeYYccstt8h1jfVlCrx4aatXPfR5ujQi3Ofp9HmsL1OoLYyjVIEXL1l44cihI/Di+HrhFy9FVl70WdIXKn2p1xLrdXugotD1h6uttpro16+f/LuW/TAted4f0nW9dIt8Omr7/PPPi7vvvltcddVV4qyzzhL777+/2GmnncTGG28sB7p0FCYYWEcLHQWhgTZdI7zzzjvLmwz961//kmGf7rZIp9DRdcN0ulz0Bx+sLw68OFl7xfV5OoJ32GGHeff5o446Sp7pkqbPE1hfBmqr0cdR1AfoLrv0AwRdY7/00kvLR5LQD+F0GvQVV1wh3n777dx5paWWXgiHjsCL4+uFcKjIwot+WaIH3dPAtNYgHNYGOgWLBl80aKtVP3Shve0Pv/jiC/lgcrp74ldffaVrFVhfBnhx8uxFfZ5OCT399NMz6fME1peB2mrkcdRLL70k1l57bfm91rt3b7H33nvL600pLDY3N4tdd91VXnNP02ns43Nn9lp4uVDL9YVw6Ai8OL5eCIeKLLyGDRsmr8f4/PPPdU3tQDisHXQXwpVWWqlm/dAF7A8N8DLAi5NnLzrSSEd56IfLP/74Q9cqsL44vl6NOI6iGw/RWRg0pqGbDtEzm5OgU5UpJC6++OLi6quv1rXpQD/khL0QDh2BF8fXC+FQkYVXz5495fUfoH3zwAMPyF9R6cvSFWxfHHhx4GWAlyHJ67TTTpOPl5h77rnlaaNhsL44vl6NOI6i0+up3wwZMkTMmjVL1yZDNzCiZ1zS999FF12ka8uDfsgJeyEcOgIvjq8XwqGirV508T/tEJ9++mn5N2i/0HVBSyyxhDyVyxVsXxx4ceBlgJchzouuGezcubP8bqJCRw/DA32sL46vV6ONo26//XbZX+gOuT7QNbB0xJGui00D+iEn7IVw6Ai8OL5eCIeKtnrR857oJgAVu0MpyBX0QGgalE2fPl3XpAPbFwdeHHgZ4GWI86LrDOnoTxAO6W7K4VP+sL44vl6NNI76+eef5Q2L6PIIX+gHiFVXXVU++zeNJ/ohJ+yFcOgIvDi+XgiHirZ40ZEiut03PfgeAGLChAlyMEa3i3cB2xcHXhx4GeBlsHlFjxoGJXz0EOuL4+vVSOMoOuo333zzpXp2ZRJ0jSL9GEGPVikH+iEn7IVw6Ai8OL5eCIeKsBedN58WaotuK05fujilFIRZZJFFxEknnaT/Skd72L5cgBcHXgZ4GWxegwcPZkcNgxI+eoj1xfH1aqRxVK9evcTBBx+s/2obW2yxhdhyyy31X/GgH3LCXgiHjsCL4+uFcKgIe/373/+WDx2O3vbbBrVF89PF/nR3LwAC9txzT/nwaBfaw/blArw48DLAyxD1oqOGdIfSaDAMSnD0EOuL4+vVKOOoSZMmyf4RvXGRL3QzJBobRe+SGwX9kBP2Qjh0BF4cXy+EQ0XYi/6lO4/SL6wUEr/88ktZb4Paonn69OmjawBQ0BcsbV8u20u4H7qQp+3LBXhx4GWAlyHqRZc40L6HBvrRaw6Df2n/hPXF8fVqlHEUPdOQ+serr76qa9oGPe+XlkfP2kwC/ZAT9kI4dAReHF8vhENF1Ovmm29mX6hxRxKprf79+3vdmTIbWkVz4T02tUQ+p9bmwntvElRtfeZhaHqAnE87y2J5TuL/WprYPEG70XpWmlsLc6j3Kf8b8L8W0VScbuDvg79HGyXvW5bmQou15bnnnpPv5bPPPtM15Wkv21da4MWBlwFehrDXTz/9JK+Bp30P3TFyv/32E/369RMDBw6UDywP9pGLLbaYvPmID1hfBmqrUcZRwWOYfNuJ8tFHH8nlvfHGG7rGTrXXlyu1XF8Ih47Ai+PrhXCoiHrNnj1bLLnkksUvUvqStYVEamuttdYSJ5xwgq6pPrbwF66zTS9UFrxM8CqdR4W5cHBTISwcuuzB1NqeJRyq5ZVpQ77PSKiMUNre/0RLE19uLXjvvffke3/zzTd1TXnay/aVFnhx4GWAlyHsRQ8up1P56Lqx4LtqwIAB4oADDpD//+STT8Qee+wh902XXnqprHMF68tAbTXKOOqpp56S/YJuqJYFwZHI8ePH6xo71V5frtRyfXUIGo8r1AgV27SkMmPGDGt9uTJlyhRrfVLxaQtevFTbi3ZqI0eOtE63lfa0vujoIX3J0s4tKEFIPOyww8TEiRNlW8suu6w4//zz9aZcA0qOAvLQZg1r7DWWo3oF+Ovs89iwthd9vW6/KRzi9JHE5PdRim16uddUg2+++Ub2GfrCDferpNKetq80BV68wMsUeJkSeNGRwOOOO05+N4Wnb7vttvIIYriObqR2xBFHyBuwhevTFKwvU6itRhlH0RE++s66//779bdY27jyyivl8sq1X+31ZatPKrVcXwiHlmlJBV68+HrV+07toYceEkOHDnUqdL2FrT6pDBkyRJZo3QILLCB3btEShET6dZZu+3zDDTfo3WEt4GEwCF7Bn+qUz8hpliWBMkAtq+gaBKzY+UspHw7Vkb2mllZ2hM/6PgnZdvxpoqXtaYdoyqwydMMH+gzpugtb37aVvOw3bPVJBV68wIsXeJlSCS86ckiXPkTrsb548fVqlHBIPxTQjYzo6HMW0NHqpZZaytpWuKAf8hL2wmmljsCL4+tV76dDUNCjATZd15e2bLbZZtb6pELXZFCJ1tmeE0Vl3nnnlf9uvfXWYv75569xONTBSgekkrBkOyIXCXvyNYGfbTllAlqYsuGwuCx++mfidYvlwqHD/NVizpw58r3ce++9uqY8edlvuAIvDrw48DJUwmu77bYT+++/v/7LgPXF8fWq93GUi9f2228vll566TbffZ0CTteuXcWgQYN0TTzoh5ywF8KhI/Di+HrV+06NHsj6t7/9Tf+VjqzW16233iqPEIZDRxAKt9lmG9Ha2irbWn755cUFF1ygX1UjZACksBc5ihggA1k4PFHR4TDN6ZyRMJlEcjhUgVC1ZQuH7qHO1p7vsrJk6tSp8nN+/vnndU15qr19YX9ogJcBXpy8eyEcpsPXq5HC4QsvvCC/t+iU47ZAzzek8dOHH36oa+JBP+SEvRAOHYEXx9cL4VAR9YrekCYIhTvuuKMYN26cnku1tcEGGzg/7Dx79Kmazc06JOrqOMJhz3pUUJ+aGYSumABpIzEcFt6fmcbDIXtPIcJHRW1Y2yuGZf13Dfjggw9kn/nvf/+ra8pT7e0L+0MDvAzw4uTdC+EwHb5ejRQOCRrn0HeXyw+bYeizoNcfc8wxuiYZ9ENO2Avh0BF4cXy9EA4VUa9g50bXFdK/O++8s3j33Xf1VAO1Fb4TXC0pnpaZEKSKhIOYDn7ho40ycNGyQqFR1YVDZCTcaZLCIS3TzF76+pI2UoRSW3v1cOQwuFMbnV6TlmpvX9gfGuBlgBcn7150qiDdkCYK1hfH16vRwuH06dPF6quvLnr06CGPJLrw4IMPim7dusnLcso9/D4A/ZAT9kI4dAReHF8vhENF2OvPP/+UD8GnUyL23HPPxNMiqC16jMWGG26oa2qIJeTFEj1KJ/9W4U2WQhpTAYsffSsG0NB8URLDIatPCJehNpKCIRGdX5XaHjUkbrrpJnlDo7/++kvXlKfa2xf2hwZ4GeDFybsXwmE6fL0aLRwS9OB6ekwXfZ8ee+yxZdum52vus88+cv6NN97Y6ZrFaq8vV2q5vhAOHYEXx9cL4VAR9ho1apQ8EpjmWT/U1j333CM/R1/HzIg5LRPUBjqNi65NdaHa2xf2hwZ4GeDFybsXwmE6fL0aMRxSW7/88ovYYYcdZOCjHzrpjrf0mAuqJygQ0r0ZdtppJ3npTceOHcU555zjfDObanu5Usv1hXDoCLw4vl4Ih4qwl+svXvSgYdp5vvjii7q2NsgjaOUOs4Gq0atXL/lF6UK1ty/sDw3wMsCLk3cvhMN0+Ho1ajgMoGdiHn/88aJ79+5yrEPPf6Yb8dH/g9KnTx/x3nvv5corLbVcXwiHjsCL4+uFcKhoq9eiiy5aszuWOl1rCKoCXWdI62T06NG6Jh3V3r6wPzTAywAvTt696OgPHfWJgvXF8fVq9HAYQM/ufe6558QZZ5whv98uv/xy8eqrr4pvv/1WTs+rVzlq6YVw6Ai8OL5eCIeKtnodffTR8gJuAIhrrrlGXpSf9oL8gGpvX9gfGuBlgBcn714Ih+nw9Wov4TCAAiGFw0mTJukaRd694qilF8KhI/Di+HohHCra6jV+/Hi5s3zttdfk36B907t371QP/41S7e0L+0MDvAzw4uTdC+EwHb5eCIeKvHvFUUsvhENH4MXx9UI4VGThRefc254lBdoXwUOE3377bV2TnmpvX9gfGuBlgBcn714Ih+nw9UI4VOTdK45aeiEcOgIvjq8XwqEiC68bb7xRdO7cWfz444+6BrRH9thjD7HBBhvUrB+6gP2hAV4GeHHy7kXhkB4zEAXri+PrhXCoyLtXHLX06kALSSozZsyQxTYtqUybNs1aX65MnjzZWp9UfNqCFy/V9qKd2ogRI6zTbaXaXoMHD5bPHLRNiyu1Wl/0/yWXXFKceOKJerMG7Q26q9s888wjb/ddq37oUrA/NAVepsCLl7x7bbfddvKZvdF6rC9efL3qfRyV9foKzo75+OOPWX3eveJKLb1w5NAReHF8vXDkUJGVFz3zkMIBXYMI2hdz5swR6623nthqq63k37Xsh2nB/tAALwO8OHn32nHHHXHkMAW+Xnk4ckiXvVCgq9dCfdSV9tAPEQ4dgRfH1wvhUJGl10YbbSTWX399GRZA++GGG26QPwx8/vnn8u9a98M0YH9ogJcBXpy8eyEcpsPXKw/hkK6Bp2cxpy30GCZbPZXrrrtOBrqWlhZWP2bMGFnCdWkKtUVn3bjSHvohwqEj8OL4eiEcKrL0evfdd8Vcc80lzjvvPF0DGh06vWb++ednpxTXuh+mAftDA7wM8OLk3YvC4d57763/MmB9cXy98hAOXUlqC9ccpiMLL4RDR+DF8fVCOFRk7XX++efLgEi/oqXnf6KliU6xaBIt0dX5vxbRRKdfRB90H9QHpblVT1C0Nqs6+W8wj+1h+dHlROYpPmg/WorztYrmwt/NrerfYHoTE1F+vE7PH26vtZm3oYt6HV8+L+pzk+818v6Vv/lc08yTlpkzZ8pHV6y88sqsP9RDPywH9ocGeBngxcm718CBAxEOU+DrhXCoyLtXHLX0Qjh0BF4cXy+EQ0UlvOgOcd27dxdfffWVrimHDk9NTZEAVZgShLNwoNGBzsyrw2VonmIoLIbG0nmCMJa0HFuY4nUmtJmm7O8v7FbqpZbD/UtfJ9HLj+Th0vdaDL4J4dAyT1qC9RycThpQL/0wCewPDfAywIuTdy+Ew3T4eiEcKvLuFUctvRAOHYEXx9cL4VBRCS86orTKKquINddcU/zxxx+6NokgBLWIZhbEqL5JNDfzQCODH5uvQCQwqXDYXIhcIdg8OgiWJiy2nNThMLIcFf6C9iMhT7ZRCMLUfrCcSLuKtoRD/drC5xcfDu3zpOGSSy4Rc889t3juued0jaFe+mES2B8a4GWAFyfvXgiH6fD1QjhU5N0rjlp6IRw6Ai+OrxfCoaJSXnRL4uWWW07ewbL8+wpCUGvh31BIoRBUCDKtljBWEpiKy9BzUTiMpic2T/JygtemDYelTakAqBZvf2885PJ2Ffx1RdKEQ3lUtBBO5b8x4TBmnnLccsstMhjeeeeduoZTT/0wDuwPDfAywIuTdy8Kh3vttZf+y4D1xfH1QjhU5N0rjlp6IRw6Ai+OrxfCoaKSXhQQl1lmGbHxxhuLX3/9VdfaMCGIwksQhoL/28KYPCXTUqIBjBMOWzGhTs9TsXAYqufhUKNPdbU5FSkbDkPtxYbD+HmSoDuT0jWlFBDjqLd+aAP7QwO8DPDi5N1rp512QjhMga8XwqEi715x1NIL4dAReHF8vRAOFZX2op0oBUR6Dh49GNVOJDwVw4sKLLYwVhKYItjDYfi1ccsJvRf6yzccssBllknvK1h2aThUyzLvm7+XIuXCIbUdLDcuHCbMEwfdbIi+GJOCIVGP/TAK9ocGeBngxcm7F8JhOny9EA4VefeKo5ZeCIeOwIvj64VwqKiGF+1Ie/ToIe9s+cknn+jaMOEQpENhiwkvPIypeeOCX1Atg5f1mkMe2EqWEwleacNhdDm299zU3FxYtnlP0XAoX8NCWvhzCZEYDptFc+E1xWnWcJg8T5RZs2aJAw44QH4p0pHDctRrPwyD/aEBXgZ4cfLuhXCYDl8vhENF3r3iqKUXwqEj8OL4eiEcKqrlRaeY0tHDrl27igcffFDXBvAQpEJSQkDT4SgcmqJBS4XDcGizhEEZisLL0fNEA1u47QK8TofD0PsN3p9pSi+XtRV9z7aQ6REOaRnh92sLh2XmCfPtt98W19ujjz6qa5Op534YgP2hAV4GeHHy7kXhcM8999R/GbC+OL5eCIeKvHvFUUsvhENH4MXx9UI4VFTTi45A7b777nLneuaZZ4q//vpLT4mEIBl+zBE2W0ALApIMOtGwUyAIXi1BSKQSTVNEdDmRedKGQ3mn1dBy+GKCcMiPZIbDoQpt0YDmFw5ZfUw4TJon4D//+Y9YbLHFRK9evcRnn32ma8tT7/2QwP7QAC8DvDh596I7MSMclsfXC+FQkXevOGrphXDoCLw4vl4Ih4parK+bb75ZdOrUSay//vpOocOF6JHEyhGEw8q3VC3o8SODBw8W88wzj7zb7IwZM/SUdOSlH7oCLwO8OPDi1IsXwmE6fL0QDhV594qjll4d6I+kMmXKFFls05IKncZmqy9XJk6caK1PKj5twYuXanvRTu2qq66yTreVanudeuqp8kYutmlxJU/r66WXXhKrr766DIkXXHCB1w4oCYRDP+ho4fLLLy9PI21ubsZ+I1TgZQq8eIEXL/XiNWDAALHyyivL79NwOfnkk0vq0pQTTjjBWp9UfNo65ZRTZLFNSyq+Xrvttpvo27evU6G7kNOdq+leArbpWRZqy1Zfrmy00UZizJgx1r4RV5L64WOPPSbD4Ztvvsnq2+v2FVey8MKRQ0fgxfH1wpFDRS3X159//inOPfdcuS5WXXVV8e677+opbQfh0A06OnjkkUfKL/tNN920+Mso9hsGeBngxYEXp168hgwZIvr3719SNttsM2t9uUKBw1afVHza6tevnyy2aUnF16tnz54y9HTv3t2p0Gu6dOlinVYPpVu3buLZZ5/VvSEdSf0QRw7TkYUXwqEj8OL4eiEcKuphfb333nvyKCI9WP3ggw+Wv1SB6kDr8bLLLpPXFtLRwmuvvVbMmTNHT8V+Iwy8DPDiwIsDL0MevHzHGzitVJF3rzhq6YVw6Ai8OL5eCIeKelpfFFIWWGABufMlf9dr3UB6aP0NHz5cLL744vLzPvDAA0u+8AjsNwzwMsCLAy8OvAx58EI4NCS1hXCYjiy8EA4dgRfH1wvhUFFv6+vnn3+W10B07txZLLroouKaa67xen/ADt1s5sorr5TPnaQjtXvvvXfMsycV2G8Y4GWAFwdeHHgZ8uCFcGhIagvhMB1ZeCEcOgIvjq8XwqGiXtfX119/Lfbbbz95DRzdmGfYsGFi+vTpeipwhULh1VdfLZZcckn5me6xxx6JoTAA+w0DvAzw4sCLAy9DHrwQDg1JbSEcpiMLL4RDR+DF8fVCOFTU+/qiAEPXIdKRRLom7rjjjhMTJkzQU0E56NmSdB3h0ksvLUPhrrvuKj788EM9tTzYbxjgZYAXB14ceBny4IVwaEhqC+EwHVl4IRw6Ai+OrxfCoSIv6+v777+Xd55beOGFZcjZYostxKhRo8Svv/6q5wIBs2fPFs8884w47LDD5OdFX2YDBw4U48eP13OkB/sNA7wM8OLAiwMvQx68EA4NSW0hHKYjCy+EQ0fgxfH1QjhU5GV9BdD/77zzTvlwdgqJdDSRbqby/PPPs7tstjcoENLznI444gixyCKLyC+wNddcU1x00UXiiy++qNn6Skve+mFa4MWBFwdeBngZqu2FcGhIagvhMB1ZeCEcOgIvjq8XwqEiL+vLBl2XSM9JXG655eQOm+68uf/++8vw+NNPP+m5Gpe//vpLPPfcc/L5hPQoCvoM6IHEdIT1o48+0nMp6mF9JZHnfpgEvDjw4sDLAC9Dtb0QDg1JbSEcpiMLL4RDR+DF8fVCOFTkZX2Vg44c0g1s5p13XrnzprLBBhuIs846S7z44ovit99+03Pmlx9//FE88sgj4swzz5RHTukBv+RJ1xOecsop4s0339RzllJv6ytKo/TDKPDiwIsDLwO8DNX2Qjg0JLWFcJiOLLwQDh2BF8fXC+FQkZf1lRaad/To0eLkk0+Wp1XSqae0M6fHNqyxxhrikEMOETfccIN466235M1a6hW6u+grr7wiLr/8crHnnnvKvhCEXir0mI9BgwaJl156KdXptPW6vgIarR8GwIsDLw68DPAyVNsL4dCQ1BbCYTqy8EI4dAReHF8vhENFXtaXK4EX3cjmwQcfFGeccYbYcsstRffu3VnIWnnllUVTU5M8Gkc3uHnjjTeq/vB9Cncff/yxbP/oo48Wffr0ER07diy+x4UWWki+99NOO03cfvvt4r///a88pdSFvKwvV+DFgZcBXgZ4ceDFQTg0JLWFcJiOLLw60EKSCg3UqNimJZVp06ZZ68uVyZMnW+uTik9b8OKl2l60UxsxYoR1uq1U22vw4MGiZ8+e1mlxpZHXl60+qSR5UbiiLzR62P62224rr9MLglhQ5p9/fvllud5664ltttlG7LvvvuL4448X5513nrjuuuvE3XffLW8A8/bbb8svil9++UXv0jh0/SM9yJ+ujTzhhBPkNZHbb7+92GSTTWQwDa4VDAo9h3DAgAEyrN5zzz3y2sHwe2+P6yupwIsXeJkCL1PgxQu8ePEdb9T7OCrr9fXCCy/I72n6MTdcn3evuFJLLxw5dAReHF8vHDlU5GV9ueLj9cEHH8jQ19zcLIMcXcNI4XH99dcXvXr1Kl7j51rolFa6Wc7aa68tl0fPbaTwN3z4cHHfffeJl19+WT67Mc11kVhfHNe2KMS//vrr4rbbbpPlyiuvFGeffbZ8fiat7+222078/e9/lz8KrLbaamL55ZeXgZ2O3nbp0qW4Tqkv0DqlbZRCPq3bjTfeWF4Luvvuu8u7xtLRarpb7I033ijuv/9+eQrwl19+qd9JMlhfHHgZ4tqaMmWKGDt2rLj55ptln6brkOnUc7qb82677SZ/dNp8883ltdirr7663KctscQSYoEFFij2a/pRjE5ZX2aZZcSKK64oT8XfcMMNRf/+/cXOO+8sT8unH9UuvPBCeXp+S0uLePbZZ+VgOQzWlyEPXjhyaEhqi/o7bSe0nYXJu1cctfRCOHQEXhxfL4RDRV7WlyuV9Jo5c6Y8XfWrr76Sg6Jx48aJxx57TPznP/8R77zzjnxwP/0C9vPPP4tvvvlGv6oUrC9D1l50cx46aktHbCn0UXALnvlIhW5ctNRSS8lBcr9+/eSpxTTwpQE1HR2+9NJL5RHff//73+KOO+4QDzzwgHjiiSfkL8d0TevDDz8sBwq33nqrHCTTtaE0YKY7xR511FHyOtGtt95aniJMg/Do6cyrrLKK2GGHHeSpwvR6uuts+A677W19lQNeCvpxg26wRaeXDx06VPYz+vEq/MPFCiusIE9D33HHHeV0+jHqmGOOkX2NQuMll1wi+/bIkSPlj2F0kyvqfxTyHn30UXHvvffKU9xvuukm+eMJ/VhGbdEPKHQGBYVM2p4oPAaPzQkKfWf94x//kIH0sssuk9vMxIkT9btPBv3QUG0vhENDXFv0nU79nfbltE8Pny2UZ68kaumFcOgIvDi+XgiHirysL1fgxWnU9UXhmx74P2zYMDlwpbAXXK9JR/voqAeFQwqJd911lwyNcacAVxryox8OHn/8cXHFFVfI60spQNKjWOjoMr3n4LRiGshT+KQfH1yuL0U/NOTdi36AoiPO9IPFpptuyoIYHdmjAEhHBimEPfXUU+LTTz/Vr6w+dESc7hhNP3RQ36VgSj+ABO+XnkdLR+RPPPFE+YOL7c7K6IeGanshHBri2qJtkM4moWXSHcLpB8WAPHslUUsvhENH4MXx9UI4VORlfbkCL06jeNH1Dw899JAcFAfXilKwolM799prL3mU4+mnn/Z637WEPjMaMNMpgRQa+/btKwfU5Een/e20007yWtfPPvtMv8IO+qEhb17vv/++PFp3wAEHyNOZad3TDxwDBw4UF198sQyKdL103qDT9eko/umnny5/DKHTVoPQuNlmm4kLLrhAtLa2oh+GqLYXwqHB1hZdIjDffPPJyz8I2lfTj5B0xgiRV69y1NIL4dAReHF8vRAOFXlZX67Ai5NnL3qkB53WRoEpGDDTr7Z0xITuHtcIz7CMg4400hHPI488Ul7/Rf5044jDDjtMXq8aPQqKfmiody+6bon283R6cXA9Mx053meffeQRuDwGwbTQEX86FZ8CIx2RIXf6DHbddVd5jS6dsp8G9EOOrxfCoSHaFv3YSI/EotOtw9ClBxQQKSjm0SsNtfRCOHQEXhxfL4RDRV7Wlyvw4uTNi06TO/zww+XdXHv06CGvYaKjanQUoj1D17EGg2q61owG1XSNF302tK7QDw316EWnQO+xxx5yvVGh06Dp5kV0CnH09vjtDQrLdAMnOq2aPhvq33RUMWmbRz/k+HohHBrCbdGPGHQ696GHHqprONRX6RRTOgUc/dCQhRfCoSPw4vh6IRwq8rK+XIEXp969KPTQzTH23ntveQRhwQUXlEfH6EYZrs90bE988cUXckBNRxXp1226EyUdUU17ExAC/dBQCS+6FpAeFUA3QKLQQzdyOf/888XXX3+t5wBRpk+fLm+YQ3f/pdPGV1ppJXlqH91pOAz6IcfXC+HQELT1559/Fq8z/P3332VdFHpkA4VDugv5rFmzdG16auHlQi3XF8KhI/Di+HohHCrysr5cgRenXr3otEk6ZZKu56BC1w3SHRN9vmjbO3SE5ayzzpJ30qMQQjcAoevUZs+ereewg35oyMqLfuygO4IGR3fpxw7q53QaNHDju+++E1dffbXYaKON5GdJd2Olv+n6Y/RDjq8XwqEhaCt6nWEcwfWHdJTblVp4uVDL9YVw6Ai8OL5eCIeKvKwvV+DFqSevOXPmyABIRwVosEe/zF577bVysAeyge4cSddv0aBl2WWXlY8voF+5bWD7MrTF648//pCn91J/pn5NZfvtt5fXjIJsoB+T6Bm0dJMmGrjT4zWozpVG7oc+IBwaqK246wzjoOsP6Qj3k08+qWvSUW0vV2q5vhAOHYEXx9cL4VCRl/XlCrw49eBFRwNHjBghTxGj0EIPi6fnBoLKQQ9Gp2fb0XWbNJg+/vjj5fO6wmD7Mvh4UeimI7bBczTpeZl0au/UqVP1HCBraN3SvmTttdeWn/kuu+xScsppEo3YDwlfL4RDAx0ppG2ZLmtICznRjaXoDIHo/jUJ9ENO2Avh0BF4cXy9EA4VeVlfrsCLU0svuqMm3YqfAgo9fP7YY491+gIFbYf6DD1fjh6RQMGcngn54YcfymnYvgwuXjNnzpSPTqEBIT13kB4Y/9NPP+mpoFrQdcn9+/eXIZEejUHPES1HI/XDML5eCIcKus6Q7oqddJ2hDXKim9LQKc/0bF1aThrQDzlhL4RDR+DF8fVCOFTkZX25Ai9OLdYXfVmedNJJ8nl9FArp/z7LA9lCz5yj50LSYJpupECDa1fa+37jiiuukM/rm3/++eUPHy4DSVAZXn75ZfkcRerXNLi/44479JRSGqUfRvH1QjhUBNcZup6qHHjRD270XUefZxrQDzlhrw5B43GFGqFim5ZUwhcruxQ6DcdWn1R82oIXL9X2op0a3Q3NNt1Wqu1FOynaWdumxZVGXl+2+qQCL16q6UWn2dHDgbt37y7vPEqn3OGISn1Bd4Clm9UEp+XRKb5ffvmldX3aSnvdvkaPHi2Pvs4zzzxi0KBB4scff9SfKKgX3nrrLTFw4EDZr9dcc015E6DoesR+nhff8Ua9j6Nc1hcdcabrDEeNGmWdnlTCXjfddJNcDu0rovNFC/ohL2EvhEPLtKQCL158vRAOVcnL+rLVJxV48VItL3pgPV1TSF+O9JxChML657bbbhNLLLGEPMJLR8F+/fVX67oNl/a2fdF1SEHgoNvbf/zxx/rTA/XKG2+8IdZaay25Lzr44INZH8J+npf2Hg7pGaP0PEPqJ1msL/qxjc4soMfVhOeLlkp7hUsWXmlLFl44rdQReHF8ver9dAicVmqAl6Feveh283QdGw2e6WjUe++9p6eAPEDXhZ544onyesTevXvLu50m0V62LzpddOjQofJUMXpOIe48mi/oCPn1118vFlpoIXltKP2f6rCf57Tn00qjzzPMYn399ttv8vpDepxQ0nN6K+kVJQuvtGThhXDoCLw4vl4Ih4q8rC9X4MWppNfDDz8sTyGlX0rppif0qAqQT+iamU022USGfHouX9y1dO1h+6LnRlJQpu+K008/XR5RBfmETv+lMxnoKOLGG28sPvvsMz3FjUbdz7fncBhcZxg8zzCr9UX7Uvp8zjnnHF1TSiW9omTllYYsvBAOHYEXx9cL4VCRl/XlCrw4lfCi57odddRRMkjQbbx/+OEHPQXkHXruZOfOneWNaygkRWn07Svsj6PgjQM9OmfJJZeUP2bRj1quNOp+vr2GQ9vzDLNcXzfccIN8/iHdLMlGpbxsZOlVjiy8EA4dgRfH1wvhUJGX9eUKvDhZe9Hd3FZffXU5gL766qt1LWgkKBRSOKJTKm+88UZdq2jU7Yt+4KAH19MPHvScM9yFtPH4+eef5Y9ZtI7ppkL0I1daGnU/3x7D4TfffCOvMzz00EN1jSLr9dXU1CQf42T78bQSXnFk7ZVEFl4Ih47Ai+PrhXCoyMv6cgVenCy9xowZI0/DWXnlnuKkwgCrubVVNBf+pcEWlaaW0tf8r6WpOJ1Kc6ueUOR/oqXJTC+W6IytzZF5mkS4OdlOU0thaYrWZj3PE9HXhYqcXzmw5v7XIppoerEymMfdl8/DX18sbXSVyNeY+WzzFD+TcGXgGhT9Xigc0QCa6mgQFVw/04jbF92tlU4j9T2qxNCfZ3SVqn7RXOgBwf9Dn3lQiusrfX9T6zRU2DpP099i5qESkeBtRfpR8T3rPyV62y5WWuYp2dYUyW21DTqqQz98rL/++qlvnNWo+/n2Fg6j1xmGyXp90c1ZlltuObHVVluVXHKRtVcSWXslkYUXwqEj8OL4eiEcKvKyvlyBFycrL3pGHt3Gn54n9ttvLxYHlMUxnR7khQewahAcGthZ5ilUygGkGRtGB5QFIsGHUINHNdgmWBiidqLhqUB4gG4oHbAWB6bFSjOATvJVr0vyVcth/noe05Sja0C5cKjbSX5/+rMPve6WW26R63277baTg6lG277effddsdhii8l97sSJE3VtW7D030idbf3xOof+xpajX2c6U/n+ZpvH4hDtg6q/lS4n9JIC0eWUzlO6raVpq+3QYy9ovdOPAvTjQDkadT/f3sJh9DrDMJVYX3RqOn1WdDfoMFl7JVEJrziy8EI4dAReHF8vhENFXtaXK/DiZOF14YUXysHZfvvtJ2bPnl2oiQ5CFTx82Qad0XkINYA0i4oZmEZHhglhiOaPtkuUtk1EBqx6uU2WQW2ib8mgW1H+M+F1rq5FEudRnymd5hSeR7YVXY7FIzhiTEdapk6d2jDbV+C1zjrriO+//17Xtp2Sfhb5TG3rj9el6G96ntKuEl6n5fubfZ7INhjTt21t8XnKhEPbtpaqrWwIjhhTSKQfCZJo1P18ewqHtusMw1RqfdHlF3T9IT1iJSBLr3JUystGFl4Ih47Ai+PrhXCoyMv6cgVenLZ40amEdEohBcOzzz5bTyFsA8ECcmCnw0ckrBQJzyOhZYX/Lg2HYeQgsdC2KuZ1ZnAdXZ6hZNAuCbvoENXSmjyoDUjtG7xWLYcNxOXrLMsuUN41RFI4lNMK3mwey3uRBJ8Brw+OsNFg2vareznqbfviR8J/07UZEQk40X5nW3+8LkV/Y6j5i30lspzk/mbrB3wbjL7/IkG/Un9Y3nNSOLRva+nayg46rZR+9KAfCejHgjgadT/fXsJh3HWGYSq5vgYMGCCWWWYZMW3aNPl3Vl5pqKRXlCy8EA4dgRfH1wvhUJGX9eUKvDht8TrmmGPkQPKCCy7QtQG2gWCBkrCkB6slJTTAla8JD/qiA8oCbFnh5ZvlqEFlZNkR7APPkEtxAJo0qA1R4msZvLKgoJZjXHTxdo2WyDwyJASD8MIEtpyY96JLaWhUNyOiZ8Ytu+yyqa/VCqin7evRRx+VjltuuaW8BqkSyGAv12tpfzbrxsDrUvS3AuzHA/1afoQtRX/T85QPh5FlFEvQ5xP6U7G9kFfMtpaurWyhR5Wsu+66cmwQProTplH38+0hHCZdZximkuuLQuHSSy8tb3pFZOGVlkp6RcnCC+HQEXhxfL0QDhV5WV+uwIvj6zV8+HA5IKM7N5YSM3gNh49IoImF5mMD5ehgunRwLYks3wyubYNdhRp4RgeYgYtqRzUTbbMNvmxAb3tv4bZcXUPEzUP1wbxsnvjPKQkaPHfq1Ek+5NmlP9bL9kVHQLt06SLDQEWfXyg/60JfYz8OKGzrj9el6G+W5RK2cJgU/NLMY99uotjec9x2pOpVtU9b2UPPQ+zZs6c8Ov7111/rWkOj7ufbQzhMus4wTKXX15tvvik6duwoLr/88ky80lJprzBZeCEcOgIvjq8XwqEiL+vLFXhxfNp65ZVX5Cl3O+20U/EulRw1yIuGGDbAjRm8FgfNxT+jy4kbUOo/NeqoiT0wxQ0w7fV6+c2hEBXzHnx8eZtqOdFAZpbj7lqEBb9gnmbRXByEF2DzRB0D7O8hDB15o2toDjroIF1TnnrYvui6QnrWHZ0aS2GgsoT6VaTP2dYfr0vR3yLbkUK/LrKc+P5G2OaJ9I1I3wqwLYe/5ZhtOWlbS9VWZaAbEtGph2ussUZJH2rU769GD4flrjMMU431RT+6UkBsbeVbblrawzgK4dAReHF8vRAOFXlZX67Ai+Pa1vTp08Xiiy8uT8OZNWuWro2iB6HhwWDcERI20IsORNMMKPXf4YGhHEDy9vngMboMhXo/MQNq9j7sg9pyvtEQF8wT9Y0fiPu4aiKDauVqW1bS+9MO0WVbGDlypFz+XXfdpWuSqYfti24pv8QSS4ivvvpK11QW1R8KJdxJCtjWH69L0d/i1p18XdKPEfa+nTxPsOzQtlPS/9VyQi8pkGI78mqrcowbN0507dpVHHHEEbpG0ajfX40cDtNcZximWuuLrj+kz5wedeFKexhHdaCFJBX64KjYpiUVOrfXVl+uTJ482VqfVHzaghcv1faindqIESOs022l2l6DBw+Wp7fYpsWVRl5ftvqkAi9eXNs64IADxMILL1zmmrJgQNlSHOzxAZ+hGFJ0KQ5C9YAvPK2kWAaVqhQGjpHBccmAW4eq8HtS7yUmHLLBetwA2t2XzxP10IW17eFKxIRD1n40HBLR9RBdbgIHH3ywHHyl2QZqvX3dfPPN0u/ll1/W774KWPogYVt/vC5lf9PLL5bCDGq9B+s4ub8FfaR0mygNbIQJn6rwyaotXhcTDpm7T1uVZdSoUbLNZ599tth/GvX7y3e8Ue/jqEmTJom+ffuKVVddVfz888/WeaKlWuvr22+/FUsttZQ8M8c2Pam0h3EUjhw6Ai+OrxeOHCrysr5cgRfHpa3nnntODoruuOMOXRNHMHh1dy8iQ0kkqISQg8NqjggTycC3AaGjzBQO9957b10TTy23r++++04+4N5+/WzlUOErGrzSgP5Wa/r16ycfYB70pUb9/mrUI4d0bfEmm2wib6KVlmqurxdffFFsvvnmMoC50B7GUQiHjsCL4+uFcKjIy/pyBV6ctG3RfNTv6NS78iAcAsV9990nf1B4/PHHdY2dWm5fO+ywgzxVmsJs9VBHxPz6DPpbraEjT3TjopNPPln+3ajfX418WqkreVhf7cEL4dAReHF8vRAOFXlZX67Ai5O2rUsvvVReuP/pp5/qmiTa2+AVg/UkNthgA3mTlzlz5uiaUmq1fb3++usyvN5www26pvIUT4n0/nED/a0eoO9iuvES3b20Ub+/EA4NeVhf7cEL4dAReHF8vRAOFXlZX67Ai5OmLbojKT2gl66BAMCVRx55RIYhujNgHLXavvbdd1/5eIL4mysBYIdOR6bHttCjEBr1+wvh0JCH9dUevBAOHYEXx9cL4VCRl/XlCrw4adp64IEH5OD+rbfe0jUApIeOGK688spi22231TWl1GL7mjp1qrxt/MUXXyz/BsCVo446SnTr1k18+eWXuiY99baft4FwaMjD+moPXgiHjsCL4+uFcKjIy/pyBV6cNG3RA80322wz/RcA7tA+lU5LpmfF2ajF9jV06FCxwAILON/0AYCAL774Qp5aSqfdu1Jv+3kbCIeGPKyv9uCFcOgIvDi+XgiHirysL1fgxSnXFr1/OmpIz60DwJc//vhDdO7cWZx//vm6hlOL7YuOZu6///7y/wD4Qj+c0Q9ortTTfj4OhENDHtZXe/BCOHQEXhxfL4RDRV7Wlyvw4pRr65577pHhkJ4zBPIDPSaheMMSuvOrw/MJK8WWW24ptt56a/0XJ6kfJh3Z892+6Dmd1K/pmXV1he1ZkyAGujGPeRQI3einFjcwph885p13XvHnn3/qmnT88MMP+n/pqfb3F8KhwacteHGy8EI4dAReHF8vhENFXtaXK/DilGvr2GOPFSuuuKL+C+QH/fDwQgCiUg9P/WhubpaDaLrBURRbP6SHjNPz5JIG0b7bV/CIje+//17X1gkIh26EH/Rfox9AWltbZfuvvfaarkmGnq1Hz/58+OGHdU16qv39hXBo8GkLXpwsvBAOHYEXx9cL4VCRl/XlCrw45dpac801xTHHHKP/AsCft99+Ww6i33jjDV1jCPdDegD0pptuKuc94YQTdK0d3+2LfvRYbbXVdE0dgXCYO+iGS127dhXDhg3TNXboetv99ttPXnu7/vrr19V+Po56D4c+ryFmzpyp/5cen7Zmz54tiyv17kWv8Xmdbz8M7+cRDh2BF8fXC+FQkZf15Qq8OOXaooHMjTfeqP9qC+rZbB1Cp4EVCX79jxzeolMjZb0ufLJaXnNrsFxVbM9+iy6Hz8OPsFnnCx7I30r/mun296P/JOTrCvOGKqPvhS0rfBQkWuRREduD07V/8ahJmnksyLb5ugneK/f0hx4XQcu77bbbdI2B+iEdedlqq62KznQn0W+++UbPYcd3+6J29tprL13jSpp1bZlHrxvez/W6kaXQx1p0OJT/6nrLekvu00Hb4WXH9XtLEA1cou2W9E/+WvmerK8JzZe6n/H3bl+uZ38N/OKW7UHfvn3FIYccov/i0J1MDz74YHnjmqBNeqxLPe3n46hmOHQ9LRfUjmr3w/B+HuHQEXhxfL0QDhV5WV+uwIuT1BZd60UDGXqURdtRg72mpqaSwZvtoeBqoBcaVOoBnRngmsFj8WUl8wTLTlqOLUxF6oqDyeggNzwQDQbk+s8CJV56OeF5bK8jlH80SJe+12BAbAa4aeaxUDLYtny+GUC3/b/yyiv1Xwp6REoQCmn/S//SQPqII47Qc8Tju32tu+664rjjjtM1rqRY19b1qgNZsTL6t/nMo+szvG2U79OWdRfX7wvbY7ivENb+Eg15BdT7MH1Gvi7ax6KvS9XPdF2Jc+h1vv1Vvq70c0jcNlJAz4ClzzIM/bBx5JFHinnmmacYDOnf9dZbT07Pw/cXwiGwUe1+GN7PIxw6Ai+OrxfCoSIv68sVeHGS2po0aZIc0IwdO1bXtAU1eGtuKQxS2eiN6ptFMw3+ivVqXvugNRgQlg4gCTaPNYxFl6MHyaytSF3JwFohB6zFQaX2C9rSg+Km8MA+OlCWRF6n4e8xwPa+dBuRMJE8j4XIYFu5FV5neW9toXfv3vIREsT48ePF9ttvX2i3gxxA079BoSPWaZ4d57t90T70vPPO0zWupFjX1vWqg0hQaekPar1HXheeL1WfTrFtFPtJi2hm/YLqmwrbY2HeUL3sD9FGI+9fLj/ax6KO8u/kfmbv+8qp2K9TLKeUyOcfEPOZunDYYYcVH/dDD8en05bpyDf143C/pjJ69Gg5Xx6+v2oaDvV6CX920X0wqA3V7ofh/XwH+iOpTJkyRRbbtKRCd92z1ZcrdL64rT6p+LQFL16q7UU7tauuuso63Vaq7XXqqaeKZZZZxjotrjTy+rLVJxV48ZLUFg1i6Av5o48+0rvlthAMlunf0MCPBnmFURkbfEYHlAE66Kh62+C7QHiexOUEr42EKUmkjrUbgg1Qw+8neH1rZDAaGeBK7B72ATJ/X8FnpgbG9nBon8dC2CXw1afRRt9bW9h4441lINxmm20K7akjKeHBHxUaUG+++ebFfnjuueeK0047jZU77rhDTqPt67LLLiuZTqdCB6+nQtcxBtNOOeUU0aVLF3HDDTfod+VK+nXNPzs1bzCPdR3b+my4v6bq0/Y+VVyv8rXh9x1aHs1T6CettqCnkX2psHxVzGudw6G1n/HPKEzQl/UfZZZjw7b9EfFtpoVCFP3wcfjhh8eGQurrPXr0kN/hVE4++eTi/9MW6rtUbNOSik9bVOh0WZ/xhs84iu4gHKC2jei6VOsvcT8GvPn111+t68ZWajmOwpFDR+DF8fXCkUNFXtaXK/DiJLX13nvvyS/oDz/8UNe0BTNgpUGeGeOZOj7w4wMrU4KBZooBcHgAGUbOE7w2GCSH11OkLrzMMGz5ofdTrLcPOoOBT7hEPcqGw9B7kp9dccCUZh4LIZfiumCfUzbQjWZ23HFHeUMOGkDTQDr6WVD9wIED9SuE2G233WRYDJfLL79cTqPt66ijjiqZftZZZ8npAc8991xxGt0Bdb755hPXX3+9nupKmnWtB7K2oudJFaYktvYisHWVYtsI9RN6H0FfD/5f8t5ku4GDXkbkvabyCb1/ez/Tn2OxrUgJpMoux0bM5xK0Gf/CsgwZMkTe1ZmuY6X+S8/0jL53CocLLLCA6N+/vyx0pDH4f9pCfZeKbVpS8WmLCoVD12tz6TulTUcOo32G0fZ1BdpOLcdRCIeOwIvj64VwqMjL+nIFXpyktuiXQRrUvPTSS7qmLUQGuOo/hbrIAI9IHBwExAz0wq+NW07MINkQqWPzG+RguDhQD96Peq16X5aBjB7AmvbsHnzZAeZ90ecVLEN+dpZwGD+PBflZFdqT70+3W3aw7Q4NoOlIIEFHpikk0qA5GhLpyN6PP/4o50vCd/sKvw930qxr23rl81jXsa3PhtdDqj6dYtsI9RP5Wtk3qE5N50Ev6qaJvBencBjbz2LailJ2OTbU5xJsE4bQZ+EJXR9LPzwQ9KiKPfbYIzYkPvPMM3K+Rv7+8g+HKdZ/TL+TR7uLnzPfrtS2ZtYBlaAJuW8MT2N92N434va5BtXX2LJ0/wzaKelvkelU2DYRmRaU4kcVfX1kW5TvuTAz843Mk5Za9kOEQ0fgxanmTq2aXgiHBngZKuEV3F3y/vvv1zVtITxgpf83ixb6wtbfbMEXlyRukBcMCNUf6ss3MhMboMYsRw0UguXYvtgjdXo51gFCceHar7nwHiODhvB7VF/M4YFL+HMx8PcYoN9XoY3igLiAXGakzeR5LOjPlq79jHpH31tb6N69e8npnHTnRrpBTDgk0jWItK8rh+/2tckmm8jrwvxIs65t6zUyT2SQSwSDWPa68Hyp+nSKbUO/F7Wu6f+F5dMdUvV0Pq+9j6q+XDpI138qoo4p+pm9r4bfbwGv/hpdR5oM+jndjGbPPffUfynojIvdd9+dhUTq4/SDCNHI31/+4dDe1zh8nmCbCfeZ6H6Wbx+G0r4W3XYi/U7DX1c6T8l7ivaxcn8XUMvg+4fg/UXfj9oewvW6r5d8JqVu3D8dteyHCIeOwItTzZ1aNb0QDg3wMlTKyzaY94N/oasvKvPFJ/8OfTOWfjFGvxT1l3hombYv2Gg7wTzRL1H+ZRup068pHeSWvj/2foIv36CipG2Cfy4B9sGMXl5kGbaBSvI8FvTggrVp+TzbAvVPasN291vqh08++aQMiTSYpvloQJ30AHzCd/uyDebTk2JdW9drdB79d3G9mOWW1IUWVL5PW95fybpUbQevCQazwXT5d7RPhftPsb/EvUYT3U5S9bNS55Ltwbe/6teZz8ri5gGdfhl391sKiXRqNLUb3HhpzJgxdbWfj6Oa4ygZDlPtc1T/4H03vC8mbPNE96dqnmhbtv2p6S+KxHmkg75BVWy/sry/6LzWz4K/TqH7cFQk8nq134h8Bqk+71Jq2Q8RDh2BF6eaO7VqeiEcGuBlqJQXDXr8j7CEiXwR0yAt9GUov7gi31DqC52+0FThX4jBl2SL/DeYx/YlF10On8f25W/7si+8ju60WlyOfTDCv+D5l7b1yzn6uWjsgxm9vEi9baCSPI+FkkFzAc+BQxzvvPOObMN2g6NwPwxCIs17xhln6Fo7vtvXmWeeKVZffXVd40r5dW1fr9F5iGB9USn0KdtzDi0rILlPp9k2VLu8j5s+UzpY1c7FUphX949gGdH3xItedup+ZmlPT5G0pb/q+YrLLvuCZIKH4Jf7Ee2DDz4Qu+66q2yTbsxUT/v5OKo5jmpTOLTs28LfKfb9aZhIf4vsT1k/K2Db5wbzBO0m7nN1/7V5ptu2w0u11RF8fxP+PAx2v3LUsh8iHDoCL041d2rV9EI4NMDLUCkvGpyvuuqq+q96Iu4LsQKkHXSCROiuogsvvLD+i2PrhxQS6eYbSdce+m5fdCorDbzCd0isC+SgMfrDgytV3DbSIJ2SBub5hp7TSX0p7Y27giOJjz32mK5JT16+v7zDoe67yftaPk9bwqGcp7AsWfQyeKjTASuYJ1xs4VB+V6jt1x4O1XuXrw9LRn6wkJOs3zu2bTvuM0M4dKLaG4kr8OJU2wvhUJGX9eUKvDjl2nrqqafkl5WPR2WxfUlWCITDTNhuu+3kNVg2kvrhjBkz9P9K8d2+aJl0/VdLS4uurRMQDnPHsGHDxEILLaT/Sk+5U6Zt5OX7yz8c8kBjJbKN2MMhX441HMbs123hMLotxc1D9cG89nAYwLdR67yO4TD6HqPvXbZR8rn67Stq2Q8RDh2BF6eaO7VqeiEcGuBlqJRXMIi+++67dU29UMUBMMJhm6GBH516d+211+oaTi22rw022EAceeSR8v91A8Jh7hgwYIDYYYcd9F/pqaf9fBzVHEepcFggcRsoDY8q+EXnV9tAMJs1HFr7pXqdVzh0vAmYCWv2NtR7ThMOSz8TSeR7S7ZnDcju+5ta9kOEQ0fgxanmTq2aXgiHBngZKulFz6WjB5cD4AvdhIbuRDp16lRdw6nF9jV8+HB5xIfuyguAD99//73s1zfffLOuSU+97edtVHMcVQyHBZKCUTRwBfOG66PBzBoOdXgKBy0VoMIhKn04pNeVLCuYpyTw8pBXEtz0e4suM/q6InL54Xr9nqKfCS2z+KHGhMoU1LIfIhw6Ai9ONXdq1fRCODTAy1BJL7qzHt1Bkp7fBYAPdPv+vffeW/9VSi22r19++UU+DD+bu/GC9gh9Hy+zzDLymbCu1Nt+3kY1x1HhcCgJBaSglISiAkHwk49GCuYNhSLCGg4JHaqKpRCU1LxBkHMJh3z5fJ7gPeh2dFsGEzBVofZ1GGbzxYRDIvp5RUJf8H5agpBomSctteyHCIeOwItTzZ1aNb0QDg3wMlTaa7XVVhOHHnqo/guA9LzyyityINLaGj8QqdX2dfTRR4tevXrJO04C4AL1owUWWEA+7xLfXwZqK5NwmJLY4AcY0bDaFmrZDxEOHYEXp5o7tWp6IRwa4GWotNdNN90kOnXqJL777jtdA0A66JmC66yzjv7LTq22r4kTJ8rg+uCDD+oaANJx5ZVXymdx0h1v8f1loLYQDuuPhgmHtJCkQjdKoGKbllSmTZtmrS9XJk+ebK1PKj5twYuXanvRTm3EiBHW6bZSba/BgweLnj17WqfFlUZeX7b6pAIvXtK2RfOttNJKYr/99tO7aADK8+KLL8rw9eyzz1r7VVBquX0deOCBonfv3uL333/X7xqAZOhaQ7pedciQIbIP4fvLFGrLZxxF//qAcJiOcuGQwnl0vcSVWvZDHDl0BF6cav7iVU0vHDk0wMtQDa/XXntNDvQffvhhXQPyAV2nYgZPNEjwvNTEiV9//VUsueSSqU5HruX2RQOWRRZZRJxwwgm6BoBktt12W7HiiisWj3bh+8tAbVXzyCGoPrXshwiHjsCLU82dWjW9EA4N8DJUy2vQoEHyQeZ19/BwkEz4xgsZnVpUjkMOOUSGrunTp+uaeGq9fd1zzz3ys6HrIwFI4rbbbpN95fXXX9c1+P4KQ21Vaxzl8xqCbkblik9bs2fPlsWVevei1/i8Lot+iHDoCLw49b5T8/VCODTAy1Atr5kzZ4oePXqIfv36ebUH2gejRo2SA+h7771X1yRTD9sXHQ2ivk2nMAFgY/z48fJ5nXQjozD4/jJQW/U+jsL6MuTNC+HQEXhxfL0QDhV5WV+uwIvj0xadXko3Yth33311TdZEb+tdKJbbeRerglt4Nz9R+rpQkfNbHnwc3GI8WF7JLcdl4Q8KlvNEj8CVPMuqQPT24rajdjHz2N+HLkV5fbvzoFjfU7Jv1owdO1bMM888Tg+Yr4ft64cffpD71lVXXdXrF/jCu9H9L9IHiGAdR9ZPdB3zdRL0c76O42/nHzePZXuKziffX+F9t/K+aH8/+k+iuO2FKqOPB9BFtRXpr6zQ56beK3//+jXss4tZTmTbYe9Vvy/b55cGekbnEkssIfr06VPSh/D9ZaC2EA4V8OJk4YVw6Ai8OL5eCIeKvKwvV+DF8fUaOXKkfPbhueeeq2uyQg9kw6M6PQA1gzo+SLVfQ6fmKRkIloQlM8gMlqEGljxQRS/ml/NYg1goGJQMRrVb+HV6nvD7t904wH4zAf3eQy+W84XfewrfLPn4449Ft27dxPbbby/++usvXVueetm+JkyYIG800r9/f4/TwXSwaWoq6XfF8BbtQ+H+EtPP2boqmSdY50nLsQWuSF0Q8iz91/QT9X5K+iq9rlip5klsK0C3yfth6by2z862PUS3ST5P6bbiAl0/u+aaa8rvXvoRIQq+vwzUFsKhAl6cLLwQDh2BF8fXC+FQkZf15Qq8OG3xGj58uBy03XXXXbo2A+SAMTRAlagBY3QAKv+U8/Mgp7ANUgtEwpIaQBYG88HyCqjBKF9mtC46EJXIZQfvPfqeNZEBsWw/Oo+F2MFwiXvEO4VvVtCRlaWXXlqsu+66zv2qnrYveh4jPbaFrpl0Iwg2LaKZrSuqbxLNzeE+Y++ffJ3aAw2bxxqwosspDVwldXo50fdjC1jFtnR/bwr3c+v7sbVfIM28ch7dRvF9qHmsnwv73M1nLD1KtpV00I8EW2+9tfzRgH48sIHvLwO1hXCogBcnCy+EQ0fgxfH1QjhU5GV9uQIvTlu96AHQdArhLbfcIv/OFD14lEcNqJhRaXGQKgeEkUGiwj74ZmFJDzyDU+mCxfCBNaEHo6GBZ+lAtAALhzHts4Ft3DyllIZD+wCZkPMG9Sl8s+Dzzz8Xyy+/vNhggw3kbf5dqbft64UXXpDXltGdVtMfQQyCTWvh39APHPS5F9Zda7jPsL4SIlhHaqZiP2eE50lcTvDa4H2FZ4rUsXZDhPsPez9h13A/tPVLW/sF2HsM4PMGfTna/0u3UV0X2SbVfIXX2j7HFPz222/yWtTFF19cXm8YB76/DNQWwqECXpwsvBAOHYEXx9cL4VCRl/XlCrw4WXjRzUfmnntu8a9//UvXtAU9uNQDOjXIjA441SCVB8YoMcErNNgthqjIIDU8oDSFD5zt84TnixnYM5e4eUqJDYes7VAJFprCt63QXRvpqMoWW2whr9VrlO1r3Lhx8m6rdNSInulVHhNsqH8EfS/4v+wzLBxG1lmxlOlD4SDHwlsIto7N+zJE6sLLDBMXDov14f4cwuLH2y9g7Yeh9xV6T6X9n1Dvh7UTN09JfXnoSPhaa60lll12WTFp0iRdawffXwZqC+FQAS9OFl4Ih47Ai+PrhXCoyMv6cgVenKy8Hn/8cbnt7LHHHuKPP/7QtR7IQWV0kBodgJpBqgpplsGxnqdkQBoMauXAU78uMki1LjPyvthAP4DNE9O+dlH1cfOUEhsOo4PyKCl828KDDz4oT8Hcddddi32wkbYvOo2QwsHqq6+e4i6mkWAj1xfVqT5RGg6j/TyK6eeM8GvjliPXcVAf7nMBkTo2v4FvC8H7Ua9V70v9n/dDNZ+ps7VfwNoPzbzU54PX2MKhrAttp7ZtUs2jSkn7CXz44YfyFOlVVllFfPvtt7o2Hnx/GagthEMFvDhZeCEcOgIvjq8XwqEiL+vLFXhxsvQKTsVbe+21xcSJE3WtG9bQpQeRtnAY/L904BdTr8NSc2jgGR2k8gFxQLjNmPfJBuq2QXMB1lbMPBZiB8fR96CXWXRL4esD9bVTTz1V3pToiCOOEHPmzCnWN9r2ReFghRVWEIsuuqh45plndK2N8GdP/y/0hZbC56/XEeszcetAry9VHQ1ZijTL4X040ickkTq9HD6P7mPFhettoNk4BcsJv0fVdjho2tovYH3vet5CG+FriUv6uuX9lmyT8rNUyy99T/HQcwznn39+seGGG4pp06bp2mTw/WWgthAOFfDiZOGFcOgIvDi+XgiHirysL1fgxcna65NPPpHhkELirbfeqmsdCA3oFHrwWagzAz8e1NRrogO/pHBIywuFv8gglQ+sNZE2SgaiRPR96LbMe9AuMQPYAFv79iBYGh5KXpvC1xUK/sE6prvWhmnU7YvuULn77rvLz/Kkk06KOTrOQ5BaF5F+FVqHanq430b7rF6/4XVlWXeyb4SXUxKcbOEsUqdfU9p/S98f76+6TxcrSvukvf0C1n6ol1eoD88f7f/KmW8j/PONvi/9d8k2ZKBnuO65556y7RNOOMHpDAh8fxmoLYRDBbw4WXghHDoCL46vF8KhIi/ryxV4cSrhRe/j5JNPlkeVdt55ZzF9+nQ9JR3BoDooNEjkg0E1AC0ZoLKBX3SgrSkJbAUig9Ro+0EJD2KjA31JyWC6QHHQrQsfCSui80QGvYQ9HBJmwG59bQpfF/7973+L+eabL/bocKNvX8FRJTrNlH4I4URCkPyczfqw9RlbXzcEfbiFrWN7F+LL4fNE3pfE9l4Lryu0ZfpipC8HfY056G1PN6jeR/R1tvYLWPuhXl6kH7P+r18XXV7481X7i5ht0fIB0h1ql1tuuRRHh+3g+8tAbSEcKuDFycKrQ9B4XKFGqNimJRW6sNxWX65MmTLFWp9UfNqCFy/V9qKdGv0abptuK9X2OuOMM2Q4tE2LK428vmz1SQVevFTS68knn5QPje7Ro4e4/fbb9a4d5JHPPvtMPvuPAj8Ff7qLo22dt4fti57lSA9C79y5s7wJ0++//64/payJ+YGjEliDWuNDP1wdc8wx8o7L//jHP+QPHtF1n6bg+8sUaqvex1FYX6bkzQvh0DItqcCLF18vhENV8rK+bPVJBV68VNqLHmtw+OGHy1Cx0UYbiQ8++EAPy0AeoId/n3LKKXK/uOqqq4pXX33Vup6D0l62LwqEl156qTyK2LNnT3H//ffrTyxLEA4rBV0je9NNN8m70S622GLyiDitV+znefH1QjhUBV68ZOGF00odgRfH14t2ajitFP0wCrw4rl7vvPOOWHPNNeUjLwYNGiR++uknPQXUK/SIEjrq261bN3HllVemet5fe9u+qP3gOjU6skpHFbMD4bASvP322/K06GBfFL7pDPbzHF+veh9HYX0Z8uaFcOgIvDi+XgiHirysL1fgxammFx2Fuv7668WCCy4oA8fQoUNT3w0QVA96PMU666wjA8/ee+/ttK7b6/b1/PPPi969e8vTEw888EDxxRdf6CmgXqCH2Dc1NcmzGOi0YPrBKgr28xxfL4RDBbw4WXghHDoCL46vF8KhIi/ryxV4cWrh9d1334njjz9ezDvvvGKBBRYQZ555Jo4k1gH33nuvfOg3hUI6BfjZZ5/VU9LT3revK664Qp6mSJ/hoYceKr766is9BdQKCoU77bSTXCf0zMqkuyg3Sj+MUm0vhEMFvDhZeCEcOgIvjq8XwqEiL+vLFXhxaulFIZEeC9ClSxcZEs866yyExCpD115RKFxjjTXk4Llfv37yKBiB7cvg4kXLv+yyy2RIpO8TOpJYemdTUGnGjRsntt9+e9mv6aguhcJyp0Y3Uj8MU20vhEMFvDhZeCEcOgIvjq8XwqEiL+vLFXhx6sGLQiLdAZNCIj0mgY64vPHGG3oqqAQUwi+55BI5aKbB8+abby5efPFFPVWB7cvg40Xt0JFEekQCnco4cOBA66mMIFtuueUWsemmm8p+TZ89XTublkbsh0S1vRAOFfDiZOGFcOgIvDi+XgiHirysL1fgxaknLwosdAfI5ZdfXg7s6Lq3G2+8UT6cGmTDCy+8IPbaay/RqVMnGcYPOeQQ8e677+qpHGxfhrZ40dGqlpYWse6668p+TTdmoiOLPu8d2KEjs8cdd5zo3r27/Iy32WYbee2sK43cD33w9UI4VMCLk4UXwqEj8OL4eiEcKvKyvlyBF6cevehUx6effloeaaE7CtLRxN13313cd999FXymXOPy5ptvitNPP10eRaGB80orrSSPaJW7GRC2L0NWXo8//ri8uyldb0s3r6HTHum03j/++EPPAdIyefJk+WPS+uuvL/s1PZbitNNOE59//jn6YYRqeyEcKuDFyWJ9IRw6Ai+OrxfCoSIv68sVeHHq3evrr7+WQaZv375yANi1a1d55IuOCmBAHQ+dvkjPRA2OwtIjKU444QTx2muv6TnKg35oyNqLnvdFz9bbbLPN5CmndAffo446ymn9tEfoeWfDhw+XN0wK9gd0R91HHnmErR/0Q061vRAOFfDiZOGFcOgIvDi+XgiHirysL1fgxcmT15dffimGDRtWPD2PTovcaqutxEUXXSQH1X/++aecrz1Cj06ga632339/sfTSSxePpBx55JHyVNJvv/1Wz5ke9ENDJb3oB5Dzzz9frLjiinK9LbnkkvLoIj2kvb3fyIZONacfguiU0dVXX11+Pp07dxY777yzuOeee2LPJEA/5FTbC+FQAS9OFl4Ih47Ai+PrhXCoyMv6cgVenLx6ffbZZ+Lcc88Vq6yyihwwUqHTT7fddlt5o5VXX31V/Pbbb3ruxoNCwx133CEOOugguT8IPgM6krLffvuJp556Ss+pQD801LMX9dsjjjiieO0clYUXXliGRXpG6H//+189Z2PyzTffiEcffVSceOKJxR+BgjJgwADZ59Ncg4x+yKm2F8KhAl6cLLwQDh2BF8fXC+FQkZf15Qq8OI3gRUfNaJuloBRcV0eFrldceeWV5Wmozc3N8jpGn/ddS+jICN25dcSIEeLoo4+Wp9dSAAwc559/fnnzDTp6+sorr8QePUU/NOTBi0IS3SiIAiEdDQ5OD6ay+OKLiz322ENcd9114oMPPtCvyBd//fWX+PDDD8Vdd90lr4f9xz/+UXw+JJWOHTvKU0cHDx4sHnroIeebUqEfcqrthXCogBcnCy+EQ0fgxfH1QjhU5GV9uQIvTiN60XVJdHdIem7idtttJ0/TCwadVLp16yYHnvvuu688+njnnXfKAPbLL7/oJVSfjz/+WDz22GPi8ssvF4MGDZKD5fARQSp0Gi3dfINOFb366qtFa2urfnV50A8NefX6/vvvZVCiMPX3v/9d3tSG+gUdMafnVNINnOiGLBQoR48eLSZMmKBfWTvoVPAxY8aIG264Qb63HXbYQf5gE+7XVOiUUdoe6ag/zR/+3NAPDXnxQjhUwIuThVcHWkhSoQu6qdimJRW6Q5utvlyhO2PZ6pOKT1vw4qXaXrRTo1/pbdNtpdpe9Etqz549rdPiSiOvL1t9UoEXL+3FiwIj3SmSjiAefPDB8mHvSy21VMkglQbcVE+DbbpZSFNTk3zcwymnnCIuvPBCOfC+++67xTPPPCNef/118emnn8pBO0HhkgbDdMSHrvOja6VGjhwp76g4ZMgQGfro9MCtt95a9OnTR/Tq1YudPhgUOjJI03fddVf5Y9Dtt98ul2nzSlvQD01pJK+PPvpI9utrrrlG3nCIwhf1XQqMQX+io+l0bS79qEDXNtJjNCis0fP/6A7ATzzxhOyv1J/Hjx8vJk6cKK9RnT59uuzXdHo2Hcl8//33xcsvvyxP+6TXXnnlleLss8+W1wNSsKPTPulHF7p2kq53DffpoKywwgryBxs6bZTeAx3ttnmFC/qhKXnxqvdxFNaXKXnzwpFDR+DF8fXCkUNFXtaXK/DitHcvOm2TBsQU5CjE0R0jKTxSKKRwSANtCot01M422HUpiy66qBw40wCaro2kuywee+yx4pxzzpH7HBooT506Vb8zO+iHHHgZom1RwPvPf/4j+9bQoUNlf6M+TT880LW6yy67rAxxbe3b9AMH/dBBy6UfPuiUV9qO6Mg9BUA6Ejhp0iT5nrC+DI3shSOHCnhxsvBCOHQEXhxfL4RDRV7Wlyvw4sCLU86Lrn2iI4V0h0k6akg3CBk7dqx46aWX5M1Exo0bJ4/m0GCYlkW/lNrA+uLAi1MLLzpC+MMPP4ivvvpKnuZMj0OhI4VU3n77bXl9Iz1DkI7C05FEn/awvgyN7IVwqIAXJwsvhENH4MXx9UI4VORlfbkCLw68OPAywMsALw68OPAyUFsIhwp4cbJYXwiHjsCL4+uFcKjIy/pyBV4ceHHgZYCXAV4ceHHgZaC2EA4V8OJk4YVw6Ai8OL5eCIeKvKwvV+DFgRcHXgZ4GeDFgRcHXgZqC+FQAS9OFl4Ih47Ai+PrhXCoyMv6cgVeHHhx4GWAlwFeHHhx4GWgthAOFfDiZOGFcOgIvDi+XgiHirysL1fgxYEXB14GeBngxYEXB14GagvhUAEvThZeCIeOwIvj64VwqMjL+nIFXhx4ceBlgJcBXhx4ceBloLYQDhXw4mThhXDoCLw4vl4Ih4q8rC9X4MWBFwdeBngZ4MWBFwdeBmoL4VABL04WXgiHjsCL4+uFcKjIy/pyBV4ceHHgZYCXAV4ceHHgZaC2EA4V8OJk4YVw6Ai8OL5eCIeKvKwvV+DFgRcHXgZ4GeDFgRcHXgZqC+FQAS9OFl4Ih47Ai+PrhXCoyMv6cgVeHHhx4GWAlwFeHHhx4GWgthAOFfDiZOGFcOgIvDi+XgiHirysL1fgxYEXB14GeBngxYEXB14GagvhUAEvThZeHeiPpDJlyhRZbNOSyuTJk6315crEiROt9UnFpy148VJtL9qpXXXVVdbptlJtr1NPPVUss8wy1mlxpZHXl60+qcCLF3jxAi9T4GUKvHiBFy/wMoXaqvdxFNaXKXnzwpFDR+DF8fXCkUNFXtaXK/DiwIsDLwO8DPDiwIsDLwO1hSOHCnhxsvBCOHQEXhxfL4RDRV7Wlyvw4sCLAy8DvAzw4sCLAy8DtYVwqIAXJwsvhENH4MXx9UI4VORlfbkCLw68OPAywMsALw68OPAyUFsIhwp4cbLwQjh0BF4cXy+EQ0Ve1pcr8OLAiwMvA7wM8OLAiwMvA7WFcKiAFycLL4RDR+DF8fVCOFTkZX25Ai8OvDjwMsDLAC8OvDjwMlBbCIcKeHGy8EI4dAReHF8vhENFXtaXK/DiwIsDLwO8DPDiwIsDLwO1hXCogBcnCy+EQ0fgxfH1QjhU5GV9uQIvDrw48DLAywAvDrw48DJQWwiHCnhxsvBCOHQEXhxfL4RDBfohB14ceBngZYAXB14ceBka2QvhUAEvThZeCIeOwIvj64VwqMjL+nIFXhx4ceBlgJcBXhx4ceBloLYQDhXw4mThhXDoCLw4vl4Ih4q8rC9X4MWBFwdeBngZ4MWBFwdeBmoL4VABL04WXgiHjsCL4+uFcKjIy/pyBV4ceHHgZYCXAV4ceHHgZaC2EA4V8OJk4YVw6Ai8OL5eCIeKvKwvV+DFgRcHXgZ4GeDFgRcHXgZqC+FQAS9OFl4daCFJZcaMGbLYpiWVadOmWevLlcmTJ1vrk4pPW3n2+uWXX8T7778vXnjhBfHRRx+JmTNnFqflxYt2aiNGjLBOt5Vqew0ePFj07NnTOi2u+LSVl/Vlq08q8OIFXrzAyxR4mQIvXuDFC7xMobbqfRyF9WVK3rxw5NCRWnlNnTpVnH766WLdddcVc801l+jQoUOxdOzYUfTt21ece+654rvvvsuFF44cKvLWD9MCLw68OPAywMsALw68OPAyUFs4cqiAFycLL4RDR2rhdd5554l5551XBsHevXuLvffeW1x22WXiySefFM3NzWLXXXcVyy67rJy+0EILyV+SXKm2F8KhIk/90AV4ceDFgZcBXgZ4ceDFgZeB2kI4VMCLk4UXwqEj1fSi00X3228/GfpWXHFF8e677+opdsaMGVMMif/61790bTqqvb4QDhV56IfwMsCLAy8OvAzwMsCLAy+OrxfCoQJenCy8EA4dqabXkUceKU8ZHTJkiJg1a5auTebXX38VgwYNkqeeXnTRRbq2PNVeXwiHijz0Q3gZ4MWBFwdeBngZ4MWBF8fXC+FQAS9OFl4Ih45Uy+uOO+6QRwCvu+46XeMGhRsKiM8//7yuSaba6wvhUFHv/ZCAlwFeHHhx4GWAlwFeHHhxfL0QDhXw4mThhXDoSDW8fv75Z9GtWzex+eab6xp36EjjqquuKpZbbrlUntVeXwiHinruhwHwMsCLAy8OvAzwMsCLAy+OrxfCoQJenCy8EA4dqYYXBZP55ptPfP3117rGD7pGcZ555hE33nijromn2usL4VBRz/0wAF4GeHHgxYGXAV4GeHHgxfH1QjhUwIuThRfCoSPV8OrVq5c4+OCD9V9tY4stthBbbrml/iueaq8vhENFPffDAHgZ4MWBFwdeBngZ4MWBF8fXC+FQAS9OFl4Ih45U2mvSpEnyWsNrr71W17SN0047Tcw999zijz/+0DV2qr2+EA4V9doPw8DLAC8OvDjwMsDLAC8OvDi+XgiHCnhxsvBCOHSk0l4vvfSSDIevvvqqrmkbd999t1zeF198oWvsVHt9IRwq6rUfhoGXAV4ceHHgZYCXAV4ceHF8vRAOFfDiZOGFcOhIpb0eeOABGeZ824ny0UcfyeW98cYbusZOtdcXwqGiXvthGHgZ4MWBFwdeBngZ4MWBF8fXC+FQAS9OFl4Ih45U2uupp56SYW7ChAm6pm0ERyLHjx+va+xUe30hHCrqtR+GgZcBXhx4ceBlgJcBXhx4cXy9EA4V8OJk4dUhaDyuUCNUbNOSyowZM6z15cqUKVOs9UnFp6169aIjfBTm7r//fr2K2saVV14pl1eu/WqvL9qpjRw50jrdVqq9vs444wwZDm3T4koj9cNwgZcp8OIFXrzAyxR4mQIvXuDFi69XvY+jsL5MyZsXwqFlWlKptNevv/4qOnXqJM466ywd79rGAQccIJZaailrW+FS7fWFcKhKvfbDcIGXKfDiBV68wMsUeJkCL17gxYuvF8KhKvDiJQsvnFbqSDW8tt9+e7H00kuLmTNn6ho/aEV37dpVHHHEEbomnmqvr3o/HQKnlRrgZYAXB14ceBngZYAXB14cX696H0dhfRny5oVw6Eg1vF544QV5KmiaUJcEPd9wrrnmEh9++KGuiafa6wvhUFHP/TAAXgZ4ceDFgZcBXgZ4ceDF8fVCOFTAi5OFF8KhI9Xy2nHHHWVAfP7553WNG7TDoNcfffTRuiaZaq8vhENFvfdDAl4GeHHgxYGXAV4GeHHgxfH1QjhUwIuThRfCoSPV8po+fbpYffXVRY8ePeSRRBcefPBB0a1bN3nksNzD7wOqvb4QDhX13g8JeBngxYEXB14GeBngxYEXx9cL4VABL04WXgiHjlTTix5cv9Zaa8kjgMcee2zZtn/66Sexzz77yPn79+/vdM1itdcXwqEiD/0QXgZ4ceDFgZcBXgZ4ceDF8fVCOFTAi5OFF8KhI9X2+uWXX8QOO+wgA1+XLl3ENttsIy666CLx8ssvyzsS0WmnZ599tth8883lXU5pPrpDqatbtb0QDhV56YeuwIsDLw68DPAywIsDLw68DNQWwqECXpwsvBAOHamVF91U5vjjjxfdu3eXATBallhiCRlo6OH5efBCOFTkrR+mBV4ceHHgZYCXAV4ceHHgZaC2EA4V8OJk4YVw6EitvWbNmiWee+45+Rw+CoWXXnqpGDt2rJg9e7acnhcvhENFXtaXK/DiYH1x4GWAlwFeHHhx4GWgthAOFfDiZOGFcOhIvXi9+uqrMhxOmjRJ1yjy4oVwqMjL+nIFXhx4ceBlgJcBXhx4ceBloLYQDhXw4mThhXDoSL14IRymw9cL4dAALwO8OPDiwMsALwO8OPDi+HohHCrgxcnCC+HQkXrxQjhMh68XwqEBXgZ4ceDFgZcBXgZ4ceDF8fVCOFTAi5OFF8KhI/XihXCYDl8vhEMDvAzw4sCLAy8DvAzw4sCL4+uFcKiAFycLrw60kKRCj0ugYpuWVKZNm2atL1cmT55srU8qPm3l3YsejE/h8OOPP2b1efGindqIESOs022l2l6DBw8WPXv2tE6LKz5t5WV92eqTCrx4gRcv8DIFXqbAixd48QIvU6iteh9HYX2ZkjcvHDl0pC1effr0kYGuXsuOO+6o3216fNcXjhwqatEPXYGXAV4ceHHgZYCXAV4ceHF8vXDkUAEvThZeCIeOtMXr7bffFi+++GLqMnr0aGs9leuuu04GupaWFlY/ZswYWcJ1aQq19f777+t3mx7f9YVwqKhFP3QFXgZ4ceDFgZcBXgZ4ceDF8fVCOFTAi5OFF8KhI/XihWsO0+HrhXBogJcBXhx4ceBlgJcBXhx4cXy9EA4V8OJk4YVw6Ei9eCEcpsPXC+HQAC8D1hcHXhx4GeBlgBcHXhxfL4RDBbw4WXghHDpSL14Ih+nw9UI4NMDLAC8OvDjwMsDLAC8OvDi+XgiHCnhxsvBCOHSkXrwQDtPh64VwaICXAV4ceHHgZYCXAV4ceHF8vRAOFfDiZOGFcOhIvXghHKbD1wvh0AAvA7w48OLAywAvA7w48OL4eiEcKuDFycIL4dCRevFCOEyHrxfCoQFeBnhx4MWBlwFeBnhx4MXx9UI4VMCLk4UXwqEj9eKFcJgOXy+EQwO8DPDiwIsDLwO8DPDiwIvj64VwqIAXJwsvhENH6sUL4TAdvl4IhwZ4GeDFgRcHXgZ4GeDFgRfH1wvhUAEvThZeCIeO1IsXwmE6fL0QDg3wMsCLAy8OvAzwMsCLAy+OrxfCoQJenCy8EA4dqRcvhMN0+HohHBrgZYAXB14ceBngZYAXB14cXy+EQwW8OFl4IRw6Ui9eCIfp8PVCODTAywAvDtYXB14GeBngxYEXx9cL4VABL04WXh3oj6QyZcoUWWzTksrkyZOt9eXKxIkTrfVJxaetvHs99thjMhwefvjh4tRTTy2WU045RZZwXZpy8skni0MOOUT07dvXqWy00UbW+qSy8cYbi7nmmkv07t3bOj3LQm3Z6suVZZZZRiy44ILWzz6utMd+GFfgxQu8eIGXKfAyBV68wIsXeJlCbVE4vOqqq6zTbQXrixd48RL2wpFDR+rFKzhySOGsf//+xdKvXz9ZwnVpymabbSbWWWcd0b17d6fSrVs3a325Qu+9S5cu1mn1UDp37izmm28+/Wmnoz32wzjgxYEXB14GeBngxYEXB14GagtHDhXw4mThhXDoSL144bTSdPh64bRSA7wM8OLAiwMvA7wM8OLAi+PrhXCogBcnCy+EQ0fqxQvhMB2+XgiHBngZ4MWBFwdeBngZ4MWBF8fXC+FQAS9OFl4Ih47UixfCYTp8vRAODfAywIsDLw68DPAywIsDL46vF8KhAl6cLLwQDh2pFy+Ew3T4eiEcGuBlgBcHXhx4GeBlgBcHXhxfL4RDBbw4WXghHDpSL14Ih+nw9UI4NMDLAC8OvDjwMsDLAC8OvDi+XgiHCnhxsvBCOHSkXrwQDtPh64VwaICXAV4ceHHgZYCXAV4ceHF8vRAOFfDiZOGFcOhIvXghHKbD1wvh0AAvA7w48OLAy4B+aIAXB14cXy+EQwW8OFl4IRw6Ui9eCIfp8PVCODTAywAvDrw48DLAywAvDrw4vl4Ihwp4cbLwQjh0pF68EA7T4euFcGiAlwFeHHhx4GWAlwFeHHhxfL0QDhXw4mThhXDoSL14IRymw9cL4dAALwO8OPDiwMsALwO8OPDi+HohHCrgxcnCC+HQkXrxQjhMh68XwqEBXgZ4ceDFgZcBXgZ4ceDF8fVCOFTAi5OFVwdaSFKZMWOGLLZpSWXatGnW+nJl8uTJ1vqk4tNW3r1eeOEFGQ4//vhjVp8XL9qpjRgxwjrdVqrtNXjwYNGzZ0/rtLji01Ze1petPqnAixd48QIvU+BlCrx4gRcv8DKF2qr3cRTWlyl588KRQ0fqxaulpUWGw7Fjx+oaRV68cORQkZf15Qq8OPDiwMsALwO8OPDiwMtAbeHIoQJenCy8EA4dqQcvSveLLLKI6Natm+jVq5f45Zdf9JT8eCEcKvKyvlyBFwdeHHgZ4GWAFwdeHHgZqC2EQwW8OFl4IRw6Ug9em266qVhttdXEN998I5ZeemnR1NSkp+THC+FQkZf15Qq8OPDiwMsALwO8OPDiwMtAbSEcKuDFycIL4dCRWnudccYZYr755hMTJkyQf7/yyiuiY8eO4pprrpF/58UL4VCRl/XlCrw48OLAywAvA9YXB14ceBmoLYRDBbw4WXghHDpSS6+nn35azDXXXOLee+/VNYrm5ma5k3jvvfdy44VwqMjL+nIFXhx4ceBlgJcBXhx4ceBloLYQDhXw4mThhXDoSK286BRSus7w0EMP1TWGOXPmiAEDBojllltO/PTTT7nwQjhU5K0fpgVeHHhx4GWAlwFeHHhx4GWgthAOFfDiZOGFcOhILbz+/PPP4nWGv//+u6yL8uOPP8rrD3faaadceCEcKvLUD12AFwdeHHgZ4GWAFwdeHHgZqC2EQwW8OFl4IRw6Uguv6HWGcQTXH1555ZW6Jj3V9kI4VOSpH7oALw68OPAywMsALw68OPAyUFsIhwp4cbLwQjh0pNpecdcZxnHhhRfKHQZdf+hCtb0QDhV56YeuwIsDLw68DPAywIsDLw68DNQWwqECXpwsvBAOHamm18SJE2OvM4xj1qxZYtttt5XXH86YMUPXlqfa6wvhUJGHfggvA7w48OLAywAvA7w48OL4eiEcKuDFycIL4dCRannRdYZ9+/ZNvM7QBjlRW9HnH5aj2usL4VBR7/2QgJcBXhx4ceBlgJcBXhx4cXy9EA4V8OJk4YVw6Ei1vNJeZxgl8Io+/7Ac1V5fCIeKanth+zLAywAvDrw48DLAywAvTrW9EA4V8OJk4dUhaDyuUCNUbNOSCp3SaKsvV6ZMmWKtTyo+bdWz1+OPPy6vMxw1apR1elIJewXXH7799tsl80VLtdcXva+RI0dap9tKtdcXhXMKh7ZpcaXR+mFQ4GUKvHiBFy/wMgVepmB98QIvXny96n0chfVlSt68EA4t05JKpb0mTZokrzM8+OCD2+wVvv4weP5hXKn2+kI4VKXaXu19+6Ly3XffiTfffFM8+uij4uGHHxb33HOPuO2228SIESPkkfZLL71UXHDBBeLss88Ww4cPl/30vvvuE2PGjBGvvfaa+Oijj8TUqVOty44rWF+8wMsUaot+sf3444/F66+/LkaPHi1vQHbzzTfLvnjOOeewfvjss8+iH0YKvHiBlymN7IVwqAq8eMnCC6eVOlJJr+jzDLPwCp5/WO76w2qvL9qp4bRSbF9RsvKi5bS2toorrrhCnHDCCfL5n2uttZbo1q2b6NChQ7HQqdsLL7ywWHLJJUWvXr3EKqusItZZZx2x0UYbiX79+snX9OzZs+R1QVlggQXEMsssI9ZYYw2x+eabi6OPPlr8+9//Fu+8845+JwqsL05783rjjTfE9ddfLw477DDZr2gfT/vlrl27WvvVggsuKH/Uo76IflgeeHHgZWhkr3ofR2F9GfLmhXDoSCW9otcZZuWV5vrDaq8vhENFtb0acfuio+J0pGXYsGFin332kQPv8MC5d+/eYocddhCnnnqqHDC//PLL8jU+/Pzzz+KLL74Q48aNEy+88IJ46KGHxK233ipD6FlnnSW233570aNHj2Lb6623nhyoX3vttfJopSvteX8YJQ9edObHq6++Ktc3nf2x5pprFvsChbtddtlFHpG+6qqr5GUDjzzyiHjppZfko4e+/PJLMX36dL2kZNrSD9966y29lPSgHxrgZYAXp9peCIcKeHGy8EI4dKRSXrbnGWbp1dzcLHckcc8/rPb6QjhUVNurUbYvGoRffPHFok+fPnLwSz9+0ED8oIMOEldffbUMgL/++queu/rQqatPPPGEOO+88+RRSzpKFAzUKSDceeedqd5fe90f2qhXLwp0FMwokHXq1Enux+kHiT322ENccskl8jRQCnO1IOiH559/vjx7ZNlll5V9sEuXLmK33XaTp1SjH7oBLwO8ONX2QjhUwIuThRfCoSOV8Prmm2+szzPM0mvOnDliwIABsc8/rPb6QjhUVNsrz9sXPffzoosuEuuuu64c4C6//PJiyJAh8vTRPECneNP1ZORAA3M6hZWC4t133y1mzpyp5+K0x/1hHPXkRWGPrvWhferqq68uj1hfdtll8ijeL7/8oueqT4J+SD+uUD9cddVV0Q8dgJcBXpxqeyEcKuDFycIL4dCRrL2i1xmGydor6frDaq8vhENFtb3ytn3R9kFHN/7+97/LQEgD2aFDh4rx48frOfLN559/XuxrtF3SEcXwAL297Q+TqLUXnYpMNy36xz/+IVZaaSV5N2gfj3qETmml01Hpx0P0w2TgZYAXp9peCIcKeHGy8EI4dCRrr6TnGVbCK+76w2qvL4RDRbW98rJ9/fDDD/JUOPoxg344oTs2vv/++3JaIzJ79mx5/dmOO+4o9wcDBw6Ud1D97LPP9BzpQT80ZNEPb7zxRrHlllvK9bL33nuL5557Tp6J0YhQP3zsscfkqdDoh3bgZYAXp9peCIcKeHGy8EI4dCRLL9t1hmEq5WW7/rDa6wvhUFFtr3rfvugU0QMOOEB07txZDlB9bp6Rd2gd0amndNosXRt2+umnO91AB/3Q4OtFpzAffvjh8oc0ugMo3UBm2rRpemr7gNYRnXpK10+iHxrgZYAXp9peCIcKeHGy8EI4dCQrr7jrDMNUyst2/WG11xfCoaLaXvW4fdF8d9xxh3x8BN3Qg+7yaDuS3t6g7ZRO76PtlB5VQHe5THM9G/qhwdWLbuBy/PHHyx8n6FpCOorW3kE/5MDLgPXFqbYXwqECXpwsvBAOHcnCK+k6wzCV9Ipef1jt9YVwqKi2V71tXw888EBx0EmPmvB5f43OrFmzxJVXXil/TFpooYXk0ZzffvtNTy0F/dCQ1ouOiNGRMTqVku7oSXcf/euvv/RUQFA/pCOoiy66KPqhI/DiwIvj64VwqIAXJwsvhENHsvBKus4wTKW9wtcfVnt9IRwqqu1VL9vXxx9/LPr37y9vMkOnkdKPFSAZOspPd2elfcfiiy8uA+Mff/yhpxrQDw3lvOgIGB0Jox8nKPBceumliT/YAfRDeBngxam2F8KhAl6cLLwQDh1pq1e56wzDVMMruP7w9ddf1zVu+K4vhENFtb1qvX3RwPLEE0+UP0rQtUz0wHDgxtSpU8WRRx4pP0M6+n/TTTexzxr90BDnRUe8aN+38MILi3nnnVceNaz3R1DUG9QPjzrqKPTDFMCLAy+OrxfCoQJenCy8EA4daYtXmusMw1TDK7j+kIKQ7fmH5fBdXwiHimp71XL7evzxx+UpaXS0kB4DANrGp59+KnbffXf5efbq1UueCUCgHxri+iEd8aLPjW46Q/tl4A/6YXngxYEXx9cL4VABL04WXh1oIUmFAgMV27SkQnd2s9WXK5MnT7bWJxWftqrtNWnSJNG3b1/5nDZ6gLJtnmiplhd95ksttZS8jb5telLxXV+0U6Nnhtmm20q119fgwYNFz549rdPiSh76Ya22LzrCQIPHfv36yW0BZAcd9V977bXl50vPgEQ/NCWpH3700Uf6EwRZQHcWRj+0F3jxAi9efL3qfRyF9WVK3rxw5NARX693331XbLLJJuKTTz7RNeWpphc9u2vzzTeXHdGFRv3FC0cODW3xov5Od32cZ555xLnnnoubfFQIuubrhBNOkANz2s98++23eko60A9BFqAf2oEXB14cXy8cOVTAi5OFF8KhI/Di+HohHCrysr5cIacnnniiePdHen4hqDz0mdONVRZbbDGnZ0SiH4IsQT/kwIsDL46vF8KhAl6cLLwQDh2BF8fXC+FQkZf15Qo9CmDuueeWzy6k06hB9fjqq6/ESiutJG+08sgjj+jaZNAPQdagHxrgxYEXx9cL4VABL04WXgiHjsCL4+uFcKjIy/pyga7XpNPKdt11V/lsNFB9pk+fLrbYYgt5Z+QbbrhB18aDfggqAfqhAl4ceHF8vRAOFfDiZOGFcOgIvDi+XgiHirysrzTQAJwG4jQgp+eggdoye/ZsceCBB8r1cdJJJ8k7E8eBfggqRXvth2HgxYEXx9cL4VABL04WXgiHjsCL4+uFcKjIy/oqB93ggx6JQuu1paVF14J64JJLLpFHbujZiHG05374v5Ym0aGpRYTfUWtzh0KYaRItxcr/iZYmqtOFzd8qmmV9c+F/EVqb1fzNfIpaflDC7RBqefwluv3Ml2OZ538toomW59RWedpTP4wCLw68OL5eCIcKeHGy8EI4dAReHF8vhENFXtZXOQ477DA58Hv00Ud1DagnrrjiCjmopwe/22jP/bAkHAbhqBiAooHKHrCampoiQSwUqEITVF0oSOoAaWZJFw6zWU7pPH7vOR3tpR9GgRcHXhxfL4RDBbw4WXghHDoCL46vF8KhIi/rKwka6NGA7/LLL9c1oB4JHjFwzz336BpDe+6HPByq8ERBL+nomAxLxdfogNVSCJUsLVF9c+F9hYKWDp7RUGVdHpsnEuqyWk50Hhn6mgr+rm2lp9H7oQ14ceDF8fVCOFTAi5OFF8KhI/Di+HohHCrysr7iGDt2rBzoHXvssboG1Ct0rdcuu+wiOnXqJMaPH69rFe25H7JwKMNRs2jVIckeDlWgKg1Y9G/k6FphHhmi9LyyrfA8AUG76o+yoS6r5fB5dDBuafVoKz2N3A/jgBcHXhxfL4RDBbw4WXghHDri6zVz5kz9v/T4vD+6+J+KKz5tET5e9BkiHCqq7ZXl9kWPBujRo4d8TEDSTSZA/fD777+LlVdeWZbwHTzbcz804TAIR4X3FhMOZdCjYMhCkQlYND3IXcH/S8NhsIxo4aHOOk/GywnmkX8Ww54tiEZeXyzu4ZBoxH6YBLw48OL4eiEcKuDFycIL4dARXy9goM8Q4VBRba8st68ddthBLLDAAuLrr7/WNSAP0NGajh07ytP7AtpzPyyGQwpH7Aii42mlQcBS/ynUqeBUGg7LBarQ8oqkPHLIKL8cM4+qV9U+bbnTaP0wCXhx4MXx9UI4VMCLk4UXwqEjvl7AQJ8hwqGi2l5ZbV8jRowoDBg7iAceeEDXgDwxbNgwuf6eeeYZ+Xd77ocqHDaL5mI4KlAmHKrpQWAKhzAVCltomXph4XAYt9xiQJV/pQh1WS0nmIeu1yy+zqctPxqlH5YDXhx4cXy9EA4V8OJk4YVw6IhsK+YCfYP6wpWnJ4ES6DNEOFRU2yuL7YsebN21a1d5xAbkE3rkwxprrCF69uwp/vzzz3bdD9WRsUIYCgcdFohK9+exRw7pL5oWClMsHBZQ00NH4kq+T9KEuqyWo+YhfzOfT1t+NEI/TAO8OPDi+HohHCrgxclifXWgP5LKlClTZLFNSyqTJ0+21pcrEydOtNYnFZ+22uJFX2LyyzLmV1M12Mj+NJx6ZurUqdbPy1boM6Sd2lVXXWWdbivV7oennnqqWGaZZazT4kq1+6GtvlzJYvui08DocQETJkzQax/kkdGjR8tQcOmll7brfhiEQxZ0okfLdBiSIVKW8P49EsLotaHvhmg4JFTYMoVPThcOibYvR4dD9l3m05Y/ee+HaQq8eIEXL75e9T6OwvoyJW9eOHLoiGnL9sVLqC9WHDWMhz5DHDlUVNurrdvXjz/+KI/WHHHEEbpGEZxi1hochZHF9gOJHowGJfIDS/EoTqjIbUwO1vnyrIP66PKLr4nWhwuFgGB75vPZtuPoINk2sI6+Tr4mPF8qHz1ID7cli+1z1ZSEGFXi9kdbbLGFWHLJJcWvv/7aEP0Q5JO89sO05G0/nxZ4carthSOHCnhxsvBCOHQk3FYwIGbvODLoKxkUEtFfpQlZFx7QRaYT0YGfXq5tQF0samStB75yKRr7L8hsnqC9uHlKpqeDPkOEQ0W1vdq6fV100UVivvnmE99//72uURT7YKivqxAVDjI6eIX6S3QetRxL+CkJUybERftjOAhZl6fn49023fJKt+eok284LG3f+t5LXhfB5mbb32jef/99Mffcc4tRo0Y1RD8E+SSv/TAtedvPpwVenGp7IRwq4MXJwgvh0BHelhrQmYFg6cAwVTi0DN5KBtZyHj7osy3b2p5+n2zAqN9rUjhU7yF+HprOl5kO+gwRDhXV9mrr9tWrVy9x5JFH6r8MKshEAwjfPuzBL808BSKhSPXzJhaE5GtL+r6FpHAY6dD8/ZRuIwTf5vzCoc2n5DVE5HUl2NysvobttttObLXVVg3RD0F+yWM/TEve9vNpgRen2l4Ihwp4cbLwQjh0JNoWGzzGhTzrAM/MJ+cpHXGWn8eCtT3roLZMONTtN8XNIwecCYPUBOgzRDhUVNurLdvXa6+9VugTHeQDx6PEBTPTb6P9zRDu26nCoex7hW2jNRx64pdfQkI4LHl50FbJx6bmlz+eUCm6e4RDq0+ByD5AEn6dDYub+kxtDoq77rpLXrv3xRdf6Jr01Fs/BPklb/3QhTzt512AF6faXgiHCnhxsvBCOHSktC01SGxqabUOTq2DXdugTyMHkTTYlCWYJ2ij/GeTTTgMBrhRJzOP9OILTA19hgiHimp7tWX7oiM1dJMe24PGU4dD2a8tRfelNOGwuEwWhOyhzEobwiHbPrUv3+bcw6HdJ8D2uZUPh3z+5M+F1m+XLl3E+eefr2vSU2/9EOSXvPVDF/K0n3cBXpxqeyEcKuDFycIL4dARW1tqQEuDMEvgsw34ouFQ/h0M5HQ9mydm4GqhZBAqUa83bYRKcaGhNooDVz0wjczDX+cOfYYIh4pqe7Vl+1p00UXFmWeeKf8fxR4Ow/0n2pfslA2HcnvS09m2lW75EmsIi9nGwtuh9XU0S6Fd33AY66NQn0d0X2H5fAIS3JIC4v777y823nhj/Vd66q0fgnyTp37oQp728y7Ai1NtL4RDBbw4WXghHDpib6vMwFQO6ArTWQkGfDGvDQ9KUwzuApLCIW8i2m4wj6pX1XHzFKbEDeJTQJ8hwqGi2l6+2xfdGpn6bdypfCUhRsL7nb1vqj4W9O1y4bC5sIzidhAJQvblW0gIUNHtUL6fYJnWYKZfV2yX+wTEhcMkH+t7sr6HEFY33X60MsSdd94pt0nXvlhv/bAisH0xqCR56Yeu5GU/7wq8ONX2QjhUwIuThRfCoSP2tmgQ5zB4YIMNPoAOkIO54jzRkBaPfYBsayMm+DUX3ltkoFsyj/xT/T9NYI1CnyHCoaLaXsH29fjjj6e+tofauv/+++WgPK5dFep43yvti6rPhPtxNAwmh8PCa8PTokFI/836pG1gnxQOLctLWr7aTsPvyyUcJvuozyLy3uXrLJ9PQIJb0rb68ccfy/fz5ptv6pp0tLUfPvnkk5n2w4pg60OgItSqH7rg01at9vMuwMuQFy+EQwW8OFmsL4RDR2xtyYEfH40lwwYbOoBZB46hQZ6uCzdjG0i3NRzyNpLCIf3pN2iizxDhUFFtr2D7+vDDD0XHjh3FoYceWnZwTm2deuqpYuWVV9Y1pQR9sUX+q/pRaT8kTD9ThfffcuGQBZwyIU8VS/9MDFAt7PV8ngKhbVOWwgw8xOltJjxPuAQLLOujPaJvQL6ufDiMbTcBejTENddco/9KR1v74SeffCL3BYccckgm/bAieO7ngB+16Icu+LRVq/28C/Ay5MUL4VABL04WXgiHjpi2woPQhMGajZLBhmXArAd5tsEjm09PCmhzOGSvLRMOg+nWEBAPfYYIh4pqe4W3r6YmFeTmmWceGRK/+uorPYVDbe20005i33331TWlxIa63KD6dtLRtbbi/CNSldlss83E8ccfr/9KRxb98IADDpD9kJ5zRyHRrx9a9nHB/jJ2/0VE93GE3hfKUthPt+j9tfxX11v2eWobCF4X7UtB2+FlR+cJfliwBNHAJdpu9MeKyGvle7K+JjSf5QeHwMV8dCnmiSH5cymlVv0wLT5t1XI/nxZ4GfLihXCogBcnCy+EQ0d8vYCBPkOEQ0W1vcLb17hx44oDNgqIdCTxiCOOKBmcU1t///vfxVlnnaVrSlEDQITDJOo9HNLNQJJ+ALCRRT+cOHGifIQB9UP6l/ri4Ycf7tgPS4Of/Lypf5uEUzJP4Z1EwqH9BzG5nGLIKg2Uqq1Q4Cr5cc8sxzQVnUctl360ifbDYsAKB72SHxmD92G2Q/k653Boea9p5rFQ/nMppVb9MC0+bdVyP58WeBny4oVwqIAXJwsvhENHfL2AgT5DhENFtb2i29eAAQPkYFwOPAuFjt5EQyK1teqqq4pLLrlE/m0D4bA89R4Ojz76aNkfXMiqH9LRQ+p3QT+0hcTkfqjWHw8zCc9pLRIJepbAFQQz9rrwfDrw8OVGtwkdpiIz8Xl0OKRTm1mgo/om0dzMg561P0Xev084lMulgFryeZaZJ0qqz6WUWvbDNPi0Vev9fBrgZciLF8KhAl6cLLw60EKSyowZM2SxTUsq06ZNs9aXK3Q3Olt9UvFpqy1eeL5WKbbPKq7QZ0g7tREjRlin20q1++HgwYNFz549rdPiSrX7oa2+XIluXy+88EJhoFYY6EVKEBJPO+008fnnn4vFF19cXH/99Xptg0aE+vz666/P+ke5klU//OCDD4pHD8MlCIl0uun48eMT+mE4+AUhK/45rQYeDq3BJRqmiHDwsU0nWDiytV1AzhO8Nvy+Q8ujeQoBr9UW9DTqCF1QzGudw2HwflrD771AmnmipPpcSqllP0xT8rifT1PgZUpevOp9HIX1ZUrevHDk0BFfL2CgzzAPRw7Dg9T2XDp16iQfTn3rrbfqTwc0Iueee67o1q0bW/cvvviinqrYYYcd2PRRo0bpKQo64hyePnz4cD1Fcc4557DpdIOZgH/84x9sWrTQjxXx/TAUvopBhge/YB7bslk4LBemJLb2IrAQ5BIO/yffR3AUO/h/yXuT7QYOehmR9+oaDotHI6MBLs08UUKvYZR5HfXDlVZaSf+VDow3OPAyNLIXjhwq4MXJwgvh0BFfr19++UX/Lz0+72/27NmyuOLTFuHjRZ9hve/U3nrrLTkwdimjR4+21ieVMWPGyGKbllR82qLy4IMPsr/vuOOOwgAuGGCa0rlzZ/lvv3795HxLLLGEuPLKK/WnAxoROkpMp22G+wf9AhmGjt6Fp3/55Zd6iuLTTz9l0+mXyDCTJk2S9UE/pOsNiQkTJliPHAb9cNtttxUvvfRSQj8MwpcKWCp42MMhDyV8HhmmooEmGqaIcMCxTSdY8IsJh+y1JhzK18pQR3VqOg96UTdN5L04hUP5frV7NMClmSdKtJ0A+TpLvYb6YZ8+ffRf6cB4gwMvQyN7IRwq4MXJwgvh0BF4cXy9sFNT1Nprv/32Y9cczjvvvPLf7bffXgZkgtpaZZVVxNlnny3/Bo0J3bF266231n+lI6t+SDchCV9z6N4PdfhK/ZzWgMg8lkCjAmPkdeH5YkISD5qq7WiYswU+dcRQh0K6Q6qezue1h011eql5/y7hsLnw2uBoZYlTmnmipPpcSqllP0yDT1v4/uLAi+PrhXGUAl6cLLwQDh2BF8fXCzs1RS296ChPcLQmOEKzyy67yLuYhqG2+vbt63x7eZAvdt55Z7Hnnnvqv9KRRT8MHzUM+iG9F7d+qMNXoZgw4hEOg78jIYyWW1IXWlA0lAXBqBikbO+vJDyFwyFNphBlptuCJAt+MsDxNtKHQ3pdKLBZw2GZeSyU/1xKqVU/TItPW/j+4sCL4+uFcZQCXpws1hfCoSPw4vh6YaemqKUX3S6eBnw0MKfBGN0UxAa1RUdw6OgOaFzoFOJBgwbpv9KRRT888MADi/1wjz32kKeu2kjuhzp8sSDkEw4JXUfLo2Bje86hJREFYS4ofBbVtrwTaew8PByqIGXCWGnQM4FTlcK8kfAVfU+86GXr4McCW0w4TJwnhuTPpZRa9cO0+LSF7y8OvDi+XhhHKeDFycIL4dAReHF8vbBTU9TK65NPPpGnk9JAm/6fBLV14oknig033FDXgEZkkUUWEZdffrn+Kx3toh9Gj7R5EYTDNi0kO6RT6ChgHVGLfuiCT1v4/uLAi+PrhXGUAl6cLLwQDh2BF8fXCzs1Ra28Hn/8cfmIijRQWy0tLXKd+bYL6hvqC3RU57XXXtM16ciiHwY3pSlHzfohwmHVqFU/dMGnLXx/ceDF8fXCOEoBL04WXgiHjsCL4+uFnZqiFl70nM7ffvtN15SH2qK7UtKgbezYsbq2ukRPTQsPsktPt6OxL80XGdDr0+CKy9GvSTz1zpxXx0/hs17HFZ7foN5L6el0Qb0qbQ0fbeP222+XN4T5888/dU06qr191aQfIhxWjbz0Q1fw/cWBF8fXC+MoBbw4WXghHDoCL46vF3Zqilp5HXDAAWLYsGGpQmLQ1qKLLiofUF1tVIgKD2T5QLskHBZDYGhAr8NbOKDJ5dpCZTT4BcEw9OKS96QDRFNTdMBtQmVJ2yWvL389VqXYa6+9vE7XrMX2Vat+CCpPnvqhC/j+4sCL4+uFcZQCXpwsvBAOHYEXx9cLOzVFrbxef/11GUbo+p7LLrssMSQGbdEDzpdddll55LF6qHCVFJp4ONQ39Wiio4EmHMowliJ52cKhOrJoD33FI0H6SExLYV7WDNU3N3OHmBt52INp5Zk5c6Z8dAQ9fNyVWmxftemHoNLkrR+6gO8vDrw4vl4YRyngxcnCC+HQEXhxfL2wU1PU0muzzTaTAZEKHY259NJLrSExaOvVV1+V89LDyKuGPiKXdDYeC4c6pLWy10WCXAKlAc12N0sFC5zhdkPz0jzNrTzg2sNmgWAZ+s9qQafy0Z1Cow+0T0Mttq+a9ENQcfLWD13A9xcHXhxfL4yjFPDiZOGFcOgIvDi+XtipKWrp9eKLL8pBNpXgQfgUEqNHEsNtLb/88vLITdVIEZhMOAw9CsASDi35roTYcKg/p5ISDYeyreD9Bv+3hUPLsmSpfjjcdtttxZZbbpmr7avq/RBUnDz2w7TUcj+fFngZ8uKFcZQCXpwsvDoEjccVaoSKbVpSmTFjhrW+XJkyZYq1Pqn4tAUvXqrtRTu1kSNHWqfbCtYXL1l50fU9c889dzGcBA8jp9NN6ZpEmifc1vnnny+6du0qfvzxR70LqTAs5NkphkOalx1BrOyRQ0YxHKplyNmpTv3HEg6rHwJt0OMjaP3fcsstudq+qt4PQUXJaz9MW2q9n09T4GVKXrwwjlIFXrxk4YVwaJmWVCrhdffdd4uhQ4eWlDPPPNNan1SGDBkii21aUvFpi8opp5xirU8q1BYNBHbaaSfrdFvJi5etPqnU2mufffaRYTCurLnmmuKmm26S1wNRX506daro3r27OOGEE/SwrsKkeNC2CofNorkQ4orzsXCYMuAVKA2H9rpgmdFrDmULMhS2yOmqSR4O+XszmCOg1WPnnXcWSy+9tPjll19ytZ+vej8EFSWv/TBtqafxRlyBlyl58UI4VAVevGThhdNKHamE12677SZP5+vfvz8rdE1YtK5c6devnyy2aUnFpy0qffv2tdYnFWqLjlCtvPLK1um2khcvW31SqbXXeuutVwyC0dKpUydZaAAePs304osvlvVff/21rqksMpyxI2087BVP0wwHq2gAk3/zkGk7gmcPgirchcNlyWvD4TCYv7icSDgsUOKUIgRnzVtvvSU/kzvvvDOX+/lq98OqU4M+UQvy3g/TAC8OvDi+XjitVAEvThZeCIeOVMJr1113lQExSt694qC2sFNT1Npr4MCBxesNg9K5c2dZjjvuOPHTTz+VtPX777+LJZZYQhxyyCG6pvIUA2BQSoJaZBBtOzpXfMRFUHgwJOzhkNCBL+61LByq5ZjTWEvDIaECoinVDgFbbbWVWGONNeT/87h91aIfVpV2Eg7z3g/TAC8OvDi+XhhHKeDFycIL4dCRSnghHJYnL16u1NLr3XffZeGEAiHdSp5OPaXT9gJsbT3yyCPy6G+tHooP2kZLS4t82Pg777wj/87r9tXQ/bAdhMNG6YflgBcHXhxfL4yjFPDiZOGFcOhIJbwQDsuTFy9Xaum14447ylBIp+ZRKDzjjDPEDz/8oKca4to6/PDDRY8ePayvAfXLpEmTxHzzzSfOO+88XZPv7euwww6rUD+Mv1Nt6VFhfmTZdvOj6NHv0nl4e82F4CTDof5X1fMj1nKZkSPd6oh0+Kh59Kh3qESSJz+aXXpdbJY0Wj9MAl4ceHF8vTCOUsCLk4UXwqEjlfBCOCxPXrxcqZVXcNRwgQUWkDem+fnnn2W9jbi2fv31V9G7d2+x9dZb6xpQ78yaNUuss846ok+fPuKvv/7Stfnevqgf9uzZswL9MHLTIUm0zgSvYs7SR/zCrysJbHHzFINeOCjy05XDYbAkHBZPnS4NhzaPcDhU7zEUPi3X6WZFI/bDJODFgRfH1wvjKAW8OFl4IRw6UgkvhMPy5MXLlVp5HXrooaK5uVne1aocSW29/fbb8s6zdNQR1Ddz5syR+xl6BMTnn3+uaxV5377owfjZ90OHcBhJUOoooQ5aMaeHlp1HhzPWfmQ+Hg71e2ui5TqGw5j3GA2jWdDI/TAOeHHgxfH1wjhKAS9OFl4Ih45UwgvhsDx58XKlVl50tCUt5dqiW2nTIPa6667TNaAeGTRokLz50DPPPKNrDI2wfWXfD9OHw2ioUmFLBzTbzZGIcCBLuIESXzYPeiwcBjdFKllW+XDIgmqYYJn6zyxo9H5oA14ceHF8vTCOUsCLk4UXwqEjlfBCOCxPXrxcaRQveig53Rjkvvvu0zWgnqCjxBSc6JmqNhqlH9L1a9n1wyzDoSVglYTDyDzWcMjbN+EwVO8dDgt/W0t24bC99MMo8OLAi+PrhXGUAl6cLLwQDh2phBfCYXny4uVKI3kde+yx8s6Do0aN0jWgHrjwwgvlgPzSSy/VNaWgH9poQzgMB7SSsKYpCZCReVyOHNLr2RFEn3CY7RHCKO2tH4aBFwdeHF8vjKMU8OJk4YVw6EglvBAOy5MXL1cayYuuJaJnI5YbAILqQOvj6KOPlkfShg8frmvtoB/aSB8OrdccBmHNGvL0PEEgs80jQ16k/ch8qp1m0Vx4T8XXeoTDuADLPDxpr/0wDLw48OL4emEcpYAXJwsvhENHKuGFcFievHi50ohel112mRwI0gCdBoag+lCfohuT0LVdaU6xbMR+SEGkbf3QIRyGg50l6KW+W2nx6J0Ob3LZkbpQWFMBk9d5hcMCJXcrjQm1LqAfKuDFgRfH1wvjKAW8OFl4IRw6UgkvhMPy5MXLlUb1uvPOO+WpfXvvvbeXH/CH7kDbv39/+Qy5MWPG6Npk0A9tpA+HTS0txZDIgmKIYpBLmEcFND3d9pzDyFG8YJlsWaFwaNqMnjJaGg6JcPsly3UE/dAALw68OL5eGEcp4MXJwqsDLSSp0A6eim1aUpk2bZq1vlyZPHmytT6p+LRVT170y+rOO+9cUp93r7hCbdFObcSIEdbptpIXL1t9Umlkr4cffljern7DDTcU33zzjd7lgEry0UcfiRVXXFEsvPDCorW11bpubAX90BfbUbmMyODIXa1AP+QFXrzAixdfL4yjVIEXL1l44cihI5XwwpHD8uTFy5VG9/rkk0/E6quvLgeJaY8eAD/uuusu0aVLF7HJJpuIr7/+WtemA/3QF4TDKOiHpcCLAy+OrxfGUQp4cbLwQjh0pBJeCIflyYuXK+3FK7hByJlnnqlrQFbQMyuPOuoo+fnSoxzQDw2V74cIhwHoh/HAiwMvjq8XxlEKeHGy8EI4dKQSXgiH5cmLlyvtyeuxxx4Tiy22mFhhhRXE008/rWtBW6AHvy+xxBJiueWWE6+99pqsQz802Lwef/xx2Q/pM7vnnnt0LWgL6IfJwIsDL46vF8ZRCnhxsvBCOHSkEl4Ih+XJi5cr7c2Lzp8/6aST5E1CdtxxR/H555/rKcCFJ554Qqy22mpiwQUXlI9rmDVrlp6CfhgmzouOcv3rX/+Spz+uv/764vXXX9dTgAvoh+mAFwdeHF8vjKMU8OJk4YVw6EglvBAOy5MXL1faq9fHH38s72TYqVMneYrfb7/9lrgegeL999+XnxttPyeeeKL4+eef9RQD+qGhnNeUKVPEQQcdJOaee265H544caKeApJAP3QDXhx4cXy9MI5SwIuThRfCoSOV8EI4LE9evFxp714PPfSQPBWNTvOj65Rsg0ygQswBBxwgn9tH+4pJkybpKaWgHxrSeoXDzgknnIB+GAP6IbzCwItTbS+MoxTw4mThhXDoSCW8EA7LkxcvV+AlxB9//CHOP/98+Tw0Kscee6z48ssv9dT2DZ2GS0dWXU5/RD80uHo99dRT8q6m3bt3LzlNsj2DfmiAlwFenGp7YRylgBcnCy+EQ0cq4YVwWJ68eLkCL8MPP/wgzjnnHLH00kuLeeaZR+y5555i3Lhxemr74a+//hLPPvusPN1xgQUWEMsvv7y477779NTyoB8afLxmz54trrvuOtGjRw+x6KKLyh8rgpustCfQD+3AywAvTrW9MI5SwIuThRfCoSOV8EI4LE9evFyBF4fa+vPPP+Ug9O9//7u8Lf7mm28uj+g0Om+//bY4+eSTxZJLLimPoO67777izjvvlGHFBfRDQ1u86Ij2/fffL5qamuS1sRSOhg4dKiZMmKDnakzQD5OBlwFenGp7YRylgBcnCy+EQ0cq4YVwWJ68eLkCL060rfHjx4tDDz1UzDvvvGKZZZaRz1GjR2L4+tcbdPrsBRdcIFZZZRV5tHSbbbYRt912m7ybJoF+aKilF12DeOONN4pNN91U/mCx3nrriSuvvFJ89913eo58g36YHngZ4MWpthfGUQp4cbLwQjh0pBJeCIflyYuXK/DixLU1c+ZMeRSHboax8MILy7C43XbbydP/vv76az1XPvjpp5/E9ddfLzbZZBMZNPr06SMuv/xya9BAPzTUi1cQpFZeeWUZpP7xj3/IIEV9NE+gH8IrDLwMefHCOEoBL04WXgiHjlTCC+GwPHnxcgVenDRt0bVQ//nPf8Rpp50mVlppJTmwpVPgtt12W1l3++23i3fffbfmNxOZM2eOfI7jww8/LO/Euvvuu8v3S49N+Nvf/iZv8PHpp5/que2gHxrq0eutt96Sj3KgB8DTszvpmX/77LOPaG5uFk8++aSYPHmynrN2oB/GAy8DvAx58cI4SgEvThZeCIeOVMIL4bA8efFyBV4cn7boyOHIkSPFKaecUjwKEpR11llH7LzzzvLB+1dddZV45JFHxHvvvSemTZumX50NdDdHCqx0JPPII48Uffv2FfPPP798DzQApwf+0812aICedPv/KOiHhnr2ogD22WefiZtvvlmcddZZYvvttxdLLbWUXP8LLbSQ6NevnzjuuOPkdLrTZ6We64l+6Aa8DPAy5MUL4ygFvDhZeHWgP5IKPdeIim1aUqFfTG315Qo9hNhWn1R82qonLxpI7LDDDiX1efeKK9QW7dRosG6bbit58bLVJxV48ZLV+nr66afFhRdeKI+UHHHEEWLAgAFijTXWkI8oCIIjFXq+4gorrCCvIdtyyy3lDzWHHHKIDJNnn322vDHH4YcfLvbee285sKab49Ct/OnarGWXXVYO/MPLoyNHe+yxhxyAP/DAA/LmJfR+0A95aS9eH3zwgbjnnnvEv/71L7HLLrsUj3RToVOjF1lkEdGzZ0/ZbzbccEOxxRZbiIEDB8qjj9Rv6QcP9MPyBV68wMuURvbCOEoVePGShReOHDpSCS8cOSxPXrxcgRenGl501JBOO33iiSfkwH3EiBFi2LBh8k6U9NiC/fffXw7QKSzSnSrpVv506iAFzeHDh8ujlHTkZezYsXI5dASm3JFIrC9Oe/ei6/3oVM933nlHjB49Wjz44IPilltukdf8UaA7/vjj5fW16IfpgBcHXoZG9sI4SgEvThZeCIeOVMIL4bA8efFyBV4ceHHgZYCXAV4ceHHgZWhkL4yjFPDiZOGFcOhIJbwQDsuTFy9X4MWBFwdeBngZ4MWBFwdehkb2wjhKAS9OFl4Ih45UwgvhsDx58XIFXhx4ceBlgJcBXhx4ceBlaGQvjKMU8OJk4YVw6EglvBAOy5MXL1fgxYEXB14GeBngxYEXB16GRvbCOEoBL04WXgiHjlTCC+GwPHnxcgVeHHhx4GWAlwFeHHhx4GVoZC+MoxTw4mThhXDoSCW8EA7LkxcvV+DFgRcHXgZ4GeDFgRcHXoZG9sI4SgEvThZeCIeOVMIL4bA8efFyBV4ceHHgZYCXAV4ceHHgZWhkL4yjFPDiZOGFcOhIJbwQDsuTFy9X4MWBFwdeBngZ4MWBFwdehkb2wjhKAS9OFl4Ih45UwgvhsDx58XIFXhx4ceBlgJcBXhx4ceBlaGQvjKMU8OJk4YVw6EglvBAOy5MXL1fgxYEXB14GeBngxYEXB16GRvbCOEoBL04WXgiHjlTCC+GwPHnxcgVeHHhx4GWAlwFeHHhx4GVoZC+MoxTw4mTh1YEWklRmzJghi21aUpk2bZq1vlyZPHmytT6p+LRVT15NTU1i5513LqnPu1dcobZopzZixAjrdFvJi5etPqnAixd48QIvU+BlCrx4gRcv8DKlkb0wjlIFXrxk4YUjh45UwgtHDsuTFy9X4MWBFwdeBngZ4MWBFwdehkb2wjhKAS9OFl4Ih45UwgvhsDx58XIFXhx4ceBlgJcBXhx4ceBlaGQvjKMU8OJk4YVw6EglvBAOy5MXL1fgxYEXB14GeBngxYEXB16GRvbCOEoBL04WXgiHjlTCC+GwPHnxcgVeHHhx4GWAlwFeHHhx4GVoZC+MoxTw4mThhXDoSCW8EA7LkxcvV+DFgRcHXgb0QwO8OPDiwMvQyF4YRyngxcnCC+HQkUp4IRyWJy9ersCLAy8OvAzwMsCLAy8OvAyN7IVxlAJenCy8EA4dqYQXwmF58uLlCrw48OLAywAvA7w48OLAy9DIXhhHKeDFycIL4dCRSnghHJYnL16uwIsDLw68DPAywIsDLw68DI3shXGUAl6cLLwQDh2phBfCYXny4uUKvDjw4sDLAC8DvDjw4sDL0MheGEcp4MXJwgvh0JFKeCEclicvXq7AiwMvDrwM8DLAiwMvDrwMjeyFcZQCXpwsvBAOHamEF8JhefLi5Qq8OPDiwMsALwO8OPDiwMvQyF4YRyngxcnCC+HQkUp4IRyWJy9ersCLAy8OvAzwMsCLAy8OvAyN7IVxlAJenCy8OgSNxxVqhIptWlKZMWOGtb5cmTJlirU+qfi0VU9eu+yyiwyI0fq8e8UVaot2aiNHjrROt5W8eNnqkwq8eIEXL/AyBV6mwIsXePECL1Ma2QvjKFXgxUsWXgiHlmlJpRJeCIflS168bPVJBV68wIsXeJmC9WUKvHiBFy/wMqWRvTCOUgVevGThhdNKHamEF04rLU9evFyBFwdeHHgZ4GWAFwdeHHgZGtkL4ygFvDhZeCEcOlIJL4TD8uTFyxV4ceDFgZcBXgZ4ceDFgZehkb0wjlLAi5OFF8KhI5XwQjgsT168XIEXB14ceBngZYAXB14ceBka2QvjKAW8OFl4IRw6UgkvhMPy5MXLFXhx4MWBlwFeBnhx4MWBl6GRvTCOUsCLk4UXwqEjlfBCOCxPXrxcgRcHXhx4GeBlgBcHXhx4GRrZC+MoBbw4WXghHDpSCS+Ew/LkxcsVeHHgxYGXAV4GeHHgxYGXoZG9MI5SwIuThRfCoSOV8EI4LE9evFyBFwdeHHgZ4GWAFwdeHHgZGtkL4ygFvDhZeCEcOlIJL4TD8uTFyxV4ceDFgZcBXgZ4ceDFgZehkb0wjlLAi5OFF8KhI5XwQjgsT168XIEXB14ceBngZcD64sCLAy9DI3thHKWAFycLL4RDRyrhhXBYnrx4uQIvDrw48DLAywAvDrw48DI0shfGUQp4cbLwQjh0pBJeCIflyYuXK/DiwIsDLwO8DPDiwIsDL0Mje2EcpYAXJwsvhENHKuGFcFievHi5Ai8OvDjwMsDLAC8OvDjwMjSyF8ZRCnhxsvDqQAtJKjNmzJDFNi2pTJs2zVpfrkyePNlan1R82qonr6amJrHzzjuX1OfdK65QW7RTGzFihHW6reTFy1afVODFC7x4gZcp8DIFXrzAixd4mdLIXhhHqQIvXrLwwpFDRyrhhSOH5cmLlyvw4sCLAy8DvAzw4sCLAy9DI3thHKWAFycLL4RDRyrhhXBYnrx4uQIvDrw48DLAywAvDrw48DI0shfGUQp4cbLwQjh0pBJeCIflyYuXK/DiwIsDLwO8DPDiwIsDL0Mje2EcpYAXJwsvhENHKuGFcFievHi5Ai8OvDjwMsDLAC8OvDjwMjSyF8ZRCnhxsvBCOHSkEl4Ih+XJi5cr8OLAiwMvA7wM8OJgfXHgZWhkL4yjFPDiZOGFcOhIJbwQDsuTFy9XXLy+//57MWHCBPHWW2+Jp59+WjzwwANi5MiRYvjw4eJf//qXOP7448UBBxwgBg4cKLbYYgux4447in322UccccQR4pRTThHnnHOOOPvss8VNN90k7rrrLvHYY4+J//znP2VdG7kfugIvDrw48DLAywAvDrw4vl4YRyngxcnCC+HQkUp4IRyWJy9erti8pk+fLsaMGSMuueQSsccee4jevXuLDh06lC3du3cXf/vb38Taa68t+vXrJ9Zdd12xwgoriB49eoiuXbtaXxMUem3fvn3FIYccIoYNGyYef/xxGUSJRu6HrsCLAy8OvAzwMsCLAy+OrxfGUQp4cbLwQjh0pBJeCIflyYuXK1OnThVPPPGEaG5uFrvssotYbrnlWGjr2bOnfAYmHfG76qqrxKhRo8Qjjzwixo4dK9577z3x5ZdfyjCZFnpmzpQpU8Qnn3wi3n77bfH888/LI4knnXSS2GabbWR74faprLnmmmLQoEHi4YcfFjNnztRLSqZR1xe8OPDiwMsALwO8OPDi+HphHKWAFycLL4RDRyrhhXBYnrx4peGbb76Rp4JuuOGGLITRUb4999xTHjGkI4c///yzfkV1+e2338Q777wj7rzzTjFkyBDZN+noY/A+6ZRVeo/jx4/XryilkdZXGHhx4MWBlwFeBnhx4MXx9UI4VMCLk4UXwqEjlfBCOCxPXrzi+OGHH8QNN9wgT/fs2LGjWG211cT+++8vrrjiCvHSSy/JI3r1zrvvvisuuOACsfHGG4u5555bBsWll15aHHbYYfL6x/ARzLyvrzjgxYEXB14GeBngxYEXx9cL4VABL04WXgiHjlTCC+GwPHnxCkOBjxy33XZbGQhXWWUVecTwp59+0nPkFwq7t912mzzSSdcrUlDs1KmTOOigg+QRxTyurzTAiwMvDrwM8DLAiwMvjq8XwqECXpwsvBAOHamEF8JhefLiReWee+6R1wl27txZdOnSRRx44IHi5Zdf1nM1HrReyJlONw2fekrXKM6ZM0fPlY5qry9X8tIPXYEXB14ceBngZYAXp9peCIcKeHGy8EI4dKQSXgiH5al3rz///FNcdtllYuGFF5bhiO4Uev311+fidNEs+fzzz8Vpp50mFl10Ufk5rLTSSvJ02rTrodr90JW8bF+uwIsDLw68DPAywItTbS+EQwW8OFl4daA/kgrd2ZCKbVpSmTx5srW+XJk4caK1Pqn4tFVPXttvv73YYYcdSurz7hVXqC3aqdHdN23TbaWevW6++WbRq1cvGYbWW289eTMZIERLS4vo37+//FwWWmgh8eijj1o/v3Cpdj+01SeVvGxftvqkAi9e4MULvEyBlylYX7xU26uRxlFBaeT1ZatPKrX0wpFDRyrhhSOH5alHL3oUBN1ghsLPOuusI58NCEr57LPPxMknnyw/p5122knugOKodj90JS/blyvw4sCLAy8DvAzw4lTbC0cOFfDiZOGFcOhIJbwQDstTT170S86+++4r5pprLrHqqquK+++/3/nauvbIyJEj5XMU6eY8xx13nPjxxx/1FEO1+6Eredm+XIEXB14ceBngZYAXp9peCIcKeHGy8EI4dKQSXgiH5akHL7p+8J///KeYd955Re/evcXtt98u/vrrLz0VpGHWrFniuuuuk89NpLuc0nWaVBdQ7X7oSl62L1fgxYEXB14GeBngxam2F8KhAl6cLLwQDh2phBfCYXlq7UWnjC622GJiqaWWktcYgrZB64WCIV2LSNdrvvLKK8V6H9rjfiMOeBngxYEXB14GeBny4oVwqIAXJwsvhENHKuGFcFieWnode+yx8nq5oUOH6hqQFTNnzhRHH320/HzPO++8qvdDV/KyfbkCLw68OP9/e+cBLTdxf38ncCDUAKG3AIEQeq8BUxMcQvyAQAiEDqYETP9RQy+PFiB0A+Fgih/N9E5CTElMDQEcqnEAYyd0MPCHHCDz3zsa7egrjbSafdpdafd+zpljv1mtRlczmp2radRloS4LdUnarYvmMIC6JEXoojn0pBW6aA4b0wldL7/8slpuueXUAgss0NX7FJYB7ImIYabrrruumjp1qonNTy/WG2lQl4W6JNQloS4LdVmqoovmMIC6JEXoojn0pBW6aA4b025dY8aMUTPPPLPeYuTDDz80saSVvPXWW2rttdfWw3efeuopE5uPXqw30qAuC3VJqEtCXRbqslRFF81hAHVJitBFc+hJK3TRHDamnbpGjx6tvv3tb3MYaQf4+uuv1e67764X/bnttttMbGN6sd5Ig7os1CWhLgl1WajLUhVdNIcB1CUpQhfNoSet0EVz2Jh26Tr88MPVdNNNpzdwJ53jtNNO0wb94osvNjHZ9GK9kQZ1WahLQl0S6rJQl6Uq+UVzGEBdkiJ00Rx60gpdNIeNabUubKeAfJh11lnVQw89ZGJJJ7nxxht1OTnooIMa7iPZi/VGGtRloS4JdUmoy0JdlqroojkMoC5JEbpoDj1phS6aw8a0Uhf2Khw2bJieY/j000+bWFIGsIUINs3fa6+9TIybXqw30qAuC3VJqEtCXRbqslRFF81hAHVJitBFc+hJK3TRHDamlbr22GMPNcMMM6iHH37YxJAycfPNN+shpv39/SYmSS/WG2lQl4W6JNQloS4LdVmqoovmMIC6JEXoGoKTZIVp06bp4PosK3z00UfO+EZh8uTJzvis0ExaZdLV19enttxyy0R81XWlBaSFSm3UqFHOz12hVbpOOukkPcfw7rvvNo8EKSNXXnml3gvx6quvduZjL9YbaYG6bKAuGahLBuqygbpsqIqusrSj0gLzy4aq6WLPoSeD1YXvYzXMDTfcUC288MJ6bzcMm8NDPsccc6hFF11UbbbZZuqWW25Rn3zyif6OD1XJrzK88UJP4be+9S11/fXXmxhSZs477zzdw/v888+bGEsvvMnLC3VZqEtCXRLqslCXpSq62HMYQF2SInTRHHrSrK7XX39dHX/88XpeG3pA1lxzTXXcccepyy67TPda3X777erSSy9VRx55pFp++eX1MTCL559/vtd1ViW/Ol2pYe/C+eefX99vUh122GEHtfTSS+sFhKLwR8hCXRbqklCXhLos1GWpii6awwDqkhShi+bQk2bSeuCBB9Rcc82lewkxjHHKlCnmk3QmTZqkjjjiCDXTTDPp3sS8C6VUJb86Xalhc/sVVlhBffXVVyaGVAH0pi+wwALqgAMOMDEB/BGyUJeFuiTUJaEuC3VZqqKL5jCAuiRF6KI59MQ3LSyigaGLhx12mPryyy9NbH7QGN5mm230cDoMR21EVfKrk5Uaxujjfr788ssmhlSJv/zlL7pn/f777zcx/BGKQl0W6pJQl4S6LNRlqYoumsMA6pIUoYvm0BOftE488URtDPNu5J0FzCUaxNdcc42JcVOV/OpUpfbxxx+rWWaZRffKkuqC4aXoUQ97fvkjZKEuC3VJqEtCXRbqslRFF81hAHVJitBFc+hJ3rSw/D7M3Omnn25iBs/++++vK4PHHnvMxCSpSn51qlI76qij1Oyzz97UYj+kPGDYNcoQ5ukC/ghZqMtCXRLqklCXhbosVdFFcxhAXZIidNEcepInrXfffVcvPLPtttuamGL4+uuv1SabbKIWWmgh9cUXX5hYSVXyqxOV2vvvv697Dc8880wTk86/B/rUkL4BFaob3z+kZvb71EBd7njVXzP/eAEQhP5aTJzsY8I0xuPfrPOM7498HobItejPHeeuHddfjwyuxf4N/q0G+mrnikb+e0D1iXRi33GkFX4nM63wvNFIp64hqs/e5EzwsgTzD7E4DX+ELNRloS4JdUmoy0JdlqroojkMoC5JEbpoDj3Jk9bee++t5plnHvX555+bmGDu4G677aaHmv7vf/8zseng2g455BC98Eb0Ot9++231ne98R5166qkmRtJKXS6qVKnhnmUZ6yjCHMLYRIyiy+gE5jFimnIcExq4pAmNmS+YqGj62lRlmUNrSjMNW9wcJkxeeI3ZRjT5vWRaga5IWuYYaQSD68lrDj/44ANt9jHUmj9CFuqyUJeEuiTUZaEuS1V00RwGUJekCF00h540Suu1117Tm6pj0ZMo2LYi7BmJLqSRBr4fHh8/19FHH60bxe+8846JsVQlvzpRqS2++OLqlFNOMX9lEzWHMDZRw6KNTtSsaaTZyXNMwnhpHKbJ0xwGafc1NGy1KxDmUBjikLjxa8Ycmuvta2BEw+vJaw4BXsRsuumm/BGKQF0W6pJQl4S6LNRlqYoumsMA6pIUoYvm0JNGaR188MF6+4n4Pmy/+MUvag3kWuO4FvLMQ9xnn33qx+P/Ud577z290M25555rYixVya92V2p/+9vf9L2cPHmy/rsR1ijB6EQNnGMopsEawjzHRNOQ6GMi39XHRc+VZQ616ap9Nr5xb16WlsC41j4zoX6ItzkMDd/4WFqutMNj85epcePG6WfhmWeeMTH5KVO9kQZ/XC3UZaEuCXVJqMvSzbpoDgOoS1KELppDTxqltcoqq6jtttvO/GXZeOON6w3tY4891sSmgyGo4fG77LKLibWsvfbaqq+vz/xlqUp+tbtS22uvvdRaa62l/58Ha47iPXvpBiZuDrOPMWnkMIf4O9GTmGIO699NMWxhmRIhPMh8J4zX0fHz+JrD+vEuM1hDf27TRPAxhxiiPd9886kjjzzSxOSnTPVGGvxxtVCXhbok1CWhLks366I5DKAuSRG6aA49aZTW9NNPrwYGBsxflt13373e+L3yyitNbDrYLD88HvMU46D3cYklljB/WaqSX+2u1Oaee251wgkn6P/nwRq3wOhYw5JicmpYU5fnmGgaUeLfDf4Wp0ozh9qkGeOWZdjqyLT0tcWvZ1DmMHrtrntiDGs9LjjGxxyCPfbYQ62++urmr/yUqd5Igz+uFuqyUJeEuiTUZelmXTSHAdQlKULXkDDxtIBEEFyfZYVp06Y54xuFKVOmOOOzQjNptULX1KlTtZmbMGGCub0WDHvDZ/GFatIIF56ZccYZ9T2Jc/fdd+uKIX4NVckvXPsVV1zh/NwVBqML2x7g3j/wwAPm7jUmatyCXkRriJwmyhid0NjkOSY4b7xnMmbitPGKHZNiDvtradaNlbc5dBuz4Boj3/Mxh/21Y+v3IGkOk/qbM4coRyhPeK5cZSAtlKXeyApVrg+zAnXZQF02UJcM1CUDddmAtNrZjnLFNwrMLxuqpovm0PFZVshK6+9//7tuSMOMuHj99dfVhx9+aP5qDMwmgou//OUvOi3MP4xeQ1XyazCV2m233aYmTpyYOMYVkBZ6cr/97W/r/+clag4TxsaYoajR0WYwappyHBMar6iJjJtKeR0Gpzl0p58wbPZyakhdqRpqoW7YPMwhvmfj4ubQHCMuqDlz+OKLL+q0MK/UVQbSQjNlvirPlys+K1CXDNQlA3XZQF02UJcM7dZFcxgE6pKhiPzisFJPstJ67rnndCM17DkcPXq0Gj58uP7/YPnyyy/V0KFD6yud4l+khb37olQlv1CpNTsc4qWXXlIzzDCDGjFihHrjjTd0XBpI69BDD1UrrriiiclHwpQZA+YyQDrEDZwm+5jAHPbXzKsxibFjArOWFYxBNNcmTFUT5rD+tzh/zMTVjagrhIbVfEfolWkF2qO9hqA5cwhmn312df7555u/8lGWeiMLDsuxUJeFuiTUJaEuSzfrGkw7ygfml6QXdNEcepKVFq4djWT0bA0bNkyvorj99tvnGkbaCGxbAaOJ8//yl7/Ub4swvzFOVfJrsJXaDjvsoO8Ftg3Zc889U00i0sJ922abbUxMeQjNofBrEbQ5lG7Oos1f3Fx1kA5fz5prrqlGjhxp/spHWeqNLHrhRygv1GWhLgl1SajL0s26aA4DqEtShC6aQ0+y0sLKiTCE1113nV49EdtafPTRR+bTwfOvf/1LHXbYYXqxGsznWnjhhc0nlqrk12ArtVdffVXfaxhEzMsMTeKbb75pjghAWuutt15iO5AyQHNYHJtvvrl+YeBDWeqNLPjjaqEuC3VJqEtCXZZu1kVzGEBdkiJ00Rx60iitVVddtd6Dcfvtt6tHHnlE/78I7rzzTr2vG0Bv2JZbbqn/H6Uq+VVEpbbjjjvq3tNgSOMQvYBP3CQirWWWWUYdc8wx+u8y0cgcVooOm8Odd95Z99b7UKZ6Iw3+uFqoy0JdEuqSUJelm3XRHAZQl6QIXTSHnjRKC716888/v+5FxHDSs88+23wyOL766qv65vnhROSrrrpK/x2lTPmFuZdYOCce7rvvPm3qjjjiCOfnrvDggw/qEI275ppr6sYwGqIm8ZVXXlHzzjuvOvfcc81VkW4EvfRrrLGG+SsfZao30uCPq4W6LNQloS4JdVm6WRfNYQB1SYrQRXPoSaO0sLooFku59tpr9d//+c9/CjGIZ5xxhvr444/1/0877TT1ve99T33xxRf67yhlyi/MjXSZt3aGOeecU5vFPHtLkuqClzJLLbWU+SsfZao30uCPq4W6LNQloS4JdVm6WRfNYQB1SYrQRXPoSZ60MKwU8wHD80+ePFldfPHFevsFX1544QVtLsO5ix988IFemTHNcJYpv2AOscJqtLcPoaieQxjwcN5hNCBupplmUscee6w25zDSvitZkmqBsuS7Im3Z6g0X/HG1UJeFuiTUJaEuSzfrojkMoC5JEbpoDj3JkxZ6D2FOdtttNxOj1LvvvqsuueQSdfnll+v9ED/77DPzSZJPPvlEjR8/Xl122WV66GjYQ/jNN9+on/zkJ6m9hqBM+bX11ltrgxgHaRVRqWGeWXTOIUwhFqeBUYCJBkhrscUWU6eeeqr+m3Qn++67r154yIey1Rsu+ONqoS4LdUmoS0Jdlm7WRXMYQF2SInTRHHqSNy2sWArDEu/he+2119QNN9ygjj/+ePWHP/xBXXrppboHDHsiwjxiFVIMkRs7dmxi5U30SGIu3QMPPGBikpQpv1ppDnEfw15D/IvzYd4ZTHgUpLXCCivo1WNJ94KVSn/+85+bv/JRxnojDn9cLdRloS4JdUmoy9LNumgOA6hLUkR+0Rx64pMWVsiEccF8QRfvvfee3pIBm+c///zzetipa+sLLG5z0EEHaSPUaO5cmfKrleYQvYa4HzDL+++/v+6tdYG0mtnmgFSLH//4x97blZS13ojCH1cLdVmoS0JdEuqydLMumsMA6pIUoYvm0BPftDDvDSZm9913b+o6YRZhbmAy0cvYiDLlV6vMIXoNsejPiBEj1Ntvv63j0kBahx9+uFpuueVMDOlGZp55ZnXhhReav/LRTJkv0/OVBnVZqEtCXRLqslCXpSq6aA4DqEtShC6aQ0+aSQsLqcw999y6AYuVRr/88kvzSTqYd4hhkphThzlzTz31lPkkmzLlV6vMIfZ7jA+5TQNpPfbYY9qgY1sL0n38+c9/1vmLhZ98KHu9AfjjaqEuC3VJqEtCXZZu1kVzGEBdkiJ0DcFJsgL21ENwfZYV0OPlim8U0MBzxWeFZtJqty4MHz3hhBPUHHPMoWaddVa10UYb6Xlwt956q54nB7ODuYiHHHKIWnfddfX2C9gvEfvzwSi6zukKZcqvvr4+vVF/PB5poVIbNWpU4rO0MBhd2G9ylllmUeedd54p9s3j3rj+32qgb4ga0j/e/bneIH6Iqn1sMXEwNWEQn2vGq35xjDnv+P5IXCz0DdSuJrievtiO9OP7w8+B6xiTXuox8c9rxHVEP6uh04x+rkOxG/8fdthh6gc/+IEz/7NCFeqNbq0PqcsG6rKBumSgLhmoywak1c52lCu+UWB+2VA1Xew59ARp3XHHHY4Gr1/AXDlXPELWZ3nD008/ba44H63Ir1avVpqHUNdWW22lNttsM/3/QZFh9BCXyxw6zhF8r0/VfZg5JmreXOfOMqu+5jA4V/ox+Fyc05hUGxccHzWIMk1gjkk64aZZdtll9RBjX9pdbzQD37xaqMtCXRLqklCXpZt1secwgLokReiiOfQEab3//vtiv708AauPxuOw6ujAwIBaZpll1Nprr617Dv/0pz/VP8d+gNHj84RwP8BPP/3UXHE+WpFfZTKHmK+JbS7yDOnNJmluogbNadZiZlAfE+thy3WMA2d65hq9zKFOv2b+hLmLHoNew4h5NZ8lTF5MR9IcuuOaZcqUKdqgYnVgX9pdbzQDf1wt1GWhLgl1SajL0s26aA4DqEtShC6aQ09aoQt7F+6yyy7mL0vVdZXJHGLYLkzEPffco/8eDNKQxUyS7k2LmqgaMcMUJThX7fsmBMekGC8HRZlD/VktvdRjoEsYumCIaTyN+LUnjaAZmppDWx6w/QtM/xtvvGFi8lP15ysN6rJQl4S6JNRloS5LVXTRHAZQl6QIXTSHnrRCF81hY4rQtdRSS+m9IgdPYHC0v0kYP4dpih9j/haGUBzjNncussxh1HTWg8v46bQDQ+syh/J7IZF7IHCYw2j6OsSvt3mGDx+uNt10056sN9KgLgt1SahLQl0W6rJURRfNYQB1SYrQRXPoSSt00Rw2pghdf/jDH/SCQJisO1jCnjanOYuZvzCERirZm1bDYQ7z9K4V0XOI+PDYtGNqH9TSifaIZvccus8X4L5mf15//XVdjm677baerDfSoC4LdUmoS0JdFuqyVEUXzWEAdUmK0EVz6EkrdNEcNqYIXV9//bVacskl1Z577mliBoE2S/2qH+ankYnL0SsYGKYGBtLBoM1hf3/t2uz3U82h+b/VGv/bILSm6Ij0VA4GrPg7dOhQ/f9erDfSoC4LdUmoS0JdFuqyVEUXzWEAdUmK0EVz6EkrdNEcNqYoXXfddZf61re+pZ577jkT0yxm7lzECKXiMkxRQ2c+x7nqhs7ECYPnmM84WHMo0qyRbg7xp9QRXE/0++acETPoModF9BxigSfk4z//+U/9dy/WG2lQl4W6JNQloS4LdVmqoovmMIC6JEXoojn0pBW6aA4bU6SuDTbYQK2xxhrmr+ZJmLw04qYqNFG1uCDA8BmzKZymNaD2OPORYfDmUH430xzWSGiOGFsdYk45OD4eBtdriBVnF1lkEbF9RS/WG2lQl4W6JNQloS4LdVmqoovmMIC6JEXoojn0pBW6aA4bU6Qu9DZhL8krrrjCxDSDMVcxM0Raz+9+9zs188wzq3fffdfE9Ga9kQZ1WahLQl0S6rJQl6UqumgOA6hLUoQumkNPWqGL5rAxRevad9991dxzz9384jS6x2zw8+aIH2+99ZbeuuL00083MQG9WG+kQV0W6pJQl4S6LNRlqYoumsMA6pIUoYvm0JNW6KI5bEzRuj777DO1wgorqI033lh99dVXJjYPHnMNSaFMmzZNrbTSSjrPsLhQlF6sN9KgLgt1SahLQl0W6rJURRfNYQB1SYrQRXPoSSt00Rw2phW6/vOf/6iFFlpIbbvttup///ufiSVl5L///a9ad9111fLLL6+NfZxerDfSoC4LdUmoS0JdFuqyVEUXzWEAdUmK0EVz6EkrdNEcNqZVul566SU1++yzq/3228/EkLKBXsIttthCLbjggtrQu+jFeiMN6rJQl4S6JNRloS5LVXTRHAZQl6QIXUPwR1aYMmWKDq7PssLkyZOd8Y3CxIkTnfFZoZm0yqQLq2f+6le/SsQPRhdM2TrrrJM7rL322s74RmGttdZyxiPMNddcapVVVklcI3ShUjvvvPMSn6WFVubXrbfeqq/n+OOPN48FKRPbb7+9mm222dSjjz7qzD+EXqw30gJ12UBdMlCXDNRlA3XZUBVdZWpHuQLzy4aq6WLPoSet0NWKnsNllllGffe73215QK+bKx4BFReuIw50le2N1/XXX6/nEV544YUmhpSBAw88UE0//fTaGGbRi/VGGtRloS4JdUmoy0JdlqroKls7Kg7zy1I1XTSHnrRCF4eVNqYduvr7+/XG6tgqgXMQOwvmGO6www7asN94440mNp1erDfSoC4LdUmoS0JdFuqyVEUXzWEAdUmK0EVz6EkrdNEcNqZdui644ALdU7XZZps1v80FGRRvv/22Ho4800wzqbFjx5rYbHqx3kiDuizUJaEuCXVZqMtSFV00hwHUJSlCF82hJ63QRXPYmHbqeuSRR/R8ye9///tqwoQJJpa0g7/+9a9N3fterDfSoC4LdUmoS0JdFuqyVEUXzWEAdUmK0EVz6EkrdNEcNqbdup555hm9px56rzAfkbSeM888U0033XR6H0PfXtterDfSoC4LdUmoS0JdFuqyVEUXzWEAdUmK0EVz6EkrdNEcNqYTur788kutAfPesDBKfON1UgzIo+HDh+v7fMABB6hvvvnGfJKfXqw30qAuC3VJqEtCXRbqslRFF81hAHVJitBFc+hJK3TRHDamk7pOP/10bVzWW2899corr5hYUgTPPvusWm655fT9HTNmTEvKYRpVf77SoC4LdUmoS0JdFuqyVEUXzWEAdUmK0EVz6EkrdNEcNqbTuv70pz+peeaZR5uY3XffXb3zzjvmE9IMb7zxht7bE/dzscUW0yYRtKIcplH15ysN6rJQl4S6JNRloS5LVXTRHAZQl6QIXTSHnrRCF81hY8qg67PPPtPbXGAeIjZlP+WUU9QXX3xhPiV5+OSTT9Rhhx2mZpxxRjXHHHPoeYbYtiKkFeUwjao/X2lQl4W6JNQloS4LdVmqoovmMIC6JEXoojn0pBW6aA4bUyZdU6ZM0fn17W9/Wy288MLqqquu4r6IDUDenXvuuXolUuQ95nB++OGH5lNLK/Irjao/X2lQl4W6JNQloS4LdVmqoovmMIC6JEXoojn0pBW6aA4bUyZdIS+88ILaYIMN9NDI5ZdfXo0bN858QqLcdNNN6gc/+IG+TygP//rXv8wnSVqZX3Gq/nylQV0W6pJQl4S6LNRlqYoumsMA6pIUoYvm0JNW6KI5bEyZdMW555576ouqbL755ly0xvDUU0+ptdZaS9+X1VdfXT3++OPmk3TakV8hVX++0qAuC3VJqEtCXRbqslRFF81hAHVJitA1BCfJCtOmTdPB9VlWwD5lrvhGYfLkyc74rNBMWmXStckmm6gdd9wxEV91XX19fWrLLbdMxCMtVGqjRo1KfJYWyqTLFT799FN13nnnqfnnn18PN91www21vg8++MA8ar0BKpff//732gzCFC6++OLq2muvdd4zV2hXfiFU/flKC9RlA3XJQF0yUJcN1GVDVXR1WzsKoZvzyxWfFTqpiz2HnrRCF3qdMDwxTtV19UrPYQjSwt6IGEYJYzzDDDNonT//+c+1QYKB7EYwd/DSSy/VhhjGeOaZZ1a//vWv1e233+69N2S788uXqpRDX6hLQl0S6rJQl4W6JO3WxZ7DAOqSFKGL5tCTonUdccQRujGNXpYLLrjAxAZUWRfoRXMYBabpkksuUT/+8Y91/mKV02233Vbdeuut2kRWGazces0112jji7ycbrrp1E9/+lM1evRo/VkV8ysP1CWhLgl1WajLQl0S6pI0q4vmMIC6JEXoojn0pEhd9957rzYNN9xwg+rv79cP+j/+8Q/zaXV1hfS6OYyCff1OPvlktfTSS9eN4rrrrqsOOuggdd1116nXXnvNHFk+sBLrhAkT1JVXXqn23Xdftdpqq+n8g45VV11VDyON7/tY9fxKg7okvabr888/V//85z/VQw89pO68805144036hcieAl0zjnnqCOPPFKdeOKJ6qyzzlIXXnih+uMf/6jGjBmjbrvtNnX//ferJ598MqGd+WWhLknRujBsbPz48eq+++7TLynx23PFFVfoF9OnnnqqLrunnXaaXlkao0GuvvpqPRLmrrvu0guuvfzyy+ZMAcwvSbt10RwGUJekCF00h54Upevtt99W3/ve9/SG6gAN8GHDhukNwTHGGFRRVxSaQzdYqAVbOcw333zaYIVhzjnn1L1v2EsRQzLfffdd8432AiOLRu///d//6eHOs846q7jO73//++qoo47KXHinm/IrCnVJulEXnjs0nPHCbsSIEbpextD/2WefXTwHgw2o69dff3213XbbqaOPPlr3xMN45oH5JaEuy7PPPqtfVBx++OHqV7/6lX4JucgiizjLYLMBWxKttNJKegG2vfbaS5199tnqT3/6k/r444/NVWTD/JI0q4vmMIC6JEXoojn0pAhdX331lR5quOyyy4pN1N9//3210EIL6flqoGq64tAcZoMXAmgMomcBjUP80C644ILiRxj7KOI+nn766erPf/5z4fMWMfQVq63ijTGGiM4777wifTRgf/GLX6jjjz9eN5iztqGI0o35BahLUnVdWDAKPYDHHHOMXhhsttlm0+V++umn18/iKquson72s5+pXXfdVU8BQI8Knlf0HOLZzbPg1H//+181adIk3WODZwg9Mnje0AuPZxuNd2z1Mssss+i0MW93hRVW0I1u9Na/9NJLiX1UezW/0uhFXd98840eaYRea6x2jlEp3/rWt3QZwouMpZZaSr982GabbdT++++vR65cfvnl6o477lBPPPGEevPNN3VbJAuUO7wswbZNDz74oJ47DyOIF4c77bSTfpm54oor6hedKLdIG8YRz8xJJ52kv/PJJ5+Ys1lYDiXN6mI7KoC6JEXoojn0pAhd4TxD11DCxx57TDdMzj///MrpikNz2BiXLvwYP/DAA+rMM89U22+/vVpmmWX0j240oPygpxE/yosuuqhacsklde8GhnmuvfbauscP/6Jxi5cQ+Bxvj2H+5phjDj2sNX5OvAlGIwM//hhC1C092GlQl6VXdKG3G8M9sTo0Gs9h2cczgZdyGA6KhnOnQK/9wMCANobYOzW8PjT2N9tsM/2SBj00vZJfeekVXXiRgaHLWPwrfJmAgKH+I0eOVGPHju3YiBPw8MMPq1NOOUX3tkdHnKAs77HHHnoI61tvvcVyGKNZXWxHBVCXpAhdNIeeDFYX5hni7R7mGaYRzj/Msy9cnDLlF81hY3x0oZfi9ddfV88884yeM4KGAOY0Yc4fGo1oHOBtLnr6Nt54Y93YhdnDEFb0VKDXA9ttoPcCP+IYfoSeQCx7nEWrdUXppvyKQl2SduqaOnWqLvfh9ioIeKHym9/8Rvfi5R3K2QnQs4/5iocccohaY4019ItDXP8888yj9ttvPz2H0QeWQ0nZdWGOK3qpMf0kHNY844wz6h5BDO3HqI/wJV7ZQM/m3//+d/WHP/xB916G0yjQ/sH1wyj6XjvLoQVpsR0VQF2SInTRHHoyGF3xeYZphPMPMbfLt/IsU37RHDaGuiTUJaEui09aOBaLbaAeDQ0VhmhjONyLL75ojqoemNMFQ7veeuvVhxD+8Ic/1EMG0evYCJZDSVl1oYxihBHKLPIYq0Gj5xjzUpvVWgYwtPq3v/2tmnvuubWu73znO9o4Yo59nvvDcmhBWmxHBVCXpAhdNIeeNKsLq4S55hmmgfmHmPMSzj/MS5nyi+awMdQloS4JdVnypIXzolGNYaJofKK3ZbfddtNDMePz9qoOhudhCN+PfvQjrRVmcYsttlCPPPKIOSIJy6GkTLpQPjEfEL1qyE8EDBfFiI/33nvPHNUdYK4jtGLBnHCKw/zzz69HTWUtasNyaEFabEcFUJekCF00h540qwsTwtPmGaaBBUjC+Yd5KVN+0Rw2hrok1CWhLktWWqhXMSJjhhlm0HULhlZj6H7V9xPNy9NPP623xUEDGw3tNddcU9188816aF8UlkNJGXQhHtMDwrnlWAQMCySVeXujIsEia1h4CVMhsKgN5ioefPDB+oV6HJZDC9JiOyqAuiRF6KI59KSZtPLMM3SBtFz7H2ZRpvyiOWwMdUmoS0JdFlda6CWDEUT9us4666iLLrpIz9PrVWAGMR8ZC+5gwRKsgnrxxRfXTTLLoaSTurCKJ37fF1hgAb3C5957753Z69sLID+wEBtWQMWLccwLjs4JZjm0IC22owKoS1KELppDT3zTCucZYtVJX5BWOP8wuv9hFmXKL5rDxlCXhLok1GUJ00KdiF6xtdZaS/e04F8srkQkMB+HHnqo7k3FAjZYlGrKlCnmUz9YDi2D1YU8wAJD2DYFAfNF80w16TWwYna4Yi+2zMDQcJZDC9JiOyqAuiRF6BoSJp4WkAiC67OsACPjim8UUHG64rNCM2m1QxfOjz2sMFwEq0y6jskKYVrIMOx/OHz48MQx8VCm/Npqq620QYzHIy1UalitLP5ZWiiTrrTQTFrUJQN1yUBdNiCtp556Sm+5ggYjFmLByrskG8xN/PWvf617V2FGsHok9l503eO0wHJoQ7O6MJfu2GOP1WYdvWL77LNPR7edqAJ4EQTzg/YPnnms2/Dyyy8773Fa6OZyyHZUEKhLhiJ00Rw6PssKPmlhZTzMM8TKY4PVhbdo+EHB5PToMfFQpvyiOWwcBqMLLw2wQTa2PMFQMgxbvuyyy/SwHGxtgf0KcY9vvPFGvW8ilr3HanH/+c9/nOdMC+3W5YpvFLqp3ogG6goCtlvB1g1YtRG9YBdccEHDDbyJBMY67G3FQifYZsB1r12B5dCGZtLCZvDYaxb3HsOgsd8myQ/KBHpYMR8RK5xig31s8+G61/HQzeWwl9pRmIOLtszpp5+ut/fBqLzwsyrrygqd1MVhpZ7kTSs+z7AIXXnmH5YpvzistDFZurAZN+ZQYfPgoUOH6pVu8QY1uvlxNGCFRgw/XnnllfXxmLeB/dzC/bHiAb0IWCodQ3ewqfK+++6rLr/8cr2PYpSidWVR5fzKgrokPrruuusuXU7RKMQG4PjhI82D3lb0uuJlI1Z2zZOHLIcWn7Qw/xULJaEtgHr5scceM5+QZkBPK3pc8ZIII7LwsrMR3VwOu70dhZco2223nZ6Ti/YK6i2MxsOLFnS8YL7unnvuqfdr7qZ6I6ST+UVz6EmetFz7GRahK8/8wzLlF81hY6AJefnXv/5V94bsuuuuaoUVVqgbOJg79MAed9xxeiPvq666Sr81Q08yXhJgb7Ospb+joKEyadIk3WOAjZVvueUWvUrcOeeco44++mi1+eab11c7RMCm4TCMuC6shuhDN+cXdVlaqQub12MPNDSsd9ppJ/1WkxQDel3xXGO/Oeyne//995tP3PD5suRN69prr1XzzjuvrsOxPyF+v0kxwDRg2xbUDTCLWb+B3VwOu7UdhdFNe+21lzaAO++8s3r++efNp5JHH31Ut4/wwhwj9XyHabdbly+dzC+aQ08apYUfXdd+hkXpwv6H6D1K2/+wTPlFc5gOfsxgzH72s5/pOSj4kcPKgttuu60eNoFhoJ1adfGdd97RvTUYuoNyFm7EjIoajXX0hn/22WfmaDfdll8h1CVplS70sOAl2BJLLKGHQ5PWgG0EYLxRH2PYXtpQXT5flkZp4XNsXYVtGbDwDOZ3ktaARWpgwDEPecKECSZW0s3lsBvbUaj78dIKI6HQRmoEVmjGPGqMLMGLLp8tYNqdX750Mr9oDj1plBaG6bj2MyxSFx6etP0Py5RfNIcSmD3MD0Dv73LLLadXsD3rrLN0Lx5WFiwzeCmBeY2nnnqqzlMM6UH+jhkzxmkUuyG/XFCXpBW6sMImXkZg5EWjlxCkGMaOHavmnHNOPfQRC37E4fNlyUoLLzIw5A0vcFGvk9aD3yb0IqLOOO2000yspZvLYbe1o/BiesEFF9T7tL733nsmNh8YWrr00kvrthXmo+ah3fnlSyfzi+bQk6y0svYzLFpX2vzDMuUXzaFSH3zwgRo1apT6yU9+osfLn3LKKU2du4xgBV7MAUMPD3oYMYwKPRGgqvnVCOqSFKkLjTzsVYj5Jei5Ju0Fw3Yx9xhze/BbFoXPlyUtrdGjR2uDgt88LKBE2gtevOLFPBb8ib5U6uZy2G3tKGxZgjzEdJlmwPQXtMExHSYP7c4vXzqZXzSHnqSl5ZpnGKVoXWnzD8uUX71qDvHG65JLLlEbb7yxruiwjDyGv3TrnJOvv/5az4PE29vwxxnDQdDY96UT+eVDlcqhD53WhVV3F1lkEfWjH/1IvwEmnQFDtA466CA9JBIrY4fw+bLE00K9fthhh+lGKV7+kc7xwgsv6J4nLLKGLVxAN5fDbmpH4YUUXq7gZfpgOOaYY3T9hbLQiHbnly+dzC+aQ09caaXNM4zSCl2u+Ydlyq9eM4cTJ07UK2dhyC9+nLCATK+9QcZ9w9BTzBWbaaaZ9CRx9J7mpZ351UxaVSiHVdN199136yXqN91003rPM+kseLmDeuw3v/mN/n3j82WJpoXyioW88FIM5Zh0HgxNXGONNfTLegzz7eZy2E3tKKy/gJELgwX1Faa9YKGiRrQ7v3zpZH7RHHriSittnmGUVumKzz8sU371ijnEj9HIkSPVjDPOqMe733HHHeaT3gVv0zHMFD3bGKaG1VbzzKtsR36FNJNWmcthSJV0YXh8uHAHeq1IecAKypiHiKXj0bPrS7c/X+iZQk83erzz9FKQ9oFFgLC4GxZ7w++QL1Uph93SjsIcQeQVVlAvAqzAjh7kRnSi3vChk/lFc9UiZHUAAE0BSURBVOhJPK2seYZRWqkrOv+wTPnV7eYQPWLoGcOLATQQ8LadDVwJfqQxPA1vcdHQRFnNmizeyvyK00xaZSyHcaqiC8MX8WKrmcYbaQ8Y4gsDhPnS7VgmvirPF14EY9sf9FA1M3yetAf83qB9hm1bfKhKOewWc4i5ghhSGt9juVmwwBbO16jOand++dLJ/KI59CSaVqN5hlFaqSs6/xCGpSz51a3mED1g6AlDjxgMz5lnnpk6nJgEYF4s5gLASGPpcQy5/fLLL82nllbkVxrNpFWmcphGFXSNGDFCG8P4wiekfGDbHey9iqFarR4iXoXnC72oMIbrrbce6/0KgIWCYBAvu+wyE9OYKpRDpNUt5hBDsmHminrREprNRj367c4vXzqZXzSHnoRp5ZlnGKXVusL5h8OHDy9NfnWbOUSPF95EYjVF7KmDXsOyb0FRNsLNbWEMsH8iJp9H91ZrRTlMo5m0ylAOG1F2XSeeeKKabrrp1O23325iSNmBKYQ5XHHFFTM3HI/Sjc/X5MmT9e/sWmutlXu5fNJ5YAxhEK+++moTk03ZyyFAWt1iDsOevujiioPhxRdf1Od74oknTIybdueXL53ML5pDT8K08swzjNIOXeH8w+gqc3lpRX51kzm88847dY8XKhwsOoNeY9I8r7zyit5QH/cTi9eg7IJWlMM0mkmr0+UwD2XWhboJxvCmm24yMaQqYIjWUkstpVZbbbVcCwd12/OFYzE6B8aQCydVDwwtxfzm66+/3sSkU+ZyGIK0usUcPvLII7ot8Oijj5qYwTEwMKDPN2nSJBPjpt355Usn82sITpIV4OQRXJ9lBazS6IpvFPBmzhWfFZpJazC6sGw/3kJdc801zmNcoV26TjjhBF1hPP74487P00Ir8gurqG655ZaJeKSFa0SvUfyztNDJcrj33nvrimbo0KH6jRQpDpTTlVZaSd/fY489tiXlMC00k1Yny2HeUFZd+MFG44zGsLpMnTpVLb744nqbHvScufI5DN30fOH8WIF61VVXpTGsMJgCgpdT48aNc+ZzGMpaDqMBaVWpHZUVcBzaAOHCioPl8MMP1ytgY79LV3phaHd+ueKzQifziz2HniCtP/zhD3ponA/t1AVThoaYD63Ir6r3HL788st69VH8mMB0c7GZ1oC5hwcccID+ccDKiGiA+lKFeqMZukXX888/r0danHzyySaGVBWMlkFeYg5xFt30fO2www565IjPnEtSTjDyB3k5ZcoUE5OkrOUwCtLqlp5DgHnNedbvyAO2RcIWM41od3750sn8ojn0hLokWbqqbA7HjBlTX4V0/PjxJpa0krvuuksv8DPPPPOop556ysTmg/WGpWy6MEdt0UUX1T/YWDyLVB/0/uJlDp7ZNLrl+UJvBl4Q8negO8DLSMydRS9wWlkrYzmMg7S6yRxiqhZ6+15//XUT0xyYZ4jn9aKLLjIx6bQ7v3zpZH7RHHpCXZIsXVU1h1jdDMPfMLfkww8/NLGkHbz55pt62Xws+IPh23lhvWEpky6YQZhCmMO8C5mQaoC9KdGYmzhxoomRdMPzBUOIhiZGC7WE8f3aZGeGfprSonnjjTfUHHPMoaeMuChbOXSBtLrJHKKthZfDK6+8st4CqxkwnBILRuH3Jo/OdueXL53ML5pDT6hLkqWriuYQY9Xxg4xrb7aCIoMDJmKjjTbS83ovvvhiE5sN6w1LmXRhEYgZZ5xRDysl3QVWGV5nnXX0AjWuHuGqP184Jxqa+C1oGdoc9qkB52X8Ww300Ry2ivvvv1//xtx3330mxlKmcpgG0uomcwhuvPFG3f7ad999vUeZoD7Cav24Jw8//LCJzabd+eVLJ/OL5tAT6pJk6aqSOYQRxPWiYmo0l4a0nq+//lrtvPPOOj+wWXqjHwrWG5ay6MK2JehZwiIQpDt566231EwzzaT3LY1T9ecLPaPYz7ClC9DQHHaU/fbbT2+pFC8/ZSqHaSCtbjOHACta43d//fXX1z28eZgwYYJe2A4jvm655RYT25h255cvncwvmkNPqEuSpasq5hALzQwbNkxfk+9CPqS1nH766frtbqMFoFhvWMqiC8//0ksvrY1+eRiv+msNDzQ+gtBfi4mgG+uxuH8PqL7asbKNHjtP30CtKR8hz3lix/x7oE+fK5rO+P5IGq50SsAZZ5yhXwJgpbsoVX6+0NjEcNI82x4MCh9zqMtP7djxQTkKy4TLO8bLjd8xJl3XdZkyHC+HYdkNQ1/9i/HnLRqC8+vrqCUurqdN5RwrQeIFwIEHHmhiAspSDrNAWt1oDpHWVVddpbdlm2222fQelWmg7YZFzmaYYQa9VsENN9xgPslHu3X50sn8ojn0hLokWbqqYg732GMPbUC4KXc5Oeecc3SDob+/38QkYb1hKYOuBx54QOfZ3/72NxNTAsKGbaSlHDRIIyYulzk0Dd7Bnkccg3PK4/U5RSM5mW4ZgPnHS4DNNtvMxARU9fnCKIVVVllFbbjhhiamhXibQ5SzyPH6+y5jFy+LjmOiZUuUzeBzrHpuTV5A3QRGvhuU/cg1mXPFv5so/4a6Kax/4Li+FoIXAPj9f/rpp01Mder5bjWHAPN90X7ESxoYP2yLhhdRWATrxBNPVD/72c/0vFGUne22265tv5Wgqr/LjYjqojn0hLokWbqqYA5hOFC5/P73vzcxpIyEW12kvclnvWHptC7EYa5WUcuSF0XSbIHAcNUbsjlMXdBAjh3TxHmix+hzilZzcD5nQ7pNjWYf/vrXv+rn8+abbzYx1X2+sPgM5sk22kC7EHQZ8DOHcdMlykTK+cQx+jxpaQJjDgcGVL8oa4jvq/1m1sqqOFeynDqfkZRjA3OY79hWgTnu2McyHOVQhnLYCKTVzeYwBNMTYArXW289bRIxdHSNNdZQhx12mK5vsCVJFXXloZO6aA49oS5Jlq6ym0NMWkaDBvMOSLnB2/ytttpKDx9xLW7CesPSaV144YJ8eu+990xMGYg1tCMkG9dZDdUG5wnjvcxhcE7HKQ2mxzAMosFeHvB8LrHEEvX5wVV8vnAerJg4cuRIE9NivM2h49hIWXO/uKgRSSf1mDpBun0D42v/RtJD+rWyNx7fF8+L45pc5s4VV0M8N3XCa4ifuDW88MILNR1D1NVXX63/7nQ5zAPS6gVzGCV8CfWvf/3LxARUXVcandRFc+gJdUmydJXZHGLZZMw1wHYVvqtikc7wxRdf6OFrCPGVZFlvWDqpCyvGYYPpRnNE2096Y7Mpc1j72xnCRq4+j+PzWqi3gyPHJNrGNYIeFRPM9YlrLRnYmxTXGm5BU8Xn68ILL9RznaZOnWpiWkyaudI0aQ5d5SOSTuoxdeyzgmPDZyb8v/h+JG1BxcwhwKbp2EYBdLoc5gFp0RwGVF1XGp3URXPoCXVJsnSV2Rz+/Oc/15OdsdoeqQ7oNUTjDcNMo7DesHRSFxYSwLCfvKvMtY9YQzuCaJy6Grsuc+g4j6DheWrUj3GcM6shXVJzCDbeeGM1dOhQ/f+qPV9Y3GLxxRdXu+66q4lpAxHTliRWLnSZSB6rzVrUHLrMWqQ8ph5TJ2LMkKYub4hzmMu063dda1aZjkfWrk4M024DjzzySE3LEPXQQw91tBzmBWnRHAZUXVcandRFc+gJdUmydJXVHI4aNUpXMNH5MaQ6YP4B8g/7VIWw3rB0Uhd6dbfffnvzV7lwGyv/uYLu80Qa1CDHecQx8Ua26/vmWstsDsOFiJ599tnKPV9jx47VC5O8+uqrJqYNxPNd4DKHScOUfLmRPJ8os5lpgmhZNqZwoPYd831hDlMMn9OAZplD57FZ19gaVl99df3iuJPlMC9Ii+YwoOq60uikrp4wh0FFJSvVhC5dYSYrrjgsTJIsXWU0h9hgfZZZZtE/AKSa4A0/Fg9YdNFF9TBG0IvPVxqd0vXEE0/oOhTbAJQS0ziN9lIkGqYuU5Zo1BqTFjlPojGc5zyxY0QD3hwb/c0KrjV2vSUEz+Y+++xTuecLqx/iN6utZBo1tzlMvkSIft98J1EWo+XXHCNeMkRfkkTNIZIN2k/2MiLmsEZQLiPX4Ci7msRzFFAv1/UPYrrbyB133KFfELz55puVqOdpDgOqriuNTuoagj+yAlYCQnB9lhWw55ErvlGYOHGiMz4rNErruUuG1QrUMDVs2BB19F1BnNR1lzoalVMthJ+nhTLpcoUy5RfG8MOExeORFio1bJwc/ywtFKULwxFR+b/22mvmESBV5L777tPPKzZYR7724vOVFjqlCws7YRW5cmOMXRhEA7mGaUi7Q7QRHjtP3LDFjJ+mgTlMNKrj11L7YtBQTzMT5eCiiy5Sc801lx6yHy0reUKnni/8HmDJ/HvuuceoaBM6j9Py020O+weCf4Ny4f6ufZGQ95iomZPmMEjXltO4OQShgQyD09dlmcPa+Qai1+M8QevB+gNzzz23OvXUUytRz3eqHZU3QBd+ow899NDc4eCDD3bGI2BUCsrHiBEjRPwhhxyiQzQuT0BaF198sfPas0IvtDd6qOewX/Wj8jGVTlQXPu/r73dWXHH4pkGSpatsPYfvv/++7jVExTIYwh/CxJvR8Mc88WPcoCFZI/5DrUO84Ro/j+sHuhanV5OrH5dMK/yRtsfEyn2ehq25FvG98LyRyHijwZlek2D58QUWWEAvTtOLz1candKFnlw0qroSXbbLbcrKAhozeMYxxNSXTj1fWKVypplmSix0VSpSzFXVCc1hWR4ttA+wx2UV6vkq9BxicbINNtggd1h//fWd8QjYfxR1CxYSjMZjnjNCNC5PQFpHH320udr89EJ7o6fM4fhIo9fqQoO+9qM/3l3xxhu3W4yO7X3kaGgjxM8T9F6mfR42tGXjP5FWjYSJqFeqcQMSDbZRE9cTGpzgHrqvI2mCLFn5VTZziIbrzDPPrN59910T0xyBCeszE/Uj1MtCpBHpMExBHkrzhbjofU7+YJo8yThPPW8j30uk5WhgBN+LXHOT5jBIK3KNjrRc32sWLD+OxU+uueaanqis89IJXX//+9913pd2SOlg0WWZ5jAvmLu17777mr/y06nna/jw4WqbbbbR/y8tzvq0+iR/6zoLNlnH6KJ21b2g2bSqYA59yUqLw0rzUYSu3jKHkYZpXRcqXFRMjoo3aOzKhv4WtWOEWdLfy9P4HpYwDPY81ozVv+dIK1mJJg2D1vXWtc4fEZee8DqCe+i+Dnmtkqz8Kps5xEp0RSyxH5hDDIORjUXEBz3QNt79wxfc53jeZuW1LcNR5HmCY+INWMcx8euJl9lmzKEZHtUXHQZl4lzXY88zODBPaNNNN+2JyjovndCFt6+LLbaY/n9Xost/vCyTNE4++WS9VZDvNkGdeL7wXezLiZdMpSZRB3cH7t/IzoHeY7xExnBDX9pdz9McBlRdVxqd1NVj5tBURLXaNdSlG/T4xY9XvCkV8aTRW8iGsz4uyxwGjeFhlzxn/g6Qjf3gmKjJAzItd6M6XrFqXS5zmKInvI5x+h66r0NeqyQrv8pkDv/2t7/VNAzRG98PFn0/avccwzetoYv2QIeNyNickQgy34Ljooe5Pk89j4kPryueI9FjogT5WvvMhPoh3uYwuL5g0+RoWsExUdMrvzd4rrvuOv2W95lnnjEx+WmmjhpsOfSlKj9Ca6+9ttpjjz30/wl59NFHdZ3y0ksvmZh8dOL5CucvY54OIWCTTTZR2267rfkrP+2u52kOA6quK41O6uo5cxj+/1Gt69FaQ9U05OONX2evRy2tSaOTx0Ub5CnnueS52In0ceH53Q3mIK3kNYTHh436aPo6v1zmMEVPeL0njcM9TGm4i2uVZOVXmcwhegwXXnjhQja8r5sw3Jfw3of/F/cqNE3JeyTNH+67vL9OcxjmdzyYDMtlDk1+h9/V0Saunu++5rB+vNvExk1oPd0CQP5irtCRRx5pYvLTTB3VDfWhi8Hqwpt2bCBOCPj888/1cz4wMGBi8tGJ5wtb43z3u981MYQodfjhh+tteXxpdz1PcxhQdV1pdFJXz5nDoJHbp659q6br0VNsYzpPA7lG3Bzqc0dbus7zyIaxDaEhyGcOdSM//K65bmkiTH6lmsOknvB6u90cYgWyo446Sv9/sFgTBjMU3BfE2R7o8F65zRJIGjaZN05z6DhPFHtdUeR34+VF4yyzsbISP6ZeVoLzB/GO6zTfswY5pYwNgh133FHPcfKlmTqqG+pDF4PR9corr+g6Cb3zhIT86Ec/8n5p04nnCysg/vSnPzUxhCh1/fXX6zrNd4GidtfzNIcBVdeVRid19Z45NA3Y4de+pR49JdJodTaQk4bIZdhEz1DKeRI9h4IUczjuJHsNicZ5gJ85TOoJztunRk/CPUxpuKd9t0ZWfpXFHGK4ECqUIoaUgqgJC0zhQO2+RfNJlo+kYQvuc1huXKYu/j33eYKyLM6TyKdonsrjQ4LvRfLdxxz2146tX1fSHOrrFudKKWOD4Nprr9Xlybd8NFNHDaYcNkMVfoRuuOEGvTBQsxpJd7LDDjuoYcOGmb/y0Ynna5llllFHHHGEiWknjpdppHDC3zcZYr9vMV599VV93OOPP25i8tHuep7mMKDqutLopK4eNIemwTp8uBo+ZLhtSMcbvylmrOE8wJTzYP9EgWiAB+eJ/0jotMKGt6vBHn4vYhp0frVizmHCmARk5VerzOGdd96pJk1KruTqAmnddNNNNY1Dmi6TccT9MPe1fs/03xGDFv+8hjRMbsOWNIPJvImX6+Bv+b34eRJmLby+Wqhfg4c5xPdsXKyxY74jtQXfi8gYNJjXhOt48sknTUw+mikP3VAfuhiMLvTIo4FNSJSzzz5bL0qTF5S/P/7xj+rTTz81Mflp9vnCXox4sYEXHO2H5rDV4Pcu/tuaFwyVv/TSS81fjXn55Zf1/NVmaLaepzkMqLquNDqpqyfNYdD4rVXKw6+1je9E4zeoWERPTO0YsYJorkZ0mH5ktVLTQLaVlqOhbdKK/h1vaAfXh2CvQeeXyxzWcOkJzxncQ/d1uM4VkpVfrTKH//znP9X000+vdt9994YmEWlhs9Nm5g+kIcyh+YGX98vdexfkVS3UvxuLdwWXQawHWfbCcj4QmsTE94FpkNTPgWs15w1FhM+HM4TazHfE+WVjJ2FENcH30spTs+CH/Pzzzzd/5aOZOqob6kMXg9GFYXmbb765iSEk4JZbbtF1xhdffGFi3Hz11VfaFGJOODalbufz9dhjj+lr9H2xVAw0hy0Fv8WJ37/8rLjiirl6lNHLiKkN2EP5zTffNLF+NFvP0xwGVF1XGp3U1ZvmsPa/U2oFDENL66SYoOC7aOQGIZibl4x3hei54vscyrdZQYM5GJ5ojwnTqhNvtNcSCK7DmhGdXynmEMSvOzwmuIfu63CdJyQrv1o5rLSvL9Ax3XTTaZOYVikjLexhhSFO5SPbKOm88vhxC/I2bsYKxGl8ywE2sx05cqT5Kx/N1FHdUB+6GIwuDB1E46jV6JcNiechrLP+7f5c15mxMpt4+eEo0+b3oH6MOW9mva8fZNczHTcBjmPC9NKOSXyevBbXb0r0cx1Eoq3lL3/5i05z6tSpJkbyzTff6M3nF1poIX3cjDPOqDfQb+fzdffdd+u0J06caGKSuOrhxItWrxfFYV4MmHJh/jXxriwK0ks5JqyXzV7N7vOE5cHx+xA+D/Kk4pqSn+cp50Zvg3uX6/6mkHlfoAsRseddPifpYJP0rK2v8GJ611131atl47wwku2u52kOA6quK41O6uoJc+hisLpcFZolWXFm6wqOj1da7dflvo4ssnS10hyGm24jwCCiJ3HEiBEJk4i01ltvPb0PW/lw/cBasstYkqDh0ZvmEObE9wVA+58vf6pQH6611lrexrwpdCMvVv4icbqhGH9e4t9xnCNoYEaeG9OYjD6XrnM703M+043NYb2Rm3IMPk8eH9FhjIitux11ucOstJLnnntOa5owYYKJCcCK0VjFdIkllgg0m/B///d/bX++xowZo9P+4IMPTEySRD1s7mOyXDUwh7GyF9TXgfa0Y2pHGZOWUT5Tryea16Y89PUl8j9Z9pImL0wjXr7kuXKYQ8e15rq/CRrfF3t/o/nieC5S2GqrrdQ222xj/rK8/fbbetsetDuC8w/R+2S+//77ba/naQ4Dqq4rjU7qojn0JEwrUaEJkhVnti53hdV+XfkrzpAsXa1ekAY9FtEKGnNH4iYRaWE+1Omnn67/7maCH8NYA6VI9I921g9259h33329F79o//PlTxXqwx/+8IfquOOOMzGtJFk/RQ1a9P91Yo1tfYxs0eY7xoEzPUfdX8vFbHNo0u9LO0Y/d5Hn2jSeZRqIjj7/rrrcFdc6MJ8P9TL2PAQwhTfffLNaaqmldHw0hI3rdj9f2Ogc6WdtcSR/64O8DEauROpCnYexulfkk8NwmfyQZSh2XKxshoiyZ9KJ56ssn6Y81Ux5X+Ia+lV/tMw76/kGZViT1Jjn3uW6v3Fy3JfgeUg+J2nfjYMRSdjvMAQ94PidQRsDbY2w7KINEq7K2+56nuYwoOq60uikriE4SVaYNm2aDq7PssJHH33kjG8UsLKkKz4rNJNWuXSNUyfVCvwWoyeJ+Pbrcl9HVsjShQp+yy23TMQjLVRqo0aNSnyWFly6HnrooXoFHQ2hSUTl/vzzz6t5551XXXTRRabIk24E+1JhO4to+WgUql9vuEO7deH5Ou+880xOtBZXgzdsFEtzZMhoCOpz1euN8Bh5zizktYTkaTRHjzGN4YHxqcdoXdETpmkSZsShQ3/P0VhuEZ999plODwuCIWDet73fNqBxfdhhh+ny1O7n69RTT1VzzDGHuWI3wrzoe1grY/E8COPNn5pG+ZEoFwFJgxM7L4im7zRzNcQ1heUJ/0bOh2Nq6es0XQXDaKjnV/0YWz4tST157l2u+xsjz31JPUbkSzookyuvvLJ644031G9/+1vdZgmHkEbDd77znXo93e56voh2VJ7Qbl2ueISwzYdF6KLxVdeVFjqpiz2HnlCXJEsXeg3jFWm7A0wiNkm/8sorzVWRbuSEE07QPVg+sN6wDEYXnrO2PV/RhnC8Aelq9MWP0X+H9YPrPK5Gr5ssc2jTiIT6SSNp6LTRgHUbSPk9Q/07MYT+lOuIn6vFIM3ll18+eR2OcOKJJ9bL4aqrruo8JitgbjnAwiDR+Picx3jP5SKLLGI+cWPNS2jkazmeWa5kiOaHvP1ucxg1S8I4RYmmH30moohyYtNHuQ2TDP8vzaG5rlCDjneXz/qfmqSePPcu1/2Nkee+pB7jvPYkJ598sp4PC/MXzc9oiPYgMrjD008/be5oPrJ+v9hzmI8idNEcekJdkixdmGuCRQniAcs9w7RhArfrc1d48MEHdYjGXXPNNYmKCAELG+DfzTbbTI0bN04tsMAC6qyzzjJXRbqRgw46yHsjfNYblsHoQuOpfS9fbAPSac504zBeJ4SNzGTjVSMaokHDUfbwuMkyh9mN5vCYID6ITjum9gkauVEzmNZwFibBpSNFfwvB/ceiM+hZRg9ddBpAGBC300476R6asByiQRmt6xsF/KaEcxsfeeQR8VmcJ554ov4Z5iovuuii5hM3dZOB+x7mdzwP9N8xw+4w63nyI1quEnkfEk0vxRzK70bKJb4b/KcWF3wuzGFcmya9fFqSevLcu1z3N0au+xL9fxSRL+ngZQVeOGL0EeYfoqyi3RIvv2hv3Hbbbbo8oRyGZcsnjB071hmfFYpqR+UJg9GFni8fsn6/aA7zUYQumkNPqEvSrK4ixsr/5je/EY2N8A0fltV/6qmn9DFIa4UVVtDDDkn3gsVofvazn5m/8tHNz5cvg9G15JJLqpNOOsnEtJ6gMdmv+msN0YYmTjQyXQ1aHIL6Izwmv4EatDnsjzSG047Rfwb/r2tNady6zED8/tQb4ubvVoIeO9THaCQClK9LLrlE732IOYZhvY2A0R0ff/xx25+vCy+8UPf+ZBEtbzZ7YubFZUREPrnKVZBHMj9ix8XTMYiyZ9KJ57UwfCat4E/832x5ZD6PHussIyYN9/lCkhrz3Ltc9zdO7vuSPEan5zKNMbBSKVYsDcE+httuu60eWhq+gEZAGwR7vYJ21/OccxhQdV1pdFIXzaEn1CVpVtdgK7VXXnmlPv4/rKjxdg+rmEZBWhtttJHabbfdTAzpRn7yk5+onXfe2fyVj25+vnwZjK7VVltN7yXaNsKGalbjMUQ0Ik3jNdrw1Z8HjTzZMJUNX1eDcrDmUKbhPsb+KRvDOu2o/oRBCL4vDUOy8d5KMC8IGp999lkTE/Df//5XLwQDk4jfARwDg3bMMce0/flCrybSz9p4P8j72n1LlJvI/dd/Z5nDGrFyVT9vIi5ark2eRc8dL5+u5yF+fbHyFC8/UXOYOH/9Gmqhfg/ylPNQT/R7NWLXluv+JshxX2oE544ck3hO0tluu+30uglxsM8yVjFFWmHbAy83sOJtu+t5msOAqutKo5O6aA49oS5Js7oGW6mhpwiVBAzir371q8Ry6SFIC2/7fvGLX5gY0o2stNJK6pBDDjF/5aObny9fBqNr4403VnvuuaeJaQemYZgwZg5SGsmoO4JQazi6Goz1BnfkOPNRyKDNofiu+xh7nqTmqLlAkGnGdZqQ554VxPjx43Wa8YZcCEwiFgqbb7759HFoYP/nP/9p6/N166236rSxPUEa4X0W9zdervTfsTISN4fAGBgdnPscug1RYOZSjgnTwUqkacfEyxOuI1IWhDmsES9beDaCawg1ppQvE8JnKc+9y3V/U8i8LwaXljxgWsouu+xi/kqCNkd0XQW83Gh3PU9zGFB1XWl0UhfNoSfUJWlW12AqNQzvwFAOzBfB/7NAWr/73e/00DfSnXz11Vd6SPFll11mYvLRzc+XL4PRhR57vIBpH0HDNG8jj3SGe++9VzfksHJeFqFJxNxwbAnQzufrz3/+s75G9Aa1n/gLgSZxmdCOEWjqhmcT+7ceeOCB5q90YBLRkzjbbLPp1R6boRPtKB/K8vtFc5iPInTRHHpCXZJmdQ2mUrvzzjvV66+/rv/fCKQVNlKmTJliYkk3EfZQpPUep9HNz5cvg9F18MEHqzXWWMPEtAFXLw0pHZhfiN7AvMAkXn755erzzz83Mflp9vnC7wjqjrvvvtvEtBOawzKDLXrOPfdc81djsHANFntphk60o3woy+8XzWE+itBFc+gJdUma1dXOSu2TTz7RFcr1119vYhsQDv1x/NqGw1jkR7EhNrGhW3pYSy1uvBje4mrcxofqxI4JrysR7HG50nI0rpNDe0zDpX4Oea74UB0R9Eliw5hAOFQvEpl2Hnl/sznjjDPUrLPOav7KTzc/X74MRtfo0aP18/zNN9+Y2BYRlp8cw81I5xkxYoRY0CMPnXi+Fl98cb1tQfuhOSwreJGM36FwMaW8tLuepzkMqLquNDqpi+bQE+qSNKur3ZXacsstp/bbbz/9/4aY+Q59fTFTZQyPNC8mLvLLLOdm1O5RaIDiczyiBs1hnBLHuHpMYnG50kqcJ6krOE92WiH6/DFDHJ4z2mAJrqMWbCKORo3DVDYAq9Ni3psv3fx8+TIYXc8995zOV/xLSAgWKsIWMz504vnCsGgEQkIwOgl1GlbQ9aHd9TzNYUDVdaXRSV00h55Ql6RZXe2u1LAsNba0yIUxQVjqW5gUxPf3C/PiNFHG4IRvT4Nj3AsEhMdkGaz6W1iXOYvF5Ukr/p0g7ZoZjuhyXo8r/Rq5zKH+Lgx3xByaONe1ivueAXqr0GuIuUq+dPPz5ctgdCEPfJ9n0t2EZeKqq64yMfnoxPOF/ey+//3vmxhCgj0OF1tsMfNXftpdz9McBlRdVxqd1EVz6Al1SZrV1e5KDfMBUKlg/mFDQhOEfyMuBSaof3zUvKQPC9KGycRrw5YwT9FjGpwn/K7LnMXiGqel/7Df0b13NYM2PtaLp4+JGTdX+jXENdZJ3qe+gfExnTHTqvEzh6NGjdKLE2HZfF+6+fnyZbC6Vl11VTVy5Ej9f0KwfQXq23/84x8mJh+deL7uuOMOfa2NFs4hvQO2sHBtY9GIdtfzNIcBVdeVRid10Rx6Ql2SZnV1olJbaqml1E477WT+yqBugmBUQjMU/j9pelBZOYNxOHnNoTRJAa02h/V45xBPl75Y+jUamsN6em4THPR2RtPIbw4xpwl7HPL5snRCF/Y5xPNFCDjrrLPUXHPNpf73v/+ZmHx04vnCnHS8YLrxxhtNLOllvv76a73yqM9iNCHtrudpDgOqriuNTuoaEiaeFpAIguuzrDBt2jRnfKOAicCu+KzQTFrUJUO7daFSu+KKK5yfu0IRui688EK9ae2bb75pin8KMfNUNzjBf5LmsIGTcRu26HfTz5Nm6urE4hqnVSP8jjaE5rsOcxiYtkjvoSv9GtnmMEg7OK9Dp0nXGuPo/c3m8ccfr13PEHX77bfz+YqETuh65JFHdF50ZksAUjbWXHNNteuuuybKS6PQqecLL5jaux0LKSv33HOPrssmTZqUKC+NQrvr+U60o3xC0b9fDz/8sM6bV199VcRXXVda6KQumkPHZ1mBumRoVlcnKrUvvvhC/fCHP1Rbb721+RlIIWqC8H+zSXFgWKR5cRujwASFhidhsjR5zhMckzZXUBOLy5NW+J3+Wpr1cyfMYfAdYeRc6dfINIf9te/UP0uaQ/1dcc7YtWaw8sorq6FDh+q85fNlQyd0YRsC7FN3/PHHm9whvcpbb71Ve6aHqLFjxybKS6PQqefr4osv1ttuIG3S2+y22256a55OlEOfgLR6zRyGLyFpDrNDEbo4rNQT6pI0q6tTwyFuu+02XbngDVQqwgQZk1Q3OHHzkjRRgUGLGzZpoBKGypizTOOU2xw2SEt/J3bumDl0mswmzCHSsZJi5jDRawjymUNsn4Bzhz1VfL4sndK1//7761WBSW9z9tln62F5n376qYnJT6eer/fff19961vfUjfddJP+m/Qm4ZBSvNSsQj3fqXZUXor+/dpuu+307z6mMUSpuq40OqmL5tAT6pI0q6uTldq6666rll12Wf1D4CRmgmB+soc9WiOUMF01QrOI1U/rxyTMFIidJ35MbnPYIC1jDoUpE+bQXEfcoTVjDkW8NIcJ86tx3V8JNsmeZ5551A477GBimi+HvlTl+fKlCF3YEwzl6sknnzQxpNfAHEOMzsDc7qo9X+H8ZdK7DAwM6Dps4sSJlajne8kcXnLJJTpvjjjiCP0vppOEVFlXFp3URXPoCXVJmtXVyUrtmWee0ZXLRRddZGJaS2jYMvxOYbQzrU5x9NFH6/KDIRAhfL4sndIVGoNmVvkj3QEabKhbH3300co9X9dee62+du7X2bssv/zyapNNNuloOcwL0uoVc4hVj7/zne+ok046Sf+977776h7ecGGaqupqRCd10Rx6Ql2SZnV1ulLbZptt1Jxzzqk+/PBDE9M6aA6LA4sJYVGh+LASPl+WTur64x//qIfnvfzyyybGj6D8xocaA9PrHB/qHA7HDkOsy1n3Ttfigl5qE1y99vHzxI4JrysRIsflSUufJxYXHB/VFR+JYIL+Xngf3EHLd/Twh9dvb0/aeQZXd/z4xz/W25qAqj1f2JsRe9tFRyQ0iygDCCLPg3sfH42CY55LK2cIQeYmR1aEZTeMjJdlE8Qz5RoFIkaPhMTLoqt8pBxjRqg4Q3g/Uo4JrzX5bOAy42W5GB588EF9XvzbyXKYF6TVC+YQ8+eWXHJJtdFGG9VXP4aGlVZaSYdQU9V05aGTumgOPaEuSbO6Ol2pvfvuu2qRRRZRm266afrw0oIIfswG1+jKSzvTajdYUGiVVVZRyyyzTCJf+XxZOqnrq6++UgsuuKDac889TYwfgXnCHmPSQIUNV9FQNHG20WsMT+S79UZ6vSWZPCZsoGadJ7gueU3xuDxpJc7j0KXP0yCtgKBRLhr9INHwt4136x9q54vXEy7D4MFTTz2l07jzzjv131V8vjCa5Nvf/rZ6++23TYw/yfwz9z9WLsJ8Q14k8rCGqxyE54oao0S5c5k8nbeRZ8eV1/HvhWUzcqIgrcj3Es9goCd+bmd5M1qkdnlvwr/j2lz3a7BgSHH4YqPT5TAPSKsXzOGvfvUrNd988+l5wVHQa4jew9/+9reV1JWHTuqiOfSEuiTN6ipDpYbFTLBC3S677GJiSFmBgR82bJiae+651eTJk02shc+XpdO6fv/736sZZphBvfPOOyYmP6EJGuhP9hb09ffXGobZJipsPIZtyURjFohjYo3PkNh5wuuKphWPa5xW/DumIVwzw7bh7r4eV/ruxnWNWMM/uE+1+xe/L/HzDdIcbrnllmJBoio+X1h1F/OZDzjgABPjS9K8AXm/owYIx8uyHuLMo/j5jenrcxgocQ3xuBzmMCv9sMy5y2USfVyD9AKi98ZQP848GznS8+WFF16oXd8QdfPNN+u/O10O84C0ut0cYp4hXtY89thjJkYSLjCIfKuSrrx0Mr9oDj2hLkmzuspSqWGODIbBcQn+crPjjjvq4aTonXDB58vSaV1ffvml7pXffffdTUx+wsbm+Nq/toGIRmGtAT0ejcSwIZ1ijGKNS93Ala3PGvHGefp5wu+6GsHxuMZpxb4TNtBNAz+8BFdD2pV+6rVHG/66YR3eu7g5iJkSl2HISbjnKBYlCqnq83XppZfqugb73A2OIH90rx5CPf8iZQL3PJGvAY3NYXie8aKsBnkuTVdQpiL57cpr8T1Z/qPY60o/Jo6rTLvTiNybCDpNfR9jZbYgsCXSaqutZv5iOypOu3WB+DzDNLBKNnoQX3zxRROTn07o8qGT+UVz6Al1SZrVVaZK7YwzztA/PFdddZWJIWUCxh35E77VdcHny1IGXeFG0lGzkIe6CUJDNWwYh/8PjY6OjDW8YyFsXOY1h8n2rWy4usxZPM7PHEbiXUbNpS+WfnhMvCEdnC9oiNevyWEYwmsTaTRhDjGUeKmlllK//OUvTUxAVZ8vzGtaffXV1YYbbmhi/LBGphZMnum4ev5F7nsiTy3yOyGR8lrPZ1lWw7y2eRoEUU70d5PHIASnkeU2ir2u9GPiuM2hwXEtiXOGmmQBLoSrr75aTTfddLr3MKQM5bARSKtbzaFrnmEa0LPiiivq6Sb4ng/t1uVLJ/OL5tAT6pI0q6tslRp6pvADcffdd5sYUgauueYa3Vg47rjjTIwbPl+Wsujaaqut1OKLL657EvMizVNgmBCnG4sOc9ioYVo3R4Lod9POIxu+cSMI4nGN04p8Bw3i8Lu6cSzNoT5XpDHtSj/12kPToO+XOYfDHOpzRtMNv2f+zMsJJ5ygh+fHy2qVn6/nn39ejyi58sorTUxOHPcZSKMXKVuOvA+R3wkJ8jwcYhmkE/w/bg7lNcTKiiuvxfdi54xgy3n6MXGCsuYqW8F12XNE7k0dkw6OS+gaHJjH9r3vfU8deOCBJiagLOUwC6TVreYwbZ5hGtgUH72H+M3xod26fOlkftEcekJdkmZ1la1Sw9tvzD3Ej8+ZZ55pYkmnwNtCLFeN/Pjd735nYtPh82Upi6633npLm4Zjjz3WxDQmaoLw/76BgVrj0TSedeM1bEinNUzDxrP5K2ayNHnOE2tgu8xZPK5xWuF3+lV/Lc16knGDYNKONpBd6Yda08xhf+166p/F9ITfFbqbMIdolE0//fR64/s4VX++Ro4cqeaYY47cDVSN8x6ae13Pv6gBSivHOFX0OyGmfPfX0omdr36ORF4HWFOn/0gpq/Z7WemH5cp9TBJdfh1lK4iPlH2jJVH2zTHOZ2wQ7Lzzzmr++edXn376qYkJKFM5TANpdaM5PP/88zPnGbqAJowswgsdny3K2p1fvnQyv2gOPaEuSbO6ylqpYQ89GBKMY280nIG0BuQzFulARY+tEfLA58tSJl140YIe+fHj8zXnhAkyjVXZ6M02UfHGatCYjJzDND5FY1w3lKPnMcdEzuMyZ/G4PGkFDV157iB9q8vVAHalXzsywxzGzhFr+AfXEW2U13Aam3TQI7zCCiuopZde2rnic9WfLwxRg3HAita5fwvSyqTIj5gBiuVNSLwsBxijKY6PlTPn+WJlJYc5DP+Olt9E2XToDc4ty1ZQ3uJly2gRFxq7N/Hrdn6nOcaOHavv4/XXX29iLGUqh2kgrW4zh3nnGcYJdeFFJBZDmzBhgvkkm3bnly+dzC+aQ0+oS9KsrjJXahdccIE2Jr/+9a+bSpM0DxpkG2ywgV4QAiuR5YXPl6VMurB3HBZ7mHfeedWUKVNMbDrSBAUNRdlYjRmasAEbhlhjOmxgD9Qb6LXgaljGzxM7xmXO4nF50goaybGGe7Qx7Wps13Cln2w4G4w5FPHmvEG6KQ1sT3OI/QDRMxydqxWlG56vhx9+WPdiHHPMMSYmB+b+R8tAkO9h2Y0bIHwFx8p7n2kORbzbHIprQIjmtyuvRRkJMemFIXE9IHZM/BmtEeiX6cl7EhK9N0ZX/Dpd5duTl156Sc0888xqu+22MzGSspVDF0irm8xhOM9w4403NjH5CXXh9wZ7rWIO9Oeff24+Tafd+eVLJ/NrCE6SFZBhCK7PssJHH33kjG8UsEy9Kz4rNJMWdcnQbl2o1EaNGuX83BXarWvMmDHqu9/9rlpzzTUHtecVyQ9WG0OlvtBCC6m//e1vznxJC3y+bCibLjw/WL0Ue4g180M3GNwN7NbQzrQ6DYZ+oYF+ww03OPMcoVuer9NOO01rveuuu4x6UmU+/vhj9YMf/ECtvPLKqeWmjOUwHpBW2dtRPrqwoBXmGb7++uvOz7NCVBf2P8Q80m233TZxXDy0O79c8Vmhk/nFnkNPqEvSrK4qvPF688039bCpueaaSz344IPmE9IKrrvuOt0Lsf7666sPPvjAxOaHz5eljLqwwAd6g/faay8T0x5oDosHQ4QxVPjwww83MW666fnaeuut1ayzzqomTpxoYkgVwfBgDBPGb/rUqVNNbJKylsMoSKtbeg6j+xkWUW889NBDevTXFVdcYWLctDu/fOlkftEcekJdkmZ1ValSGzFihH5zfNRRR5kYUiR77723vr9YeIbPl6SbdOEFAPL5rLPOMjGth+awWDAcDw3rTTbZRA/hyqKbni8MUcOLQqy+m2UqSLnB3qt4sfHoo4+aGDdlLYdRkFY3mMP4PMOi6o0jjzxSnzdr/mG788uXTuYXzaEn1CVpVlfVKrU77rhDzTPPPGqxxRZTN910k4klgwFv9bDgA+4phpECPl+SbtMFYwiDiHm9pFq89tprug7E8OD46o4uuu35gimEOcTQ93fffdfEkqqA1a/RO5Xn97vM5TAEaVXdHGLIZHw/w6LqDaxAv8Yaa+jn9YsvvjCxknbnly+dzC+aQ0+oS9KsripWaqjIDjnkEH3tmPT89NNPm0+ID+PGjdMb1mJBAOyRFq24+XxJulHXKaecog3iZZddZmJI2cE8HrzIgTHEnK08dOPzhe1Z8DIL9Vczw99JZzjooIO0Mbz22mtNTDZlL4cAaVXdHLr2Myyy3sB8d2xHgx5jF+3OL186mV80h55Ql6RZXVWu1LC3F4ZVYUz7b37zGz2JlzTmlVdeUZtvvrk2BlglznXf+HxJulUXXrLg+bn66qtNDCkrMIYLL7ywHlaZ1xiCbn2+UP9jgaUVV1zR636QzoDhhahr8hpDUIVyiLSq3I6KzjOMUnS9ce+99+o2x8DAgImxtDu/fOlkftEcekJdkmZ1Vf2NF8DqdRiygHHtWOr8s88+M5+QKHgriCE92Cx7pZVWUo8//rj5JAmfL0k36zrssMN0o+2MM84wsaRsYJsKbEOCes63p6ybn69JkyapBRZYQC277LJ64TJSPjAndrfddtPGIO9+uSFVKYdVbUdl7WfYTFqNdB166KF6pBJe7ERpd3750sn8ojn0hLokzerqBnMIcE3Y6Hu22WbTwyMuv/zyhgs19Ar//e9/1emnn65mn312PVfp0ksvbbiZNJ8vSbfrOuecc/Tb45133rmp9EnruPvuu3WDCvuOYiEaX7r9+cIQ0+WXX17NPffcmS+8SPvBnFisSgoD4tNjGFKVcljFdpRrnmGUZtJqpCucf7jccsvpdklIu/PLl07mF82hJ9QlaVZXt5jDEOwr09/frxcswBAs9Ir8/e9/N5/2DqjssXH0PvvsoxtNqIwxfCRvPrS7HPpSlefLl07qwjYx2CZgvfXW4zC9knD22Wdr046el6+//prPV4RoWljFFEPlZ5hhBjV27FgTSzrJlClT1I9+9CPd443f4G4uh1VsR7nmGUZpVX6F8w8xiimk3fnlSyfzi+bQE+qSNKur28whQFowR3feeaf6yU9+oofMLb300urEE0/UK/11M88884w2xJiLg6XCt9xyS/XAAw+YT/PT7vzypSrl0JdO60LPFMrOD3/4Q70JMukMMIIwhHiGzzvvPBPL5ytKPC3U+UcccYSu708++WQTSzoBzCBMIXp0YRJBN5fDqrWj0uYZRmllfoXzD2+55Rb9d7vzy5dO5hfNoSfUJWlWV7eawygY377//vvrIaeokFZbbTX1+9//vv6jVXVgeLHaKAww9KGnEJP/oa+K+ZUH6pIUqQtvkrEKMPbRu/XWW00saRd4s77xxhurWWaZRd1///0mNoDPlyUtLSyuhHrwl7/8pR5JQtoLtkbCMOi+vj4x/7+by2GV2lFZ8wyjtDq/DjjgAN0mw0Jb7c4vXzqZXzSHnlCXpFldvWAOo7zxxhv6rTKMFN7Ko2dx9OjRufYLKxNYlOKiiy5S6667rm4IYWl7GN533nnHHBFQ9fxKg7okrdCFHmiUrV133bVyz0dVgbHBkKtVVllFryoch8+XJSutJ554Qk8twGI1cYNNWgN+e37xi1/oOuPUU081sZZuLodVaUc1mmcYpdX5heOwMN7KK6/c9DSGXqgPaQ49oS5Js7p6zRxGeeqpp9SBBx6ox91jBU8Mgdl+++31nEUsAlGGrTFQgWN4H3pwMCx2m2220UP+MCTk+9//vjrqqKOcjciQbsqvKNQlaZUuzFtdaKGFdFn761//amJJ0aCHa+utt9YvrI4++ujUMsDny9IoLcxD3HvvvfUw0/322y91A24yeO644w71ve99T+87mTbHv5vLYVXaUY3mGUZpR36h1xC9hxjZ1Qy9UB/SHHpCXZJmdfWyOQyBAfvnP/+pxowZoxtmWNhgwQUX1G9A55xzTjV06FBdeWGzcKyGh0ZHK8BbvUceeURdeOGFaq+99lLrrLOOXiAE14HG+RZbbKGOP/54bRRRqeahG/MLUJeklbo++eQTteOOO+oXEocffnhT10fS+dOf/qQ3tl9iiSXUk08+aWLd8Pmy5E0L85vCbUB6cXGyVoIRBRhZAAOODe6jK1DG6eZyWIV2VJ55hlHalV+33XabbuPghbwvvVAfDsEfWQHzhxBcn2UF9H644huFiRMnOuOzQjNpUZcM7daFSg0LHrg+d4Veyq8JEyao66+/Xh177LFqq6220j12qMQQMGYfb0oXXXRRvcfWmmuuqYdqYFgNeh9HjBihNxg/7rjj1MEHH6z23HNP9etf/1obvA033FDPe8RKblj8AwY0PC8CzrfttttqI3jzzTfrOYW4nm4uh674rEBdMrRDF/Yo++53v6sb2bfffrv56SLNgi0Y8JzjmYf5xggB132PBpZDG3zSwsu/n/70p7pnFqskvvfeeyYXSDPgheqVV16pX6Ji6C5eWLruezR0czksezvq0Ucf1fUMFmxyfe4K7cwvbKGE4fS+978X6kP2HHpCXZJmdbHnMMBHF+b7oSGHlUHvu+8+vXQ6Gs6Y8wdDN3LkSLXTTjtpo4iFJTAxf5dddtFDWDE09Nxzz9U/JPhBxbC9Z599VvcENlo8oZvLoS/UJWmXLjSq8eIDjWzsu4fFDYgfGCGAHtgZZ5xRz7fx2ZuP5dDSTFqoq/GSD3u+nnHGGerLL780n5C8oOcJWyPhBSmmNUQXncmim8thFdpRvquWtzu//vKXv5i/8tML9SHNoSfUJWlWF81hAHVJqEtCXRakhS0vNtlkk/oefFOnTjWfkjSwPcXFF1+s5plnHj2P86qrrmq4KEQclkNLs7rwPbygw4iNxRZbTN1www3mU5IFejOGDx+ue6CwRRJ6Unzo5nLIdlQAdUmK0EVz6Al1SZrVxUotgLok1CWhLks0rXvuuUcvQoFehH322Yd7IzrA/brgggv0nEIs8Y+h5hh90Awsh5bB6kIeYDl9LEa24oor6pViv/rqK/0ZsTz//PN6qgTu0+qrr64XcmM5tCAttqMCqEtShC6aQ0+oS9KsLlZqAdQloS4JdVniaX3zzTe69wXzaNGTiF4Frmyq1LvvvquOOeYYvV8kAv4frhLIcijppC7MC4JJxL6S6NE966yz9CJMvQ5e/GAePXoK8S/+DmE5tCAttqMCqEtShC6aQ0+oS9KsLlZqAdQloS4JdVmy0vrzn/+shg0bphuU6I3BPNxeWvwDPU9YfQ8LWM0wwwx6lWHML46vcMxyKCmDLuy1dsopp+iVTWEUsUgGyrPv0N8qg0WSMC/+Bz/4gZ5XjAWTXCu8shxakBbbUQHUJSlCF82hJ9QlaVYXK7UA6pJQl4S6LHnSwgq72BYGq/FiOBpW6b3pppsyl7qvMmhAY8EpzCfEQjPYTwxLs6NX1QXLoaRMulBGUVZ//vOfa4OEFanR6ztp0iRzRHeBBWWw8igWmMKWFFiwB5vYZ+UJy6EFabEdFUBdkiJ00Rx6Ql2SZnWxUgugLgl1SajL4pMWzNGDDz6ot3GZaaaZ9IbHWL0Xe25hOF9VQU8gtvP47W9/q+cSoqd0jTXWUBdddJHugWoEy6GkrLreeecddeaZZ+p5tchjrNJ56KGH6jJd5Rcd2NoDvfrY3gPzhbF6K7ZbyrsHHsuhBWmxHRVAXZIidNEcekJdkmZ1sVILoC4JdUmoy9KsLiwActlll6l1111XN7QR0EuB+V6Yz/TFF1+Yo8sJtu3A9geYf4Uho7h+7PEGs4CeUh9YDiVV0PXkk0/qlwHhvrRYXGjzzTdX559/vnr11VfNkeUEm9VjGw9sQ4PefFw/5gejLF9zzTXezx7LoQVpsR0VQF2SInTRHHpCXZJmdbFSC6AuCXVJqMtShC4s1oJFbNDYRm8MhrOhLlpllVV0DwZ6Fp944omO7UOHZftxfdg0etNNN9ULyqBBPffcc+v5hJhHiP1J0XvEcmjpBV3YkgR7U+JFAcwhet1QNuabbz7997HHHqvnnXaqZxy92tj0HGUU++3i+cLwWJhBPF8HHXSQuuWWW9SHH37IchijWV1sRwVQl6QIXTSHnlCXpFldrNQCqEtCXRLqsrRCFxqqGKaJbR4wP3HBBRfUDW4EbBS/9dZb60YthsLdeOONunHuu89aFMyzeuGFF/S8wEsvvVT97ne/0w1pzLvC0Feki56hddZZR40cOVL98Y9/VM8995z5tqVX8yuNXtWF7R0wpBg9c1i1Nyy7eKmA/UCxF+jxxx+vrrjiCnX//ferF198cVA95W+++aYeAjowMKCHve6///56uPayyy5bTxt7OOK5wSI79957r5o2bZr5toXlUNKsLrajAqhLUoQumkNPqEvSrC5WagHUJaEuCXVZ2qULvYvogTnttNN0oxuroKIXJOypCQPmMqIRvvDCC6ulllpKrbTSSmqttdZS66+/vlp11VX1fDGsGopVKEPjFw1oROPY7bbbTi+ig2F2EyZMMFeRDfNLQl0WLFJ0zjnnqMMPP1yXLQynDod0RgPKM3odF198cW3uYC6HDh2qyzBW/F1yySX1FhsYzor5gdHvotyjvKPHcq+99tLbcGCF1TzzXgHzS9KsLrajAqhLUoQumkNPqEvSrC5WagHUJaEuCXVZyqALQ+ewqMZDDz2k7rzzTt2bOHr0aD0cFQ3yI488Ui/Jj8byhRdeqHv+xowZo80mem4wf2zq1KnmbAHMLwt1SYrWhSGn48ePV/fdd58e4nndddfpXsULLrhArxSKsouXIueee67u2cYG/VhB9a677lLjxo1TL7/8sjlTAPNL0m5dbEcFUJekCF1DcJKsgCEBCK7PssJHH33kjG8UUHm54rNCM2lRlwzt1oVKbdSoUc7PXYH5JQN1yUBdNlCXDdQlA3XJQF02UJcNVdFV3nbUOHWS6WXeYvQk+dm4k2rxJ6lx0bj/N0mN3sL0TG9+hZokPmscqpJfrvis0Eld7Dn0hLokzeriG68A6pJQl4S6LNRloS4JdUmoy9LNukrfjnruEtVXM3x9AxF94/trJrBfjTd/gvH9NVPYN6BwVDfnly+d1EVz6Al1Sbq2UmN+1aEuC3VJqEtCXRbqslCXhLokzeqqQjsqavw0cXP47wFtIPtNRDfnly+d1EVz6Al1SZrVRXMYQF0S6pJQl4W6LNQloS4JdVm6WVcl2lEx8xc3h9o8Rv4O0vq3GuiL9Tia89QXRqqfMND16ClBXHA+E6KmtMa/B/pEHNIKju9T0aQa0QvlkObQE+qSNKuL5jCAuiTUJaEuC3VZqEtCXRLqsnSzrqq0o4QBjJpDY/iiJjBIK24Ox6t+cVzweWgQoUmbQ2EazTERM5gwh5NGG8NJcwiiumgOPaEuSbO6aA4DqEtCXRLqslCXhbok1CWhLks366pSO0obM23EoiFpyoK0pDmMmzqNNpnB96EpMIeR4aog1mspz/NvvQgO9umkOQyI6qI59IS6JM3qojkMoC4JdUmoy0JdFuqSUJeEuizdrKsa7SjTgxcasEjPYWgYs3sOZS9hnYjxg6ZwWKkkw2Tq6zhJjY+YzLz0QjmkOfSEuiTN6qI5DKAuCXVJqMtCXRbqklCXhLos3ayrCu2o0ADWfVt0WKn+U/YgBmmFhjISEsYvGGranDkM4rHNRrQHMi+9UA5pDj2hLkmzumgOA6hLQl0S6rJQl4W6JNQloS5LN+sqfTvKbGUhTFvMHIYmL+zRC9KKmjpjFOPGL1fPoZyrWDeHuIbav9hPkebQEtVFc+gJdUm6tlJjftWhLgt1SahLQl0W6rJQl4S6JM3qKns76q6ja4YtbrwS5rCmP9K7GKSV1uMXIWLqoCl9zqFNPzhPv+qvnbueFs1hnagumkNPqEvSrZUa88tCXRbqklCXhLos1GWhLgl1SZrVVep2lDZd1uDVcZjD2h0Iegdr8eN0WtIc1r4UW63U9DaankJoCsyhjaufM9KbGJpQ0UtJc1gnqovm0BPqknRlpVaD+WWhLgt1SahLQl0W6rJQl4S6JM3qKm87ypi3IUfHTGANpzmsYczkkJPG1f6Im8MaZhipPgYhYvqgSZvDmukbiO5zGDkGRHsogdZFc1gnqovm0BPqknRfpRbA/LJQl4W6JNQloS4LdVmoS0JdkmZ1sR0VAE2hOfRJsQq6OpVfQ8LE0wISQXB9lhWmTZvmjG8UpkyZ4ozPCs2kRV0ytFsXKrUrrrjC+bkrML9koC4ZqMsG6rKBumSgLhmoywbqsqEqutiOCgI0jTupZg6HX6vecnyeFqqgq1P5RXPo+CwrUJcMzepC1/7w4cPVsccemyscc8wxOrg+ywpHHXWUM75ROOSQQ5zxWaGZtKhLBuqSgbpsoC4bqEsG6pKBumzoZl1oR9EcBrpoDm0oQheHlXpCXZJmdW266aZqgw02yB2GDh2qg+uzrLD++us74xuFddZZxxmfFZpJi7pkoC4ZqMsG6rKBumSgLhmoy4Zu13XvvfeallVj2O6VUJckqovm0BPqklCXheXQQl0S6pJQl4W6LNQloS4JdVmoy0JdkiJ00Rx6Ql0S6rJQl4W6JNQloS4LdVmoS0JdEuqyUJeFuiRF6KI59IS6JNRloS4LdUmoS0JdFuqyUJeEuiTUZaEuC3VJitBFc+gJdUmoy0JdFuqSUJeEuizUZaEuCXVJqMtCXRbqkhShi+bQE+qSUJeFuizUJaEuCXVZqMtCXRLqklCXhbos1CUpQhfNoSfUJaEuC3VZqEtCXRLqslCXhbok1CWhLgt1WahLUoQumkNPqEtCXRbqslCXhLok1GWhLgt1SahLQl0W6rJQl6QIXTSHnlCXhLos1GWhLgl1SajLQl0W6pJQl4S6LNRloS5JEbpoDj2hLgl1WajLQl0S6pJQl4W6LNQloS4JdVmoy0JdkiJ00Rx6Ql0S6rIwvyzUJaEuCXVZqMtCXRLqklCXhbos1CUpQhfNoSfUJaEuC3VZqEtCXRLqslCXhbok1CWhLgt1WahLUoSuIThJVpg2bZoOrs+ywkcffeSMbxQmT57sjM8KzaRFXTJQlwzUZQN12UBdMlCXDNRlA3XZQF0yUJcM1GUDddnQSV3sOfSEuiTUZaEuC3VJqEtCXRbqslCXhLok1GWhLgt1SYrQRXPoCXVJqMtCXRbqklCXhLos1GWhLgl1SajLQl0W6pIUoYvm0BPqklCXhbos1CWhLgl1WajLQl0S6pJQl4W6LNQlKUIXzaEn1CWhLgt1WahLQl0S6rJQl4W6JNQloS4LdVmoS1KELppDT6hLQl0W6rJQl4S6JNRloS4LdUmoS0JdFuqyUJekCF00h55Ql4S6LNRloS4JdUmoy0JdFuqSUJeEuizUZaEuSRG6aA49oS4JdVmoy8L8klCXhLos1GWhLgl1SajLQl0W6pIUoYvm0BPqklCXhbos1CWhLgl1WajLQl0S6pJQl4W6LNQlKUIXzaEn1CWhLgt1WahLQl0S6rJQl4W6JNQloS4LdVmoS1KELppDT6hLQl0W6rJQl4S6JNRloS4LdUmoS0JdFuqyUJekCF00h55Ql4S6LNRloS4JdUmoy0JdFuqSUJeEuizUZaEuSRG6aA49oS4JdVmoy0JdEuqSUJeFuizUJaEuCXVZqMtCXZIidNEcekJdEuqyUJeFuiTUJaEuC3VZqEtCXRLqslCXhbokRegagj+ywpQpU3RwfZYVJk+e7IxvFCZOnOiMzwrNpEVdMlCXDNRlA3XZQF0yUJcM1GUDddlAXTJQlwzUZQN12dBJXew59IS6JNRloS4LdUmoS0JdFuqyUJeEuiTUZaEuC3VJitBFc+gJdUmoy0JdFuqSML8k1GWhLgt1SahLQl0W6rJQl6QIXTSHnlCXhLos1GWhLgl1SajLQl0W6pJQl4S6LNRloS5JEbpoDj2hLgl1WajLQl0S6pJQl4W6LNQloS4JdVmoy0JdkiJ00Rx6Ql0S6rJQl4W6JNQloS4LdVmoS0JdEuqyUJeFuiRF6KI59IS6JNRloS4LdUmoS0JdFuqyUJeEuiTUZaEuC3VJitBFc+gJdUmoy0JdFuqSUJeEuizUZaEuCXVJqMtCXRbqkhShi+bQE+qSUJeFuizUJaEuCXVZqMtCXRLqklCXhbos1CUpQhfNoSfUJaEuC3VZqEtCXRLqslCXhbok1CWhLgt1WahLUoQumkNPqEtCXRbqslCXhLok1GWhLgt1SahLQl0W6rJQl6QIXTSHnlCXhLos1GWhLgl1SajLwnJooS4JdUmoy0JdFuqSFKGL5tAT6pJQl4W6LNQloS4JdVmoy0JdEuqSUJeFuizUJSlC1xCcJCtMmzZNB9dnWeGjjz5yxjcKkydPdsZnhWbSoi4ZqEsG6rKBumygLhmoSwbqsoG6bKAuGahLBuqygbps6KQu9hx6Ql0S6rJQl4W6JNQloS4LdVmoS0JdEuqyUJeFuiRF6KI59IS6JNRloS4LdUmoS0JdFuqyUJeEuiTUZaEuC3VJitBFc+gJdUmoy0JdFuqSUJeEuizUZaEuCXVJqMtCXRbqkhShi+bQE+qSUJeFuizUJaEuCXVZqMtCXRLqklCXhbos1CUpQhfNoSfUJaEuC3VZqEtCXRLqslCXhbok1CWhLgt1WahLUoQumkNPqEtCXRbqslCXhLok1GWhLgt1SahLQl0W6rJQl6QIXTSHnlCXhLos1GWhLgl1SajLwvyyUJeEuiTUZaEuC3VJitBFc+gJdUmoy0JdFuqSUJeEuizUZaEuCXVJqMtCXRbqkhShi+bQE+qSUJeFuizUJaEuCXVZqMtCXRLqklCXhbos1CUpQhfNoSfUJaEuC3VZqEtCXRLqslCXhbok1CWhLgt1WahLUoQumkNPqEtCXRbqslCXhLok1GWhLgt1SahLQl0W6rJQl6QIXTSHnlCXhLos1GWhLgl1SajLQl0W6pJQl4S6LNRloS7J4HUp9f8BRxJ4VaXFYqIAAAAASUVORK5CYII=;" vertex="1" parent="1">
          <mxGeometry x="-1354.003333333333" y="490" width="903" height="722" as="geometry" />
        </mxCell>
        <mxCell id="bgL4n8ZKiBeQEnYVn7Eq-78" style="edgeStyle=orthogonalEdgeStyle;rounded=0;orthogonalLoop=1;jettySize=auto;html=1;" edge="1" parent="1" source="bgL4n8ZKiBeQEnYVn7Eq-60" target="bgL4n8ZKiBeQEnYVn7Eq-68">
          <mxGeometry relative="1" as="geometry">
            <Array as="points">
              <mxPoint x="-73" y="1992" />
              <mxPoint x="-73" y="1992" />
            </Array>
          </mxGeometry>
        </mxCell>
        <mxCell id="bgL4n8ZKiBeQEnYVn7Eq-79" style="edgeStyle=orthogonalEdgeStyle;rounded=0;orthogonalLoop=1;jettySize=auto;html=1;" edge="1" parent="1" source="bgL4n8ZKiBeQEnYVn7Eq-60" target="bgL4n8ZKiBeQEnYVn7Eq-66">
          <mxGeometry relative="1" as="geometry">
            <Array as="points">
              <mxPoint x="-76" y="1992" />
              <mxPoint x="-76" y="2078" />
            </Array>
          </mxGeometry>
        </mxCell>
        <mxCell id="bgL4n8ZKiBeQEnYVn7Eq-80" style="edgeStyle=orthogonalEdgeStyle;rounded=0;orthogonalLoop=1;jettySize=auto;html=1;entryX=0;entryY=0.5;entryDx=0;entryDy=0;" edge="1" parent="1" source="bgL4n8ZKiBeQEnYVn7Eq-60" target="bgL4n8ZKiBeQEnYVn7Eq-67">
          <mxGeometry relative="1" as="geometry" />
        </mxCell>
        <mxCell id="bgL4n8ZKiBeQEnYVn7Eq-60" value="участник" style="shape=umlActor;verticalLabelPosition=bottom;verticalAlign=top;html=1;outlineConnect=0;" vertex="1" parent="1">
          <mxGeometry x="-187" y="1962" width="30" height="60" as="geometry" />
        </mxCell>
        <mxCell id="bgL4n8ZKiBeQEnYVn7Eq-70" style="edgeStyle=orthogonalEdgeStyle;rounded=0;orthogonalLoop=1;jettySize=auto;html=1;" edge="1" parent="1" source="bgL4n8ZKiBeQEnYVn7Eq-61" target="bgL4n8ZKiBeQEnYVn7Eq-69">
          <mxGeometry relative="1" as="geometry">
            <Array as="points">
              <mxPoint x="20" y="2366" />
            </Array>
          </mxGeometry>
        </mxCell>
        <mxCell id="bgL4n8ZKiBeQEnYVn7Eq-61" value="внешний пользователь" style="shape=umlActor;verticalLabelPosition=bottom;verticalAlign=top;html=1;outlineConnect=0;" vertex="1" parent="1">
          <mxGeometry x="-190" y="2336" width="30" height="60" as="geometry" />
        </mxCell>
        <mxCell id="bgL4n8ZKiBeQEnYVn7Eq-76" style="edgeStyle=orthogonalEdgeStyle;rounded=0;orthogonalLoop=1;jettySize=auto;html=1;" edge="1" parent="1" source="bgL4n8ZKiBeQEnYVn7Eq-62" target="bgL4n8ZKiBeQEnYVn7Eq-66">
          <mxGeometry relative="1" as="geometry">
            <Array as="points">
              <mxPoint x="-110" y="2276" />
              <mxPoint x="-110" y="2090" />
            </Array>
          </mxGeometry>
        </mxCell>
        <mxCell id="bgL4n8ZKiBeQEnYVn7Eq-62" value="модератор" style="shape=umlActor;verticalLabelPosition=bottom;verticalAlign=top;html=1;outlineConnect=0;" vertex="1" parent="1">
          <mxGeometry x="-195.5" y="2246" width="30" height="60" as="geometry" />
        </mxCell>
        <mxCell id="bgL4n8ZKiBeQEnYVn7Eq-88" style="edgeStyle=orthogonalEdgeStyle;rounded=0;orthogonalLoop=1;jettySize=auto;html=1;entryX=1;entryY=0.5;entryDx=0;entryDy=0;" edge="1" parent="1" source="bgL4n8ZKiBeQEnYVn7Eq-63" target="bgL4n8ZKiBeQEnYVn7Eq-83">
          <mxGeometry relative="1" as="geometry" />
        </mxCell>
        <mxCell id="bgL4n8ZKiBeQEnYVn7Eq-63" value="жюри" style="shape=umlActor;verticalLabelPosition=bottom;verticalAlign=top;html=1;outlineConnect=0;" vertex="1" parent="1">
          <mxGeometry x="522" y="2013" width="30" height="60" as="geometry" />
        </mxCell>
        <mxCell id="bgL4n8ZKiBeQEnYVn7Eq-94" style="edgeStyle=orthogonalEdgeStyle;rounded=0;orthogonalLoop=1;jettySize=auto;html=1;entryX=1;entryY=0.5;entryDx=0;entryDy=0;" edge="1" parent="1" source="bgL4n8ZKiBeQEnYVn7Eq-64" target="bgL4n8ZKiBeQEnYVn7Eq-77">
          <mxGeometry relative="1" as="geometry" />
        </mxCell>
        <mxCell id="bgL4n8ZKiBeQEnYVn7Eq-64" value="организатор" style="shape=umlActor;verticalLabelPosition=bottom;verticalAlign=top;html=1;outlineConnect=0;" vertex="1" parent="1">
          <mxGeometry x="530" y="2222" width="30" height="60" as="geometry" />
        </mxCell>
        <mxCell id="bgL4n8ZKiBeQEnYVn7Eq-66" value="регистрация в системе" style="ellipse;whiteSpace=wrap;html=1;" vertex="1" parent="1">
          <mxGeometry x="-38" y="2050" width="120" height="80" as="geometry" />
        </mxCell>
        <mxCell id="bgL4n8ZKiBeQEnYVn7Eq-67" value="изменение информации о профиле" style="ellipse;whiteSpace=wrap;html=1;" vertex="1" parent="1">
          <mxGeometry x="-38" y="2142" width="120" height="80" as="geometry" />
        </mxCell>
        <mxCell id="bgL4n8ZKiBeQEnYVn7Eq-68" value="принятие участия&lt;br&gt;в мероприятии" style="ellipse;whiteSpace=wrap;html=1;" vertex="1" parent="1">
          <mxGeometry x="-45" y="1959" width="120" height="80" as="geometry" />
        </mxCell>
        <mxCell id="bgL4n8ZKiBeQEnYVn7Eq-69" value="просмотр&lt;br&gt;мероприятий" style="ellipse;whiteSpace=wrap;html=1;" vertex="1" parent="1">
          <mxGeometry x="-38" y="2240" width="120" height="80" as="geometry" />
        </mxCell>
        <mxCell id="bgL4n8ZKiBeQEnYVn7Eq-98" style="edgeStyle=orthogonalEdgeStyle;rounded=0;orthogonalLoop=1;jettySize=auto;html=1;entryX=1;entryY=0.5;entryDx=0;entryDy=0;dashed=1;" edge="1" parent="1" source="bgL4n8ZKiBeQEnYVn7Eq-77" target="bgL4n8ZKiBeQEnYVn7Eq-90">
          <mxGeometry relative="1" as="geometry">
            <Array as="points">
              <mxPoint x="399" y="2193" />
            </Array>
          </mxGeometry>
        </mxCell>
        <mxCell id="bgL4n8ZKiBeQEnYVn7Eq-101" value="extend" style="edgeLabel;html=1;align=center;verticalAlign=middle;resizable=0;points=[];" vertex="1" connectable="0" parent="bgL4n8ZKiBeQEnYVn7Eq-98">
          <mxGeometry x="-0.1001" y="-3" relative="1" as="geometry">
            <mxPoint as="offset" />
          </mxGeometry>
        </mxCell>
        <mxCell id="bgL4n8ZKiBeQEnYVn7Eq-99" style="edgeStyle=orthogonalEdgeStyle;rounded=0;orthogonalLoop=1;jettySize=auto;html=1;entryX=1;entryY=0.5;entryDx=0;entryDy=0;dashed=1;" edge="1" parent="1" source="bgL4n8ZKiBeQEnYVn7Eq-77" target="bgL4n8ZKiBeQEnYVn7Eq-91">
          <mxGeometry relative="1" as="geometry">
            <Array as="points">
              <mxPoint x="401" y="2335" />
            </Array>
          </mxGeometry>
        </mxCell>
        <mxCell id="bgL4n8ZKiBeQEnYVn7Eq-102" value="extend" style="edgeLabel;html=1;align=center;verticalAlign=middle;resizable=0;points=[];" vertex="1" connectable="0" parent="bgL4n8ZKiBeQEnYVn7Eq-99">
          <mxGeometry x="0.2084" relative="1" as="geometry">
            <mxPoint as="offset" />
          </mxGeometry>
        </mxCell>
        <mxCell id="bgL4n8ZKiBeQEnYVn7Eq-100" style="edgeStyle=orthogonalEdgeStyle;rounded=0;orthogonalLoop=1;jettySize=auto;html=1;entryX=1;entryY=0.5;entryDx=0;entryDy=0;dashed=1;" edge="1" parent="1" source="bgL4n8ZKiBeQEnYVn7Eq-77" target="bgL4n8ZKiBeQEnYVn7Eq-89">
          <mxGeometry relative="1" as="geometry">
            <Array as="points">
              <mxPoint x="234" y="2252" />
            </Array>
          </mxGeometry>
        </mxCell>
        <mxCell id="bgL4n8ZKiBeQEnYVn7Eq-103" value="extend" style="edgeLabel;html=1;align=center;verticalAlign=middle;resizable=0;points=[];" vertex="1" connectable="0" parent="bgL4n8ZKiBeQEnYVn7Eq-100">
          <mxGeometry x="-0.1488" y="2" relative="1" as="geometry">
            <mxPoint as="offset" />
          </mxGeometry>
        </mxCell>
        <mxCell id="bgL4n8ZKiBeQEnYVn7Eq-77" value="создание мероприятий" style="ellipse;whiteSpace=wrap;html=1;" vertex="1" parent="1">
          <mxGeometry x="343" y="2212" width="120" height="80" as="geometry" />
        </mxCell>
        <mxCell id="bgL4n8ZKiBeQEnYVn7Eq-81" style="edgeStyle=orthogonalEdgeStyle;rounded=0;orthogonalLoop=1;jettySize=auto;html=1;entryX=0.018;entryY=0.622;entryDx=0;entryDy=0;entryPerimeter=0;" edge="1" parent="1" source="bgL4n8ZKiBeQEnYVn7Eq-62" target="bgL4n8ZKiBeQEnYVn7Eq-67">
          <mxGeometry relative="1" as="geometry">
            <Array as="points">
              <mxPoint x="-110" y="2276" />
              <mxPoint x="-110" y="2192" />
            </Array>
          </mxGeometry>
        </mxCell>
        <mxCell id="bgL4n8ZKiBeQEnYVn7Eq-82" value="просмотр информации о активностях" style="ellipse;whiteSpace=wrap;html=1;" vertex="1" parent="1">
          <mxGeometry x="275" y="1962" width="120" height="80" as="geometry" />
        </mxCell>
        <mxCell id="bgL4n8ZKiBeQEnYVn7Eq-85" style="edgeStyle=orthogonalEdgeStyle;rounded=0;orthogonalLoop=1;jettySize=auto;html=1;dashed=1;" edge="1" parent="1" source="bgL4n8ZKiBeQEnYVn7Eq-83" target="bgL4n8ZKiBeQEnYVn7Eq-84">
          <mxGeometry relative="1" as="geometry" />
        </mxCell>
        <mxCell id="bgL4n8ZKiBeQEnYVn7Eq-86" value="extend" style="edgeLabel;html=1;align=center;verticalAlign=middle;resizable=0;points=[];" vertex="1" connectable="0" parent="bgL4n8ZKiBeQEnYVn7Eq-85">
          <mxGeometry x="0.1103" y="1" relative="1" as="geometry">
            <mxPoint as="offset" />
          </mxGeometry>
        </mxCell>
        <mxCell id="bgL4n8ZKiBeQEnYVn7Eq-83" value="просмотр информации об участниках" style="ellipse;whiteSpace=wrap;html=1;" vertex="1" parent="1">
          <mxGeometry x="275" y="2052" width="120" height="80" as="geometry" />
        </mxCell>
        <mxCell id="bgL4n8ZKiBeQEnYVn7Eq-84" value="оценка участников мероприятия" style="ellipse;whiteSpace=wrap;html=1;" vertex="1" parent="1">
          <mxGeometry x="98" y="2050" width="120" height="80" as="geometry" />
        </mxCell>
        <mxCell id="bgL4n8ZKiBeQEnYVn7Eq-87" style="edgeStyle=orthogonalEdgeStyle;rounded=0;orthogonalLoop=1;jettySize=auto;html=1;entryX=1;entryY=0.413;entryDx=0;entryDy=0;entryPerimeter=0;" edge="1" parent="1" source="bgL4n8ZKiBeQEnYVn7Eq-63" target="bgL4n8ZKiBeQEnYVn7Eq-82">
          <mxGeometry relative="1" as="geometry" />
        </mxCell>
        <mxCell id="bgL4n8ZKiBeQEnYVn7Eq-89" value="управление&lt;br&gt;информацией о мероприятиях" style="ellipse;whiteSpace=wrap;html=1;" vertex="1" parent="1">
          <mxGeometry x="111" y="2212" width="120" height="80" as="geometry" />
        </mxCell>
        <mxCell id="bgL4n8ZKiBeQEnYVn7Eq-90" value="добавление активностей в мероприятия" style="ellipse;whiteSpace=wrap;html=1;" vertex="1" parent="1">
          <mxGeometry x="220" y="2153" width="120" height="80" as="geometry" />
        </mxCell>
        <mxCell id="bgL4n8ZKiBeQEnYVn7Eq-91" value="редактирование мероприятий и активностей" style="ellipse;whiteSpace=wrap;html=1;" vertex="1" parent="1">
          <mxGeometry x="215" y="2295" width="120" height="80" as="geometry" />
        </mxCell>
      </root>
    </mxGraphModel>
  </diagram>
</mxfile>
